<svg width="29" height="29" fill="none" xmlns="http://www.w3.org/2000/svg"><path fill-rule="evenodd" clip-rule="evenodd" d="M14.763 29C22.626 29 29 22.626 29 14.763S22.626.526 14.763.526.526 6.9.526 14.763 6.9 29 14.763 29zM10.79 9.068h8.658a1.69 1.69 0 011.722 1.722v8.657a1.69 1.69 0 01-1.722 1.722H10.79a1.69 1.69 0 01-1.722-1.722V10.79a1.69 1.69 0 011.722-1.722zm7.96 6.19c0 1.908-1.63 3.49-3.631 3.49s-3.63-1.582-3.584-3.537c0-.325.047-.651.14-.977h-1.07v4.98c0 .28.232.466.465.466h8.098c.28 0 .466-.233.466-.466v-4.933H18.61c.093.279.14.651.14.977zm-5.958-.186c0 1.256 1.024 2.28 2.327 2.28s2.327-.977 2.327-2.28c0-1.257-1.024-2.28-2.327-2.28s-2.327 1.023-2.327 2.28zm6.283-2.188c.28 0 .512-.233.512-.512v-1.256a.516.516 0 00-.512-.512h-1.303a.517.517 0 00-.512.512v1.256c0 .28.233.512.512.512h1.303z" fill="#F3F3F3"/></svg>