<svg width="59" height="54" fill="none" xmlns="http://www.w3.org/2000/svg"><path d="M26 42.848c.846-3.601 2.67-6.9 5.269-9.532v-2.04h2.09l.109-.102a43.652 43.652 0 015.562-4.252 26.388 26.388 0 002.359-1.694c.325-.279.635-.572.938-.855.177-.167.347-.33.515-.492v-3.933H31.269V8.375H19.942v11.573H8.37v11.327h11.573v11.573H26z" fill="#404041"/><path d="M28.068 53.929s-2.216-2.462-.985-9.11c1.232-6.649 4.186-9.604 7.387-12.559 3.201-2.954 6.156-4.432 7.88-5.91 1.723-1.477 2.954-3.2 3.2-1.23.247 1.97-1.23 4.432-3.2 6.156-1.97 1.723-5.171 4.924-4.925 5.17.246.247 4.678-1.477 8.372-6.648 3.694-5.17 4.925-10.834 7.88-14.035 2.954-3.201 4.432-2.709 4.678-2.462.246.246-1.477 4.186-2.462 9.356-.985 5.171-4.186 16.498-11.82 22.9-7.633 6.402-12.804 7.88-16.005 8.372z" fill="#404041"/><path d="M25.246 49.25a23.515 23.515 0 1123.55-28.092 54.94 54.94 0 011.51-3.07A25.734 25.734 0 1025.5 51.466a14.021 14.021 0 01-.254-2.217z" fill="#404041"/></svg>