<svg width="21" height="20" fill="none" xmlns="http://www.w3.org/2000/svg"><path d="M17.596 1.498C17.596.672 16.952 0 16.16 0H4.84c-.792 0-1.435.672-1.435 1.498v4.924h14.19V1.498zm-2.994 3.64H6.399a.63.63 0 01-.616-.643.63.63 0 01.616-.642h8.203a.63.63 0 01.615.642.63.63 0 01-.615.642zm0-2.57H6.399a.63.63 0 01-.616-.641.63.63 0 01.616-.643h8.203a.63.63 0 01.615.643.63.63 0 01-.615.642zm4.962 5.138H1.436C.644 7.706 0 8.378 0 9.204v9.248c0 .826.644 1.498 1.436 1.498h1.968v-5.78a.63.63 0 01.616-.642h12.96a.63.63 0 01.616.643v5.779h1.968c.792 0 1.436-.672 1.436-1.498V9.204c0-.826-.644-1.498-1.436-1.498zm-1.845 4.067a.63.63 0 01-.616-.642.63.63 0 01.616-.642.63.63 0 01.615.642.63.63 0 01-.615.642z" fill="#404041"/><path d="M4.635 14.813h11.73v5.137H4.635v-5.137z" fill="#404041"/></svg>