<svg width="19" height="19" fill="none" xmlns="http://www.w3.org/2000/svg"><path d="M18.574 15.016L15.64 12.08c-.585-.582-1.553-.564-2.157.04l-1.479 1.48-.291-.163c-.934-.517-2.212-1.226-3.556-2.571C6.808 9.517 6.099 8.238 5.58 7.303c-.055-.098-.107-.194-.159-.284l.992-.991.488-.489c.606-.605.622-1.573.04-2.157L4.005.447c-.583-.583-1.551-.565-2.157.04l-.827.833.023.022a4.782 4.782 0 00-.682 1.202 4.983 4.983 0 00-.303 1.22c-.387 3.211 1.08 6.147 5.064 10.13 5.506 5.506 9.944 5.09 10.135 5.07a4.96 4.96 0 001.222-.307c.437-.17.845-.402 1.198-.679l.018.016.838-.82c.604-.606.622-1.574.039-2.158z" fill="#D98337"/></svg>