<svg width="30" height="29" fill="none" xmlns="http://www.w3.org/2000/svg"><path fill-rule="evenodd" clip-rule="evenodd" d="M15.213 29c7.863 0 14.237-6.374 14.237-14.237S23.076.526 15.213.526.976 6.9.976 14.763 7.35 29 15.213 29zm-4.308-12.75l-3.273-1.221c-.333-.111-.333-.61 0-.722l13.481-5.214c.277-.111.555.166.5.443l-2.442 11.65c-.055.278-.388.389-.61.223l-3.273-2.386c-.222-.166-.5-.166-.666 0l-1.83 1.498c-.222.166-.555.11-.61-.167l-1.277-4.105zm7.545-4.55l-6.435 3.939c-.278.11-.389.444-.222.721l.666 2.441c.055.222.332.167.332 0l.167-1.331c0-.278.166-.5.333-.666l5.27-4.937c.111-.056 0-.223-.11-.167z" fill="#F3F3F3"/></svg>