<svg width="29" height="41" fill="none" xmlns="http://www.w3.org/2000/svg"><path d="M3.803 2.271H8.76v8.305a.365.365 0 00.285.413c1.385.502 2.496 1.334 3.115 2.721.283.671.418 1.395.399 2.123V39.42a5.33 5.33 0 01-.012.545 1.083 1.083 0 01-1.148 1.032H1.212c-.745 0-1.212-.46-1.212-1.201V15.715c0-2.228 1.272-3.923 3.51-4.72a.363.363 0 00.291-.413 1275.74 1275.74 0 010-7.951l.002-.36zm1.121 9.509c-.318.08-.619.136-.906.233-1.54.52-2.913 1.635-2.901 3.993.037 7.846.014 15.692.014 23.539v.305h10.293c0-.093.01-.173.01-.254V15.79a4.823 4.823 0 00-.065-.814c-.226-1.31-1.033-2.17-2.197-2.707-.481-.22-1.002-.355-1.54-.543V9.005H4.923v2.775zm21.862-.612c.235 1.033.469 2.026.698 3.03.44 1.93.9 3.854 1.313 5.78.35 1.632.252 3.242-.473 4.768-.758 1.59-2.065 2.54-3.716 3.058-.57.182-1.169.277-1.755.413-.13.027-.225.035-.225.217v10.605c0 .016 0 .03.012.07.058.02.124.047.192.066 1.637.413 3.273.846 4.912 1.255.26.064.351.172.262.44H15.804c-.091-.33-.085-.343.225-.423 1.635-.413 3.272-.849 4.91-1.262.177-.045.235-.113.235-.297V28.506c0-.219-.078-.268-.277-.297a8.616 8.616 0 01-2.958-.925c-1.78-.97-2.738-2.494-3.027-4.474-.207-1.361.045-2.685.355-3.992.576-2.44 1.125-4.885 1.676-7.332.054-.24.133-.326.397-.326 3.047.012 6.095 0 9.143 0l.303.008zm-4.844.892H18.08c-.19 0-.264.048-.308.244a889.2 889.2 0 01-1.567 6.845c-.256 1.102-.498 2.203-.357 3.35.219 1.789 1.018 3.207 2.645 4.048 2.248 1.162 4.542 1.156 6.795.023a4.704 4.704 0 002.49-3.083 6.536 6.536 0 00.097-3.168c-.584-2.684-1.195-5.341-1.782-8.013-.047-.217-.136-.252-.33-.25-1.276.009-2.548.004-3.82.004zM6.28 0h1.783c.403 0 .742.122.923.504a1.158 1.158 0 01-.076 1.148.446.446 0 01-.326.153c-1 .01-1.997 0-2.996 0H3.956a.423.423 0 01-.303-.151 1.156 1.156 0 01-.068-1.18C3.777.108 4.13 0 4.52 0h1.76z" fill="#404041"/><path d="M10.396 30.179v5.748c0 .62-.283.91-.906.91H3c-.62 0-.898-.278-.898-.887V24.432c0-.603.277-.88.878-.88h6.539c.594 0 .877.288.877.884v5.743zm6.477-10.925h9.898c.206 0 .306.04.339.264.093.653.28 1.297.31 1.951.113 2.72-1.392 4.59-4.09 5.162a6.525 6.525 0 01-4.064-.413c-1.69-.743-2.573-2.064-2.77-3.886-.104-1.055.09-2.062.377-3.078z" fill="#404041"/></svg>