<svg width="54" height="55" fill="none" xmlns="http://www.w3.org/2000/svg"><path d="M21.591 9.536c-7.4 4.415-10.918 10.759-9.168 19.279 1.426 6.944 5.91 11.547 12.838 13.1 8.665 1.948 15.132-1.55 19.663-9.064.111.083.217.173.318.268 2.802 2.791 5.604 5.59 8.404 8.398.222.221.315.374.04.647a2079.028 2079.028 0 00-7.376 7.358c-.088.089-.19.163-.317.274-.148-.13-.29-.247-.419-.377l-3.694-3.694a.492.492 0 00-.719-.108 22.138 22.138 0 01-5.728 2.374.518.518 0 00-.472.603c.02 1.746 0 3.49.017 5.235 0 .436-.106.599-.574.596-3.41-.018-6.82-.018-10.232 0-.465 0-.554-.177-.551-.578.014-1.724 0-3.428.014-5.14 0-.433-.108-.63-.554-.739a21.575 21.575 0 01-5.634-2.346.493.493 0 00-.721.098c-1.232 1.254-2.495 2.485-3.726 3.743-.293.3-.47.34-.786.02a835.177 835.177 0 00-7.24-7.24c-.293-.29-.344-.47-.014-.788 1.273-1.231 2.511-2.512 3.777-3.755a.493.493 0 00.099-.717 21.962 21.962 0 01-2.409-5.762c-.084-.33-.246-.409-.564-.409-1.743.015-3.49 0-5.233.015-.458.007-.63-.104-.63-.599.02-3.395.02-6.79 0-10.185 0-.467.163-.586.603-.586 1.744.02 3.487 0 5.233.015.33 0 .507-.084.594-.43a22.055 22.055 0 012.361-5.677c.21-.36.163-.564-.123-.842-1.258-1.231-2.49-2.487-3.745-3.724-.247-.246-.284-.416 0-.684A2302.11 2302.11 0 0012.249.784c.211-.214.364-.288.615-.042 2.852 2.868 5.705 5.728 8.56 8.58.061.067.117.138.168.214z" fill="#404041"/><path d="M24.207 36.53c.86-.828 1.623-1.547 2.371-2.285a555.958 555.958 0 003.667-3.667c1.2-1.207 1.211-2.514.022-3.726a283.278 283.278 0 00-3.334-3.334 2.412 2.412 0 00-3.502.017 5433.49 5433.49 0 00-5.368 5.368c-.133.13-.271.247-.51.493-.165-.535-.327-.985-.436-1.436-1.625-6.804 2.87-13.748 9.757-15.08a12.065 12.065 0 016.053.327.739.739 0 00.862-.214c3.894-3.9 7.795-7.8 11.704-11.702a2.536 2.536 0 013.667-.022c1.088 1.068 2.16 2.154 3.238 3.23 1.381 1.382 1.396 2.734.03 4.103-3.166 3.172-6.333 6.34-9.503 9.503-.601.6-1.19 1.214-1.808 1.795a.606.606 0 00-.155.778c1.303 3.448 1.167 6.873-.53 10.129-1.994 3.832-5.193 6.1-9.498 6.72-2.033.282-4.104.05-6.025-.672-.185-.067-.36-.16-.702-.325z" fill="#404041"/></svg>