<svg width="25" height="20" fill="none" xmlns="http://www.w3.org/2000/svg"><path d="M11.1 3.178L9.056.653A1.742 1.742 0 007.715 0H1.75C.791 0 0 .803 0 1.763v16.474C0 19.191.792 20 1.751 20h.272V5.83c0-1.467 1.219-2.652 2.68-2.652h6.398z" fill="#404041"/><path d="M22.288 4.103H4.704c-.954 0-1.757.774-1.757 1.728v14.163h19.341c.954 0 1.751-.803 1.751-1.762V5.83c0-.954-.792-1.728-1.75-1.728zM17.03 12.65l-3.387 3.634a.463.463 0 01-.34.145.462.462 0 01-.342-.145L9.575 12.65a.459.459 0 11.67-.63l2.578 2.774V8.188c0-.254.208-.462.462-.462s.462.208.462.462v6.605l2.59-2.773a.471.471 0 01.658-.023.46.46 0 01.035.652z" fill="#404041"/></svg>