<svg width="39" height="35" fill="none" xmlns="http://www.w3.org/2000/svg"><g clip-path="url(#clip0_290_225)" fill="#404041"><path d="M0 35v-1.75c0-8.396 0-16.792.02-25.188a5.415 5.415 0 01.464-1.738c.178-.36.377-.71.595-1.046C1.91 3.599 3.508 2.215 2.904 0h11.174c.052.06.127.111.123.151-.266 1.69.575 3.03 1.531 4.224 1.397 1.766 1.798 3.695 1.766 5.934-.11 7.8-.04 15.607-.04 23.41V35H0zM.897 8.074V34.16h9.451V8.074H.897zm8.535-4.745c0-.907-1.19-2.124-2.123-2.128-1.19 0-2.472 1.26-2.5 2.45 0 .903 1.167 2.168 2.06 2.192 1.17.031 2.539-1.309 2.563-2.514zM21.815 13.36h10.92c.031.044.107.095.102.135-.245 1.865.794 3.25 1.802 4.602a7.57 7.57 0 011.531 5.063c-.142 3.58-.04 7.183-.04 10.774V35H18.725c0-.338-.048-.64-.048-.938v-12.91c.029-.454.15-.897.357-1.301.262-.561.615-1.074.925-1.591.505-.747.95-1.533 1.33-2.35.248-.834.424-1.687.527-2.55zm-2.29 20.805h9.523V21.41h-9.523v12.755zm6.468-19.6a2.643 2.643 0 00-1.694.727 2.655 2.655 0 00-.81 1.66c-.032.938 1.095 2.175 2.012 2.207 1.19.044 2.551-1.261 2.58-2.47.019-.915-1.144-2.104-2.088-2.124z"/><path d="M1.662 21.123a3.938 3.938 0 011.166-2.845 3.919 3.919 0 012.854-1.132 3.963 3.963 0 012.777 1.18 3.982 3.982 0 01-.015 5.61 3.963 3.963 0 01-5.611 0 3.982 3.982 0 01-1.163-2.813h-.008zm3.968-2.876c-.65 1.098-1.234 1.961-1.69 2.888a1.722 1.722 0 00.548 2.299 1.799 1.799 0 002.257.032 1.742 1.742 0 00.595-2.3c-.472-.934-1.055-1.8-1.706-2.919H5.63zm18.649 5.565a3.97 3.97 0 012.812 1.168 3.993 3.993 0 010 5.639 3.973 3.973 0 01-5.625 0 3.992 3.992 0 010-5.64 3.973 3.973 0 012.813-1.167zm.162 1.348h-.33c-.515.903-1.078 1.782-1.53 2.713a1.714 1.714 0 00.57 2.215 1.827 1.827 0 002.239.036 1.69 1.69 0 00.622-2.203c-.452-.943-1.04-1.838-1.57-2.76z"/></g><defs><clipPath id="clip0_290_225"><path fill="#fff" d="M0 0h39v35H0z"/></clipPath></defs></svg>