<svg width="65" height="54" fill="none" xmlns="http://www.w3.org/2000/svg"><g clip-path="url(#clip0_288_184)" fill="#404041"><path d="M18.6 46.182h9.1c2.794 0 5.588.014 8.382 0a1.087 1.087 0 01.815.304 1.05 1.05 0 01.314.799c-.039.53 0 1.063-.011 1.596 0 .154.043.219.21.215.422 0 .849.035 1.221-.244a1.215 1.215 0 00.536-1.031v-10.15a4.57 4.57 0 01.214-1.504c.391-1.154 1.703-2.1 2.954-2.116.221 0 .513.05.64-.063.128-.114.044-.4.044-.612v-16.08a8.245 8.245 0 011.52-4.755c.326-.47.727-.885 1.085-1.333a.518.518 0 00.126-.296v-8.67c0-.192-.065-.232-.245-.23-.71.007-1.422.007-2.136 0-.662 0-1.098-.385-1.106-.98a.946.946 0 01.274-.742.981.981 0 01.748-.29H60.84c.677 0 1.104.425 1.076 1.067-.023.554-.465.935-1.102.939-.636.004-1.331 0-1.997 0-.382 0-.382 0-.382.363v8.514c.005.118.051.23.132.318a9.065 9.065 0 012.187 3.58c.27.827.41 1.688.415 2.556V51.69c0 .316 0 .314.31.314h2.542c.613 0 .979.385.979 1.021a.914.914 0 01-.277.69.948.948 0 01-.702.272H40.22a.99.99 0 01-.631-.19.961.961 0 01-.366-.54c-.11-.534.108-.99.588-1.184a.995.995 0 01.36-.06c.875 0 1.75-.01 2.625 0 .196 0 .25-.05.25-.244V36.326c0-.213-.056-.288-.287-.286-1.008 0-1.523.502-1.523 1.486V47.79a3.04 3.04 0 01-.587 1.887 3.46 3.46 0 01-1.578 1.213 3.795 3.795 0 01-1.594.208c-.208-.015-.268.063-.266.26.01.604.013 1.207-.01 1.81a.662.662 0 01-.196.426c-.223.204-.435.422-.816.385a10.791 10.791 0 00-1.22.015H18.83c-5.873 0-11.747 0-17.62.012-.732 0-1.21-.402-1.206-1.154v-5.725a.936.936 0 01.309-.678.972.972 0 01.711-.253h17.575v-.014zm37.766-36.62c0-.106.022-.192.022-.28V2.287c0-.22-.065-.281-.29-.281-2.668.008-5.338.008-8.01 0-.23 0-.284.073-.284.285v7.002c0 .084.014.17.024.269.442-.177.851-.35 1.27-.498a.238.238 0 00.153-.092.23.23 0 00.043-.17V7.48c0-.413.107-.819.314-1.179a2.78 2.78 0 01.84-.942 2.876 2.876 0 012.451-.409c.414.12.794.33 1.112.617.444.355.735.862.814 1.419.067.613.067 1.235.106 1.852a.28.28 0 00.127.204c.421.179.846.338 1.308.521z"/><path d="M1.784 44.192V26.216c.07 0 .145-.013.217-.013h13.928c.358 0 .358 0 .358.338v12.474c0 .413-.039.827-.037 1.238 0 1.193.027 2.385.04 3.575 0 .362 0 .362-.363.362H1.784v.002zm33.15-8.998v8.673c0 .325 0 .325-.33.325h-13.35c-.335 0-.333 0-.333-.34V26.524c0-.317 0-.32.327-.32h13.366c.318 0 .32 0 .32.307v8.683zm-13.985-14.98c.149-.507.247-.982.425-1.43a6.852 6.852 0 012.377-3.074 7.039 7.039 0 013.692-1.319c.112 0 .196-.02.196-.158 0-.729.03-1.461-.031-2.186a1.556 1.556 0 00-.532-1.022 1.611 1.611 0 00-1.097-.392h-9.846c-.697 0-1.394-.025-2.091-.025-.758 0-1.515 0-2.273.031-.797.027-1.486.794-1.494 1.644v1.962c0 .177.059.248.24.283a7.284 7.284 0 013.65 1.939 7.078 7.078 0 011.968 3.588c0 .036 0 .073.015.138H1.928c.185-1.967 2.223-5.333 6.344-5.802V12.21a3.532 3.532 0 01.94-2.4 3.655 3.655 0 012.34-1.156c.5-.04 1.004-.029 1.507-.03h3.297c.452 0 .904.032 1.357.038.176 0 .352-.038.528-.038 2.546 0 5.11-.012 7.663 0 1.606 0 2.794.72 3.464 2.163.179.42.28.867.3 1.321.046.758.015 1.52.009 2.281a.215.215 0 00.11.226.226.226 0 00.086.026 6.98 6.98 0 013.24 1.97 6.789 6.789 0 011.697 3.351c.04.193 0 .264-.225.264H22l-1.051-.012zM9.006 22.209h7.483c.634 0 1.047.384 1.051.992a.947.947 0 01-.29.731.98.98 0 01-.75.275H1.577c-.358 0-.685-.097-.867-.385-.302-.49-.315-1.154.33-1.463.194-.09.404-.138.617-.139h7.358l-.008-.011zm18.93 0h7.474c.226-.014.45.05.633.18.184.13.315.32.373.535.061.24.032.495-.083.717a1.04 1.04 0 01-.542.487 2.104 2.104 0 01-.794.056c-.314-.018-.63.023-.946.023H20.45c-.723 0-1.25-.612-.967-1.408a.94.94 0 01.377-.449.967.967 0 01.574-.143l7.502.002z"/></g><defs><clipPath id="clip0_288_184"><path fill="#fff" d="M0 0h65v54H0z"/></clipPath></defs></svg>