<svg width="108" height="75" fill="none" xmlns="http://www.w3.org/2000/svg"><path d="M107.433 34.3a.718.718 0 000 .497c.11 1.529.116 3.063.018 4.593a.682.682 0 00-.027.502c-.14.332.021.697-.107 1.032 0 .18-.018.359-.024.541-.165.266.027.598-.129.852-.188.984-.353 1.974-.574 2.949a37.189 37.189 0 01-7.682 15.618 36.431 36.431 0 01-8.513 7.544 35.285 35.285 0 01-11.993 4.964c-.984.252-1.983.44-2.99.562-.234.105-.497-.027-.727.102l-.057-.016-.048.033c-.326.156-.69-.03-1.017.12l-.936.03c-.622.108-1.246.015-1.868.054-.35.024-.437-.14-.428-.455V62.427c0-.243-.105-.509.099-.73l1.36-.021c.38-.144.792.033 1.172-.11a22.641 22.641 0 0010.765-3.795c6.312-4.207 10.083-10.08 11.019-17.621 1.495-12.075-5.918-22.711-16.614-26.314-11.258-3.789-23.84 1.196-29.423 11.68a26.048 26.048 0 00-2.662 7.738c-.025.23-.031.463-.017.694-.153.272 0 .598-.114.855a1.67 1.67 0 00-.03.807c-.212.5.137 1.068-.188 1.552H33.279c-.233-.203-.104-.445-.072-.678.07-.583.08-1.171.033-1.756.129-.299 0-.598.105-.897l.033-.53c.146-.271-.027-.597.117-.863a29.99 29.99 0 011.013-5.329c.553-2 1.282-3.946 2.18-5.816a36.635 36.635 0 013.223-5.508c.898-1.25 1.887-2.44 2.904-3.609a33.272 33.272 0 013.19-3.14 35.55 35.55 0 015.981-4.225 34.224 34.224 0 015.876-2.69c2.093-.704 4.216-1.358 6.435-1.577.18-.033.357-.081.529-.143.23-.144.508 0 .742-.12l.517-.033c.299-.122.598.024.897-.107l.362-.018c.559-.177 1.145.044 1.704-.123h2.599c.55.185 1.13-.042 1.68.123a.406.406 0 00.362.027c.299.131.598 0 .897.107l.52.03c.23.135.506-.018.736.117 1.07.23 2.14.462 3.208.693a34.168 34.168 0 019.22 3.538 37.207 37.207 0 0116.783 19.302 32.976 32.976 0 011.998 7.69c.033.135.08.265.14.39.129.235 0 .51.111.747l.036.646c.104.287-.036.607.095.89z" fill="#B83227"/><path d="M83.631 37.446v-.7c-.161-.424.036-.879-.12-1.303-.22-.933-.337-1.89-.69-2.793a13.372 13.372 0 00-3.29-5.003 13.773 13.773 0 00-3.447-2.419 14.352 14.352 0 00-3.573-1.157c-.266-.165-.598.03-.852-.129l-.79-.03a1.63 1.63 0 00-.927 0l-.927.027c-.233.129-.508 0-.741.114a12.744 12.744 0 00-7.682 4.07c-1.983 2.2-3.248 4.76-3.427 7.75-.191.404.108.897-.18 1.274h-9.362c-.233-.206-.107-.449-.069-.682.117-.771-.026-1.564.168-2.33.134-.23-.024-.508.122-.738A22.352 22.352 0 0154.2 21.07a22.128 22.128 0 0114.535-6.633c6.3-.43 11.853 1.436 16.617 5.55a21.721 21.721 0 017.44 13.196c1.172 7.027-.506 13.36-5.132 18.808-3.546 4.187-8.094 6.707-13.51 7.637-.137.024-.266.072-.4.108-.266.176-.598-.027-.864.135l-.673.026c-1.875.222-1.875.222-1.875-1.575v-7.276c0-.206-.132-.463.129-.625a.65.65 0 00.49 0c.374-.164.783.033 1.157-.12 1.94-.122 3.651-.896 5.26-1.913a13.422 13.422 0 005.681-7.374c.19-.689.341-1.387.455-2.093.161-.502-.048-1.005.122-1.474z" fill="#D98337"/><path d="M7.477 74.779c-1.794-.168-3.412-.664-4.83-1.827-1.106-.897-1.695-2.093-2.12-3.37a9.05 9.05 0 01-.442-2.61 1.947 1.947 0 01.036-1.244l7.55.02c.25-.049.509-.007.73.12.254.299 0 .688.167.999-.042.897.206 1.704.987 2.2 1.002.637 2.847.404 3.22-1.195.087-.45.087-.912 0-1.361-.47-1.01-1.474-1.262-2.374-1.624-1.63-.649-3.334-1.097-4.93-1.824-1.373-.625-2.725-1.306-3.753-2.467A5.197 5.197 0 01.36 57.642c-.138-.23 0-.508-.117-.745v-2c.144-.275-.03-.598.117-.87a7.948 7.948 0 011.713-4.025c.97-1.196 2.258-1.83 3.645-2.36.572-.215 1.179-.254 1.753-.439.215-.164.496.024.714-.134l.542-.021c.517-.15 1.058.047 1.575-.111.288.061.586.061.874 0 .568.156 1.157-.039 1.722.11 1.794.237 3.588.554 5.185 1.457 2.03 1.145 2.93 3.008 3.197 5.245.026.511.17 1.025-.093 1.519a141.609 141.609 0 00-7.805 0c-.299-.23 0-.598-.194-.846-.446-1.699-2.093-2.428-3.546-1.576-.425.245-.715.577-.655 1.109a1.441 1.441 0 000 .834c.092.625.577.912 1.058 1.166 1.848.972 3.855 1.55 5.813 2.246 1.319.47 2.632.939 3.714 1.875 1.495 1.307 2.027 3.065 2.258 4.955a8.368 8.368 0 010 2.093c-.242 1.576-.646 3.089-1.669 4.372-1.31 1.641-3.062 2.523-5.06 3.008-.766.199-1.547.338-2.335.418a26.381 26.381 0 01-4.036 0 .621.621 0 00-.49-.024c-.252-.128-.53-.002-.763-.12zm49.141-35.811c.658-.074.526.395.526.769v33.726c0 .279 0 .557.018.835-.158.212-.389.11-.58.11-2.805 0-5.61 0-8.415.021-.57 0-.681-.18-.678-.705a16190.9 16190.9 0 000-34.143c0-.2-.078-.421.095-.598l.53-.018a7.663 7.663 0 011.719-.053h6.088c.233-.038.473-.018.697.056z" fill="#404041"/><path d="M70.271 37.19a11.246 11.246 0 00-2.006-.051c-3.074 0-6.148 0-9.225.017-.221-.355-.123-.73-.057-1.1a11.123 11.123 0 013.382-7.155c1.672-1.68 3.774-2.605 6.1-3.026.224-.132.493.023.718-.117l.672-.027c.317-.08.65-.08.966 0l.676.027c.27.161.598-.042.861.131 1.845.46 3.588 1.122 5.084 2.342a11.063 11.063 0 014.111 6.949c.032.104.074.204.126.299.188.37-.03.786.131 1.16v1.029c-.146.326.03.688-.113 1.014a13.917 13.917 0 01-1.397 4.012 11.234 11.234 0 01-7.039 5.484 4.59 4.59 0 01-1.324.285c-.317.137-.676-.045-.993.113h-.481c-.24-.203-.111-.478-.111-.712v-9.927c.04-.252.013-.51-.08-.748z" fill="#EABA40"/><path d="M59.064 50.265c1.573.126 3.148.033 4.724.051 1.367.018 2.736.033 4.103 0 .547-.015.688.137.688.688a4821.07 4821.07 0 000 22.818v.487c-.162.207-.39.108-.58.108h-8.42c-.503 0-.677-.099-.674-.643.018-7.655 0-15.31.018-22.965.003-.176-.122-.418.14-.544zm-.045-11.279l.526-.018c.57-.082 1.146-.1 1.72-.054h6.09c.23-.035.463-.015.682.057.49-.06.536.221.536.625v8.947c-.111.176-.3.11-.44.11h-8.671c-.347 0-.557-.024-.554-.47.018-2.99 0-5.98 0-8.97a.299.299 0 01.11-.227zm-13.414 20.51c-.15-.52.027-1.061-.102-1.584l-.036-1.077c-.15-.326.03-.688-.116-1.014-.096-.538-.18-1.08-.3-1.614-.597-2.757-1.83-5.027-4.562-6.217a25.35 25.35 0 00-2.533-.798c-.224-.165-.508 0-.739-.132l-.517-.027c-.565-.152-1.151.048-1.713-.113a2.02 2.02 0 01-.867 0c-.524.152-1.071-.036-1.594.11l-.53.024c-.224.144-.499-.02-.723.123-1.032.263-2.093.445-3.06.897-3.247 1.552-4.547 4.374-5.02 7.733-.164.272.024.597-.125.873l-.027.52c-.135.338.027.706-.114 1.04.07.346.064.704-.018 1.047a17.113 17.113 0 000 3.343c.066.295.066.602 0 .897.15.383-.027.796.114 1.178l.03.512c.122.233 0 .508.113.741.098.728.25 1.448.455 2.153.637 2.27 1.794 4.136 3.887 5.344a11.4 11.4 0 005.128 1.423c1.204.096 2.414.096 3.618 0a9.83 9.83 0 001.932-.32c2.273-.538 4.258-1.534 5.592-3.55.655-.986.939-2.122 1.25-3.244.155-.23 0-.514.125-.747l.036-.65c.123-.337-.03-.702.105-1.037-.069-.158-.135-.32-.203-.478-.244.07-.5.089-.751.057h-5.738c-.607.05-1.217.04-1.821-.03-.18.087-.177.245-.177.412a11.042 11.042 0 01-.299 2.521c-.299 1.346-1.671 1.992-2.852 1.271-.763-.463-.954-1.235-.936-2.075a30.815 30.815 0 01.015-4.459c.24-.085.497-.107.747-.065 3.846 0 7.688-.021 11.533 0 .628 0 .799-.183.766-.784-.045-.709.012-1.456.027-2.204zm-8.998-2.326c0 .299-.17.326-.4.323h-3.331c-.237 0-.407-.033-.401-.329.027-1.083-.087-2.174.182-3.241.246-.957.79-1.352 1.812-1.355 1.146 0 1.705.38 1.959 1.36.275 1.083.147 2.166.18 3.248v-.006z" fill="#404041"/></svg>