<svg width="46" height="44" viewBox="0 0 46 44" fill="none" xmlns="http://www.w3.org/2000/svg">
<path d="M3.63553 24.7753H0V25.8359H3.63553V24.7753Z" fill="#404041"/>
<path d="M3.63553 31.5638H0V32.6244H3.63553V31.5638Z" fill="#404041"/>
<path d="M3.63553 17.9869H0V19.0475H3.63553V17.9869Z" fill="#404041"/>
<path d="M3.63553 11.1956H0V12.2562H3.63553V11.1956Z" fill="#404041"/>
<path d="M12.8311 18.5187H8.58295V37.7049H12.8311V18.5187Z" fill="#404041"/>
<path d="M35.8234 10.9788H31.5752V37.7019H35.8234V10.9788Z" fill="#404041"/>
<path d="M20.4953 32.0955H16.2471V37.7019H20.4953V32.0955Z" fill="#404041"/>
<path d="M28.1593 25.3071H23.9111V37.7049H28.1593V25.3071Z" fill="#404041"/>
<path d="M0.965088 5.32325L4.03708 0L7.11196 5.32325H0.965088Z" fill="#404041"/>
<path d="M40.326 37.8031L45.6521 40.878L40.326 43.9529V37.8031Z" fill="#404041"/>
<path d="M42.2534 41.9386H2.97644V2.66162H5.10054V39.8145H42.2534V41.9386Z" fill="#404041"/>
<path d="M42.2534 41.9386H2.97644V2.66162H5.10054V39.8145H42.2534V41.9386Z" fill="#404041"/>
<path d="M42.2534 41.9386H2.97644V2.66162H5.10054V39.8145H42.2534V41.9386Z" fill="#404041"/>
</svg>
