<svg width="45" height="45" viewBox="0 0 45 45" fill="none" xmlns="http://www.w3.org/2000/svg">
<path fill-rule="evenodd" clip-rule="evenodd" d="M24.7884 22.0856H19.3057L22.0471 26.8219L24.7884 22.0856Z" fill="#404041"/>
<path fill-rule="evenodd" clip-rule="evenodd" d="M14.2989 21.9827H13.3594V22.047L13.4623 23.4499L13.797 24.7884L14.3247 26.0368L15.0325 27.1694L15.9077 28.1862L16.9116 29.0485L18.0571 29.7564L19.3055 30.2841L20.6311 30.6187L22.0469 30.7345L22.7547 30.7088L24.1319 30.4771L25.4318 30.0524L25.9852 29.7821H22.0469L21.4162 29.7564L20.1807 29.5633L19.0352 29.1772L17.967 28.6238L17.0017 27.9159L16.1651 27.0793L15.4572 26.1141L14.9038 25.0587L14.5306 23.9003L14.3247 22.6777L14.2989 22.047V21.9827Z" fill="#404041"/>
<path fill-rule="evenodd" clip-rule="evenodd" d="M30.7344 21.9827H29.7948V22.047L29.7691 22.6777L29.5632 23.9003L29.1771 25.0587L28.6236 26.1141L27.9286 27.0793L27.0792 27.9159L26.1268 28.6238L25.0585 29.1772L23.9002 29.5633L22.6775 29.7564L22.0469 29.7821H25.9852L27.1693 29.0485L28.186 28.1862L29.0612 27.1694L29.7691 26.0368L30.2968 24.7884L30.6185 23.4499L30.7344 22.047V21.9827Z" fill="#404041"/>
<path fill-rule="evenodd" clip-rule="evenodd" d="M11.3517 21.9827H9.45972V22.047L9.49833 23.0766L9.62703 24.0805L9.82009 25.0587L10.1032 26.0111L10.4507 26.9378L10.8626 27.8258L11.3517 28.6624L11.8922 29.4732L12.4971 30.2326L13.1535 30.9404L13.8614 31.5968L14.6207 32.2017L15.4187 32.7423L16.2681 33.2185L17.1562 33.6432L18.07 33.9907L19.0224 34.261L20.0005 34.4669L21.0173 34.5828L22.0469 34.6342L23.0766 34.5828L24.0805 34.4669L25.0715 34.261L26.0239 33.9907L26.9377 33.6432L27.8257 33.2185L28.6752 32.7423H22.0469L21.1717 32.7037L20.3094 32.6007L19.4729 32.4205L18.6749 32.1889L17.8898 31.8928L17.1305 31.5453L16.4226 31.1335L15.7276 30.6702L15.0841 30.1553L14.492 29.6019L13.9257 28.997L13.4238 28.3535L12.9605 27.6714L12.5486 26.9506L12.1882 26.2041L11.8922 25.4191L11.6605 24.6082L11.4932 23.7716L11.3903 22.9222L11.3517 22.047V21.9827Z" fill="#404041"/>
<path fill-rule="evenodd" clip-rule="evenodd" d="M34.6341 21.9827H32.7421V22.047L32.7035 22.9222L32.6006 23.7716L32.4333 24.6082L32.1887 25.4191L31.8927 26.2041L31.5452 26.9506L31.1334 27.6714L30.67 28.3535L30.1681 28.997L29.6018 29.6019L28.9969 30.1553L28.3534 30.6702L27.6712 31.1335L26.9505 31.5453L26.204 31.8928L25.4189 32.1889L24.6081 32.4205L23.7715 32.6007L22.9221 32.7037L22.0469 32.7423H28.6751L29.4731 32.2017L30.2324 31.5968L30.9403 30.9404L31.5967 30.2326L32.2016 29.4732L32.7421 28.6624L33.2184 27.8258L33.6431 26.9378L33.9906 26.0111L34.2609 25.0587L34.4668 24.0805L34.5955 23.0766L34.6341 22.047V21.9827Z" fill="#404041"/>
<path fill-rule="evenodd" clip-rule="evenodd" d="M7.56777 21.9827H0V22.047L0.0772222 23.8489L0.283148 25.6121L0.643518 27.3367L1.11972 28.997L1.7375 30.6187L2.45824 32.1631L3.30768 33.6432L4.26009 35.059L5.31546 36.3846L6.46092 37.6202L7.70935 38.7785L9.035 39.8339L10.4379 40.7863L11.918 41.6228L13.4753 42.3565L15.0841 42.9614L16.7572 43.4504L18.469 43.7979L20.2451 44.0167L22.0469 44.094L23.8488 44.0167L25.612 43.7979L27.3367 43.4504L29.0098 42.9614L30.6186 42.3565L32.163 41.6228L33.656 40.7863L35.0589 39.8339L36.3845 38.7785L37.6329 37.6202L38.6497 36.5262H22.0469L20.8629 36.4747L19.7045 36.3331L18.5719 36.1015L17.478 35.7797L16.4097 35.3807L15.393 34.9045L14.4277 34.3511L13.501 33.7204L12.6258 33.0254L11.815 32.279L11.0556 31.4553L10.3606 30.5929L9.74287 29.6663L9.18944 28.6881L8.71324 27.6714L8.30139 26.616L7.9925 25.522L7.76083 24.3894L7.61926 23.2311L7.56777 22.047V21.9827Z" fill="#404041"/>
<path fill-rule="evenodd" clip-rule="evenodd" d="M44.0938 21.9827H36.526V22.047L36.4746 23.2311L36.333 24.3894L36.1013 25.522L35.7796 26.616L35.3806 27.6714L34.9044 28.6881L34.3509 29.6663L33.7203 30.5929L33.0382 31.4553L32.2788 32.279L31.468 33.0254L30.5928 33.7204L29.6661 34.3511L28.688 34.9045L27.6712 35.3807L26.6159 35.7797L25.5219 36.1015L24.3893 36.3331L23.2309 36.4747L22.0469 36.5262H38.6496L39.8337 35.059L40.7861 33.6432L41.6227 32.1631L42.3563 30.6187L42.9612 28.997L43.4503 27.3367L43.7978 25.6121L44.0166 23.8489L44.0938 22.047V21.9827Z" fill="#404041"/>
<path fill-rule="evenodd" clip-rule="evenodd" d="M22.2141 0H21.6349L21.4033 0.0128704H21.1716L21.0944 22.1499H22.9863V0.0128704H22.7289L22.4715 0H22.2141Z" fill="#404041"/>
</svg>
