<svg width="33" height="44" viewBox="0 0 33 44" fill="none" xmlns="http://www.w3.org/2000/svg">
<path d="M23.4879 16.1081V2.78616C23.4879 2.62065 23.4879 2.45513 23.4776 2.29048C23.4787 2.22069 23.4572 2.15241 23.4161 2.09596C23.3751 2.03951 23.3167 1.99795 23.25 1.97756C23.1974 1.95946 23.1465 1.93877 23.094 1.92326C22.7543 1.82412 22.5923 1.5543 22.4612 1.25862C22.4362 1.19434 22.4236 1.12589 22.4242 1.0569C22.4205 0.849242 22.4825 0.64573 22.6014 0.475434C22.7203 0.305138 22.89 0.176769 23.0862 0.10866C23.2694 0.0463123 23.4609 0.0114523 23.6543 0.0052147C23.7646 0.0052147 23.875 0.0052147 23.9853 0.0052147C26.4427 0.00176654 28.8975 4.2459e-05 31.3497 4.2459e-05C31.639 -0.00121899 31.9277 0.0256304 32.2118 0.0802123C32.5738 0.150038 32.798 0.367272 32.929 0.696571C32.9848 0.823662 33.0063 0.963209 32.9911 1.1012C32.976 1.2392 32.9248 1.37078 32.8428 1.48275C32.7123 1.69664 32.511 1.85801 32.2738 1.93877C32.2213 1.95581 32.1697 1.97596 32.1195 1.99912C32.0741 2.01747 32.0342 2.04743 32.004 2.086C31.9737 2.12458 31.9541 2.17041 31.9471 2.21894C31.9353 2.30062 31.9287 2.38296 31.9273 2.46548C31.9273 2.63099 31.9273 2.7965 31.9273 2.96201C31.9273 13.953 31.9273 24.9441 31.9273 35.9351C31.9273 36.323 31.923 36.7109 31.8101 37.0833C31.7239 37.373 31.604 37.6531 31.4971 37.9367C31.4256 38.1311 31.3281 38.3149 31.2075 38.4833C30.792 39.0617 30.3067 39.5617 29.6498 39.8694C29.5877 39.8987 29.5257 39.9289 29.4653 39.9617C28.7757 40.3384 28.0291 40.4323 27.2602 40.3729C26.8902 40.3372 26.5315 40.2263 26.2059 40.047C26.0965 39.9884 25.987 39.9289 25.8749 39.8746C25.8305 39.8545 25.7808 39.8492 25.7332 39.8594C25.6856 39.8697 25.6425 39.8949 25.6103 39.9315C25.5457 40.0029 25.488 40.0803 25.4379 40.1625C25.1902 40.5766 24.907 40.9683 24.5913 41.3332C24.3439 41.6323 24.0741 41.9064 23.8051 42.1823C23.6751 42.3261 23.5158 42.4405 23.3379 42.5176C23.2102 42.571 23.0934 42.6472 22.9931 42.7426C22.9367 42.8033 22.8694 42.853 22.7948 42.8892C22.556 42.9754 22.3638 43.1297 22.1647 43.2762C22.0726 43.3369 21.975 43.3888 21.8733 43.4314C21.7871 43.4736 21.6931 43.5012 21.6087 43.5478C21.4526 43.6371 21.2772 43.6874 21.0975 43.6943C20.9445 43.697 20.7953 43.7421 20.6665 43.8245C20.5368 43.9035 20.3872 43.9436 20.2354 43.94H20.0285C19.1872 43.94 18.3458 43.94 17.5045 43.94C17.2398 43.94 16.9873 43.9219 16.7442 43.7857C16.6457 43.7372 16.5389 43.7079 16.4295 43.6995C16.2508 43.6802 16.0778 43.625 15.9209 43.5374C15.861 43.5032 15.7974 43.476 15.7313 43.4564C15.5308 43.4011 15.3484 43.2937 15.2028 43.1452C15.1047 43.0468 14.9801 42.9792 14.8442 42.9504C14.6965 42.9131 14.5618 42.8362 14.4546 42.728C14.3867 42.659 14.3102 42.599 14.227 42.5495C13.9779 42.4193 13.7874 42.2211 13.59 42.028C13.2806 41.7328 12.9977 41.4112 12.7443 41.0668C12.5719 40.8323 12.384 40.6142 12.2012 40.3901C12.162 40.3415 12.1127 40.302 12.0568 40.2743C12.0008 40.2466 11.9395 40.2314 11.8771 40.2298C11.7254 40.222 11.5736 40.2194 11.4228 40.2194H4.13769C3.99976 40.2194 3.86183 40.2194 3.72391 40.2194C3.33787 40.2037 2.95545 40.1385 2.58601 40.0255C2.19306 39.8932 1.82483 39.6966 1.49639 39.4436C0.955031 39.0505 0.598146 38.5229 0.333499 37.9169C0.136954 37.4661 0.0671286 36.9919 0.00678571 36.5126C-0.0022619 36.4443 -0.0022619 36.375 0.00678571 36.3066C0.0526509 35.8957 0.131934 35.4892 0.243847 35.0911C0.436944 34.4877 0.606766 33.8757 0.791243 33.2688C1.04986 32.4248 1.30847 31.5818 1.61449 30.7533C1.77656 30.3146 1.90069 29.8611 2.04551 29.4155C2.24551 28.7988 2.44665 28.1827 2.64894 27.5672C2.68342 27.4629 2.73515 27.3655 2.77825 27.2629C2.83342 27.1216 2.88773 26.9802 2.93514 26.8362C3.24892 25.8805 3.56184 24.9234 3.8739 23.9648C4.09458 23.5165 4.21354 23.0329 4.36785 22.5622C4.49198 22.1821 4.61698 21.8019 4.74801 21.4243C4.88766 21.02 5.03593 20.6192 5.17903 20.2175C5.41523 19.5408 5.65143 18.8641 5.88246 18.1848C6.10055 17.546 6.30141 16.9004 6.57209 16.278C6.71563 15.9335 6.78636 15.5631 6.77984 15.1901C6.77208 13.3798 6.77984 11.5773 6.77984 9.77041C6.77984 9.66007 6.77984 9.54973 6.77381 9.43939C6.77889 9.36286 6.75689 9.28698 6.71166 9.22505C6.66643 9.16311 6.60084 9.11906 6.5264 9.10061C6.43347 9.07424 6.34269 9.04081 6.25486 9.00061C6.08354 8.92397 5.9395 8.79717 5.84177 8.63694C5.74404 8.47672 5.69721 8.29062 5.70746 8.10323C5.71643 7.96504 5.75329 7.8301 5.81581 7.70654C5.87833 7.58298 5.96522 7.47336 6.07124 7.38428C6.17585 7.29219 6.30669 7.23521 6.44537 7.22136C6.56864 7.20843 6.69277 7.20412 6.81691 7.20326C8.96741 7.20326 11.1188 7.20326 13.271 7.20326C13.3572 7.20326 13.4365 7.20929 13.5184 7.20843C13.9494 7.20239 14.3805 7.62824 14.3856 8.09461C14.3908 8.56097 14.1925 8.88682 13.7615 9.06613C13.4434 9.11612 13.3753 9.33336 13.3917 9.61094C13.3969 9.69714 13.3917 9.77645 13.3917 9.8592C13.3917 11.6408 13.3917 13.4197 13.3917 15.1961C13.3917 15.3064 13.3917 15.4168 13.3917 15.5271C13.3946 15.6791 13.4219 15.8296 13.4727 15.9728C13.6753 16.559 13.877 17.146 14.0762 17.7348C14.2882 18.377 14.5279 19.008 14.758 19.6434C15.0166 20.3701 15.2503 21.1088 15.4977 21.839C15.6261 22.2174 15.7563 22.5941 15.8951 22.97C15.9813 23.2027 16.0675 23.4329 16.1623 23.6596C16.1683 23.6734 16.2088 23.6769 16.2338 23.6786C16.2416 23.6786 16.2563 23.6613 16.2597 23.6493C16.2718 23.6102 16.2802 23.5701 16.2847 23.5294C16.289 23.4432 16.2899 23.3639 16.2899 23.2812V15.4211C16.2899 15.3107 16.2899 15.2004 16.2778 15.0909C16.2755 15.035 16.26 14.9804 16.2325 14.9315C16.2051 14.8827 16.1666 14.841 16.1201 14.8099C16.0014 14.7179 15.8744 14.6371 15.7408 14.5685C15.3235 14.3892 15.1011 13.7263 15.4106 13.2436C15.5038 13.0898 15.6445 12.9706 15.8114 12.9039C16.0524 12.8007 16.3114 12.7465 16.5735 12.7445C18.1591 12.7496 19.7449 12.7496 21.3311 12.7445C21.6082 12.7392 21.881 12.8133 22.1173 12.9582C22.3862 13.1229 22.5069 13.3789 22.5345 13.6806C22.5375 13.777 22.5204 13.873 22.4845 13.9625C22.3933 14.2091 22.2505 14.4334 22.0655 14.6203C21.966 14.7165 21.8452 14.7879 21.713 14.8289C21.6537 14.8496 21.6024 14.8884 21.5665 14.94C21.5306 14.9915 21.5118 15.0531 21.513 15.1159C21.5061 15.2254 21.5026 15.3357 21.5026 15.4461C21.5026 18.5494 21.5026 21.6528 21.5026 24.7561C21.499 24.9213 21.5088 25.0865 21.5319 25.2501C21.57 25.5095 21.587 25.7715 21.5828 26.0337C21.5828 26.8612 21.5828 27.6885 21.5828 28.5155C21.5828 28.6534 21.5828 28.7922 21.5992 28.9284C21.6002 29.0124 21.6311 29.0933 21.6864 29.1565C21.7417 29.2197 21.8178 29.2611 21.9009 29.2732C22.1172 29.3185 22.3224 29.4064 22.5043 29.5318C22.7952 29.689 23.0728 29.8694 23.3345 30.0715C23.3724 30.1042 23.4526 30.0637 23.4612 30.0103C23.4715 29.9562 23.4784 29.9015 23.4819 29.8465C23.4819 29.6956 23.4819 29.5439 23.4819 29.3922L23.4879 16.1081ZM7.31344 39.1427H10.8288C10.953 39.1427 11.0771 39.1427 11.2012 39.1376C11.2563 39.1347 11.3111 39.1275 11.365 39.116C11.3921 39.1103 11.4178 39.0993 11.4406 39.0836C11.4634 39.0679 11.4829 39.0479 11.498 39.0247C11.513 39.0014 11.5233 38.9755 11.5283 38.9482C11.5333 38.921 11.5329 38.8931 11.5271 38.866C11.523 38.8249 11.5141 38.7843 11.5004 38.7453C11.4193 38.5557 11.3392 38.3652 11.2512 38.179C11.2272 38.1289 11.1899 38.0863 11.1434 38.056C11.0969 38.0256 11.043 38.0085 10.9875 38.0066C10.8228 37.9945 10.6564 37.991 10.4918 37.991H3.87304C3.72218 37.991 3.57046 37.991 3.41874 37.985C3.20902 37.9838 3.00802 37.901 2.85842 37.754C2.77221 37.6678 2.68601 37.5816 2.59291 37.4954C2.3842 37.2899 2.25683 37.0159 2.2343 36.7238C2.19577 36.422 2.21419 36.1155 2.28861 35.8204C2.42619 35.2719 2.59397 34.7315 2.79118 34.2015C2.83169 34.0989 2.87738 33.9963 2.90583 33.8912C3.086 33.2981 3.2722 32.7059 3.43857 32.1085C3.65753 31.324 3.95579 30.568 4.22475 29.7999C4.22906 29.787 4.2351 29.7749 4.24027 29.762C4.26615 29.6825 4.31582 29.6128 4.38258 29.5624C4.44933 29.512 4.52994 29.4832 4.61353 29.4801C4.75146 29.4715 4.88939 29.4689 5.02731 29.4689H8.83236C9.16338 29.4689 9.49441 29.4689 9.82543 29.4689C9.93561 29.4689 10.0456 29.4767 10.1547 29.4922C10.2028 29.4988 10.2485 29.5175 10.2875 29.5464C10.3265 29.5753 10.3576 29.6136 10.378 29.6577C10.402 29.7076 10.423 29.7588 10.4409 29.8111C10.559 30.143 10.8263 30.3025 11.1392 30.4008C11.2191 30.425 11.3037 30.4288 11.3855 30.4119C11.4672 30.3951 11.5435 30.358 11.6073 30.3042C11.6383 30.2779 11.6671 30.249 11.6935 30.218C11.8331 30.0837 11.9439 29.9224 12.0193 29.7439C12.0909 29.5637 12.2254 29.5017 12.415 29.5249C12.5522 29.539 12.69 29.5454 12.8279 29.5439C13.5029 29.5525 14.1787 29.5577 14.8546 29.5663C15.0208 29.5735 15.1855 29.5331 15.3296 29.4499C15.5829 29.2837 15.849 29.1375 16.1252 29.0129C16.1632 28.9955 16.1959 28.9683 16.2198 28.934C16.2438 28.8998 16.2581 28.8597 16.2614 28.8181C16.2743 28.7365 16.2812 28.6541 16.2821 28.5715C16.2821 28.2681 16.2821 27.9681 16.2821 27.6612C16.2798 27.4821 16.2453 27.3049 16.1804 27.1379C16.002 26.6449 15.8209 26.1526 15.6683 25.6518C15.4959 25.0846 15.3175 24.5199 15.1106 23.9639C14.9951 23.6544 14.8675 23.3484 14.7658 23.0355C14.5072 22.264 14.2624 21.4881 14.0115 20.7149C13.9813 20.6235 13.9529 20.5304 13.9167 20.4416C13.6667 19.8287 13.4374 19.208 13.246 18.5736C13.1701 18.3236 13.0641 18.0822 12.9874 17.8314C12.8594 17.395 12.7063 16.9664 12.5288 16.5478C12.3155 16.068 12.211 15.5469 12.2228 15.022C12.2478 14.0435 12.2297 13.0634 12.2297 12.085C12.2297 11.3126 12.2297 10.5405 12.2297 9.76869C12.2297 9.64456 12.2297 9.52042 12.2159 9.39715C12.2168 9.3269 12.1903 9.25904 12.142 9.20801C12.0938 9.15697 12.0275 9.12679 11.9573 9.12388C11.8476 9.11269 11.7374 9.10751 11.6271 9.10837H8.44789C8.36169 9.10837 8.28238 9.10837 8.19962 9.11526C7.96342 9.13164 7.87291 9.21612 7.85481 9.44284C7.84532 9.5799 7.84618 9.71783 7.84618 9.85576V15.109C7.84618 15.247 7.85308 15.3857 7.84188 15.5228C7.83512 15.674 7.81199 15.824 7.77291 15.9702C7.61774 16.4555 7.46258 16.9426 7.28155 17.4184C7.10052 17.8943 6.91949 18.3727 6.76432 18.8572C6.6126 19.3098 6.4652 19.7709 6.30399 20.227C6.16865 20.6175 6.02124 21.0028 5.87987 21.3924C5.80918 21.5873 5.73505 21.7804 5.67126 21.9769C5.47557 22.5803 5.28765 23.1838 5.08938 23.7872C4.98593 24.101 4.87904 24.4148 4.75146 24.7199C4.61267 25.0509 4.50491 25.3923 4.39457 25.7337C4.13596 26.5337 3.88856 27.3379 3.60753 28.1302C3.34892 28.8577 3.10065 29.5879 2.86962 30.3249C2.72566 30.7852 2.57136 31.2421 2.41705 31.699C2.29378 32.0654 2.15844 32.4274 2.03775 32.7929C1.97655 32.9766 1.92827 33.1636 1.87655 33.349C1.67052 34.0791 1.46794 34.8092 1.25847 35.5377C1.16285 35.884 1.12499 36.2437 1.1464 36.6023C1.16188 37.1584 1.3539 37.6952 1.69466 38.135C1.80414 38.2755 1.93776 38.3936 2.06017 38.5281C2.3399 38.8165 2.70064 39.0131 3.09462 39.0919C3.29752 39.1317 3.50429 39.1485 3.71098 39.1419L7.31344 39.1427ZM26.4326 37.8436C26.406 37.8521 26.3821 37.8674 26.3632 37.8879C26.3443 37.9085 26.3311 37.9336 26.3249 37.9609C26.2548 38.1839 26.1861 38.4077 26.1189 38.6324C26.0919 38.6974 26.0911 38.7703 26.1166 38.8358C26.1422 38.9014 26.1921 38.9545 26.2559 38.9841C26.3899 39.0546 26.5288 39.1154 26.6714 39.166C27.0404 39.2988 27.4249 39.3169 27.8136 39.3117C28.5946 39.3022 29.2713 39.0531 29.8205 38.4824C29.9067 38.3962 29.9972 38.31 30.0791 38.2178C30.4396 37.8311 30.6733 37.3436 30.7489 36.8204C30.8217 36.357 30.8591 35.8887 30.861 35.4196C30.8569 24.5935 30.8569 13.7671 30.861 2.94046V2.60944C30.861 2.54048 30.861 2.47151 30.861 2.40255C30.8463 2.08704 30.7747 2.00774 30.4696 1.99222C30.3592 1.98705 30.2489 1.99222 30.1386 1.99222H25.287C25.1767 1.99222 25.0663 1.99222 24.956 1.99653C24.9009 1.99845 24.8461 2.00509 24.7922 2.01636C24.744 2.02399 24.6993 2.04602 24.6639 2.07957C24.6285 2.11312 24.6041 2.15659 24.5939 2.20428C24.5784 2.27133 24.5697 2.33978 24.5681 2.40858C24.5637 2.57323 24.5681 2.73961 24.5681 2.90512C24.5681 11.9939 24.5681 21.0824 24.5681 30.1706C24.5681 30.4189 24.5568 30.6671 24.5543 30.9154C24.5543 30.9964 24.562 31.0775 24.5646 31.1232C24.7146 31.3326 24.8499 31.5068 24.968 31.6921C25.1017 31.9007 25.2172 32.1231 25.3439 32.3343C25.3862 32.4051 25.4337 32.4725 25.4861 32.536C25.4959 32.5446 25.5075 32.5508 25.5201 32.5543C25.5326 32.5577 25.5458 32.5582 25.5585 32.5559C25.5809 32.5498 25.6128 32.524 25.6146 32.5042C25.6275 32.3542 25.6422 32.2024 25.6422 32.0516C25.6422 30.7148 25.6422 29.3772 25.6422 28.0388C25.6422 27.625 25.6422 27.2112 25.6422 26.7974C25.6426 26.6735 25.6503 26.5498 25.6654 26.4268C25.6721 26.3642 25.6998 26.3057 25.7439 26.2608C25.788 26.2158 25.8461 26.1872 25.9085 26.1794C26.0314 26.1634 26.1553 26.1557 26.2792 26.1561C27.2309 26.1561 28.1826 26.1561 29.1343 26.1561C29.2445 26.1549 29.3547 26.1598 29.4644 26.1707C29.5418 26.1718 29.6158 26.2025 29.6712 26.2566C29.7265 26.3107 29.759 26.3839 29.7618 26.4612C29.7765 26.6112 29.7791 26.7638 29.7791 26.9155C29.7791 29.8666 29.7791 32.8179 29.7791 35.7696C29.7791 35.8385 29.7791 35.9075 29.7791 35.9765C29.7752 36.3221 29.7034 36.6636 29.5679 36.9816C29.5192 37.1105 29.4525 37.2318 29.3696 37.3419C29.0903 37.6971 28.7498 37.9712 28.2998 38.0798C28.139 38.1168 27.9765 38.1456 27.8128 38.166C27.3993 38.2274 26.9774 38.14 26.6223 37.9195C26.5695 37.8734 26.5026 37.8467 26.4326 37.8436ZM20.4251 22.2812V15.6219C20.4251 15.4849 20.4251 15.3461 20.4208 15.209C20.407 14.9073 20.326 14.8323 20.0113 14.8168H17.8191C17.7502 14.8175 17.6813 14.823 17.6131 14.8332C17.5578 14.8398 17.5061 14.8641 17.4657 14.9025C17.4253 14.9408 17.3984 14.9912 17.389 15.0461C17.3766 15.1138 17.3694 15.1824 17.3674 15.2513C17.3674 15.403 17.3674 15.5547 17.3674 15.7064V28.7344C17.3674 28.8724 17.3674 29.0103 17.3674 29.1482C17.3674 29.2172 17.3623 29.2862 17.3597 29.3551C17.3581 29.4383 17.335 29.5196 17.2925 29.5911C17.25 29.6625 17.1897 29.7218 17.1174 29.7629C17.0355 29.8146 16.9519 29.8629 16.8674 29.9086C16.783 29.9542 16.6674 30.0034 16.5743 30.0611C16.4575 30.1343 16.3284 30.1857 16.1933 30.2129C16.099 30.2316 16.0078 30.2638 15.9226 30.3085C15.6089 30.4809 15.3011 30.6646 14.9865 30.8352C14.8271 30.9173 14.6859 31.0304 14.571 31.168C14.5101 31.2429 14.4366 31.3065 14.3537 31.3559C14.2097 31.4399 14.0888 31.5584 14.002 31.7007C13.9037 31.8504 13.783 31.9841 13.6443 32.0973C13.5397 32.1868 13.4481 32.2904 13.3719 32.405C13.265 32.5645 13.1779 32.7378 13.0822 32.9059C12.9865 33.074 12.884 33.2679 12.7719 33.4412C12.6689 33.605 12.5862 33.7807 12.5253 33.9645C12.324 34.5525 12.2023 35.1648 12.1633 35.7851C12.1108 36.3489 12.1375 36.9174 12.2426 37.4738C12.3243 37.9073 12.444 38.3328 12.6003 38.7453C12.7503 39.1177 12.9452 39.4651 13.1262 39.822C13.2986 40.1599 13.5503 40.4315 13.7813 40.7229C13.8262 40.775 13.8785 40.8203 13.9365 40.8573C14.0944 40.9692 14.2315 41.1078 14.3417 41.2668C14.4595 41.439 14.6297 41.5687 14.827 41.6366C14.9059 41.6616 14.9787 41.7027 15.0408 41.7573C15.2037 41.9099 15.4046 42.0064 15.5787 42.1383C15.8572 42.3424 16.1775 42.482 16.5166 42.5469C16.6246 42.568 16.7293 42.6037 16.8278 42.653C16.9995 42.7426 17.191 42.7876 17.3847 42.784C17.5788 42.7774 17.7712 42.8232 17.9415 42.9167C18.0877 42.9965 18.2527 43.0352 18.4191 43.0288H19.1639C19.3022 43.0351 19.4397 43.0054 19.563 42.9426C19.7563 42.8335 19.9757 42.7795 20.1975 42.7866C20.3783 42.792 20.5572 42.7479 20.7147 42.659C20.8352 42.5903 20.9701 42.5507 21.1087 42.5435C21.345 42.5278 21.5709 42.4403 21.7561 42.2926C22.0147 42.0883 22.3595 42.0073 22.5638 41.7297C22.6139 41.6821 22.6758 41.6488 22.7431 41.6332C22.8862 41.5801 23.0096 41.4844 23.0965 41.359C23.232 41.1668 23.405 41.004 23.6052 40.8806C23.7225 40.8069 23.8222 40.7083 23.8974 40.5918C24.0732 40.328 24.2442 40.0614 24.4103 39.7918C24.5112 39.6272 24.6034 39.4574 24.6922 39.2867C24.8158 39.0718 24.9244 38.8485 25.0172 38.6186C25.2682 37.9305 25.3966 37.2037 25.3965 36.4713C25.3965 36.3333 25.3965 36.1954 25.3965 36.0575C25.4172 35.342 25.2318 34.6653 25.0068 33.9972C24.8652 33.6083 24.6922 33.2315 24.4896 32.8705C24.4358 32.7593 24.3642 32.6577 24.2775 32.5697C24.1198 32.4152 23.9823 32.2414 23.8681 32.0524C23.7571 31.861 23.607 31.695 23.4276 31.5654C23.3584 31.5194 23.2963 31.4636 23.2431 31.3999C23.0638 31.1826 22.8241 31.0456 22.5923 30.8973C22.4744 30.827 22.3614 30.7487 22.2543 30.6628C22.1403 30.5622 22.0046 30.4894 21.8578 30.4499C21.7785 30.427 21.7019 30.3955 21.6294 30.3559C21.3604 30.2189 21.0975 30.0672 20.8225 29.9404C20.7067 29.8938 20.608 29.8129 20.5394 29.7086C20.4709 29.6043 20.4358 29.4816 20.4389 29.3568C20.4328 29.2051 20.4311 29.0534 20.4311 28.9017L20.4251 22.2812ZM6.84967 31.9292C6.84967 31.6171 6.76863 31.4559 6.55312 31.2904C6.46493 31.2184 6.3615 31.1673 6.25065 31.1412C6.13981 31.1151 6.02448 31.1146 5.9134 31.1397C5.80232 31.1647 5.69841 31.2148 5.60956 31.286C5.5207 31.3573 5.44923 31.4478 5.40058 31.5507C5.36321 31.6245 5.33429 31.7023 5.31437 31.7826C5.2726 31.9514 5.28521 32.129 5.35038 32.2901C5.41555 32.4513 5.52997 32.5877 5.67729 32.68C5.92728 32.8429 6.31692 32.8214 6.52554 32.6231C6.73415 32.4248 6.86604 32.193 6.84967 31.9292ZM8.79271 35.0092C8.73322 35.0144 8.65047 35.0153 8.56944 35.0291C8.43171 35.0453 8.3036 35.1079 8.20616 35.2066C8.10872 35.3053 8.04774 35.4342 8.03325 35.5722C8.01257 35.7076 8.01257 35.8453 8.03325 35.9808C8.05369 36.1244 8.11667 36.2587 8.21408 36.3662C8.31148 36.4737 8.43885 36.5497 8.57978 36.5842C8.70454 36.6251 8.83838 36.6296 8.96559 36.5971C9.09279 36.5645 9.20806 36.4964 9.29786 36.4006C9.3867 36.3142 9.45687 36.2104 9.50402 36.0958C9.55117 35.9812 9.5743 35.8581 9.57199 35.7342C9.5832 35.3239 9.34614 35.0558 8.94011 35.0161C8.90132 35.0127 8.85995 35.0127 8.79271 35.0092Z" fill="#404041"/>
<path d="M17.7966 36.6618H21.5999C21.8341 36.6588 22.0682 36.6743 22.2999 36.7084C22.4501 36.7298 22.6016 36.7405 22.7533 36.7403C23.012 36.7455 23.2766 36.7403 23.5387 36.7403C23.6352 36.7403 23.7318 36.7403 23.8283 36.7403C24.1593 36.7558 24.2593 36.867 24.1973 37.1791C24.1229 37.6286 23.9926 38.067 23.8093 38.4842C23.5733 38.9831 23.2661 39.4451 22.8973 39.8557C22.8468 39.9028 22.8004 39.9542 22.7585 40.0091C22.6059 40.2471 22.3818 40.4083 22.1594 40.5712C21.4205 41.1322 20.5553 41.5037 19.6396 41.653C19.4763 41.6783 19.3117 41.695 19.1466 41.703C18.9957 41.7117 18.844 41.703 18.6923 41.703C17.6518 41.7272 16.7165 41.3884 15.8329 40.8729C15.4674 40.651 15.129 40.3875 14.8243 40.0876C14.5334 39.812 14.2881 39.4919 14.0976 39.1393C14.026 39.0057 13.9528 38.873 13.8743 38.7437C13.5562 38.2086 13.3563 37.6116 13.2881 36.9929L13.283 36.9515C13.2657 36.7558 13.3338 36.6739 13.5416 36.6601C13.6786 36.6515 13.8174 36.6515 13.9545 36.6515H17.8L17.7966 36.6618Z" fill="#404041"/>
</svg>
