<svg width="50" height="44" viewBox="0 0 50 44" fill="none" xmlns="http://www.w3.org/2000/svg">
<path fill-rule="evenodd" clip-rule="evenodd" d="M43.5861 12.7966V26.7821L44.1023 26.6926L45.0789 26.416L46.0053 25.9919L46.8549 25.4545L47.6093 24.8064L48.271 24.0715L48.8136 23.239L49.237 22.3328L49.5414 21.3581L49.6844 20.3176L49.7108 19.7907L49.6844 19.2638L49.5414 18.2338L49.237 17.2618L48.8136 16.3529L48.271 15.5205L47.6093 14.7724L46.8549 14.127L46.0053 13.5869L45.0789 13.176L44.1023 12.8862L43.5861 12.7966Z" fill="#404041"/>
<path d="M11.1152 29.5561C11.0349 29.5569 10.9548 29.5472 10.877 29.5272L10.6123 29.4613L10.5462 29.4429L9.77859 29.1794H9.73889L8.99779 28.916L8.93691 28.8897L8.20904 28.5604L8.15875 28.534L7.23237 28.0467L7.19267 28.0256L6.96769 27.8939C6.74569 27.7656 6.58376 27.555 6.51729 27.3082C6.45083 27.0613 6.48525 26.7984 6.61302 26.5767L7.05239 25.8154L7.21649 25.0594V24.9566L7.14503 24.3692L6.95181 23.8213L6.61567 23.2865L6.19483 22.8492L5.55695 22.4988L4.76291 22.3329H4.65704L4.05886 22.3908L3.23306 22.6543L3.09807 22.7149L2.92074 22.8176C2.80772 22.881 2.68306 22.9212 2.55415 22.9358C2.42523 22.9503 2.29469 22.939 2.17027 22.9024C2.04585 22.8658 1.93009 22.8046 1.82985 22.7227C1.72961 22.6407 1.64694 22.5395 1.58675 22.4251L1.32207 21.9641L1.30619 21.9351L0.948872 21.2238C0.948872 21.1975 0.922404 21.1712 0.911817 21.1448L0.620669 20.4072L0.588907 20.3097L0.377163 19.5458C0.377163 19.5194 0.363929 19.4905 0.358636 19.4641L0.213062 18.6738C0.213062 18.6449 0.213062 18.6185 0.213062 18.5895L0.186594 18.3261C0.163642 18.0939 0.2261 17.8612 0.362383 17.6713C0.498666 17.4814 0.699523 17.3472 0.927697 17.2935L1.12885 17.246L1.74026 16.9826L2.22728 16.6217L2.62165 16.1528L2.88633 15.5943L3.02132 14.9226V14.7356V14.5722L2.87574 13.9268L2.61106 13.3657L2.21404 12.8731L1.72438 12.4569L1.10503 12.1355L0.932991 12.067L0.705366 12.0011C0.582245 11.966 0.467302 11.907 0.367117 11.8276C0.266932 11.7481 0.183473 11.6498 0.121518 11.5382C0.0595624 11.4266 0.0203281 11.304 0.00606099 11.1773C-0.00820617 11.0506 0.002774 10.9224 0.0383728 10.7999L0.361282 9.77252C0.367197 9.75281 0.374268 9.73346 0.382457 9.71457L0.673605 8.95589C0.677749 8.94229 0.683062 8.92907 0.689485 8.91637L1.0071 8.19194C1.01554 8.16986 1.02618 8.14868 1.03886 8.12872L1.52852 7.20671C1.53453 7.19301 1.54161 7.1798 1.5497 7.1672L1.68204 6.94328C1.81098 6.72232 2.02257 6.56116 2.27055 6.49501C2.51854 6.42886 2.78275 6.46312 3.00543 6.59028L3.7783 7.01968L4.53793 7.183H4.63851L5.22081 7.11188L5.77663 6.91957L6.30599 6.59555L6.74271 6.1688L7.08945 5.53129L7.25619 4.741V4.62773L7.21649 4.03501L6.96769 3.24472L6.89888 3.10773L6.79036 2.89699C6.72749 2.78623 6.68727 2.66418 6.67201 2.53788C6.65675 2.41158 6.66676 2.28352 6.70145 2.16109C6.73614 2.03865 6.79483 1.92426 6.87414 1.8245C6.95345 1.72474 7.05181 1.64159 7.16356 1.57984L7.62675 1.31641L7.65586 1.3006L8.3705 0.944971L8.46843 0.908091L9.22277 0.618317C9.25263 0.605036 9.28364 0.594456 9.3154 0.586706L10.083 0.375961L10.165 0.357521L10.9591 0.212634H11.0385L11.3032 0.186291C11.5373 0.162675 11.772 0.224433 11.9638 0.360094C12.1556 0.495755 12.2914 0.696095 12.346 0.923896L12.3936 1.12674L12.6583 1.73263L13.0209 2.21734L13.4921 2.60985L14.0267 2.87855L14.6831 3.01553H15.051L15.7074 2.87065L16.258 2.60722L16.7556 2.21207L17.1764 1.71682L17.502 1.10039L17.5708 0.929165L17.6369 0.699981C17.6725 0.576847 17.7322 0.461967 17.8127 0.362018C17.8933 0.262069 17.9929 0.179043 18.106 0.117767C18.219 0.0564901 18.3432 0.0181842 18.4712 0.00507501C18.5992 -0.00803413 18.7286 0.00431495 18.8518 0.0414046L19.892 0.360155L19.9608 0.38123L20.7019 0.671003L20.7337 0.686809L21.4616 1.00293C21.4848 1.01077 21.507 1.02138 21.5277 1.03454L22.4541 1.52188L22.4938 1.54296L22.7188 1.67467C22.9408 1.80301 23.1027 2.0136 23.1692 2.26041C23.2357 2.50723 23.2012 2.77019 23.0735 2.99182L22.642 3.75841L22.4779 4.53026V4.61982L22.5494 5.19674L22.7426 5.74467L23.0814 6.27153L23.5022 6.70883L24.156 7.05919L24.95 7.22515H25.0639L25.6594 7.18564L26.4534 6.93801L26.5911 6.86952L26.7869 6.75625C26.8978 6.6925 27.0202 6.65113 27.1471 6.63451C27.274 6.61788 27.403 6.62633 27.5267 6.65936C27.6503 6.69239 27.7662 6.74935 27.8677 6.827C27.9692 6.90465 28.0544 7.00145 28.1183 7.11188L28.3829 7.58605L28.4094 7.6361L28.7535 8.34737C28.7535 8.36844 28.772 8.39215 28.7826 8.41322L29.0738 9.15083C29.0824 9.17315 29.0894 9.19604 29.0949 9.21932L29.3331 9.98327C29.3435 10.0135 29.3524 10.0443 29.3596 10.0755L29.5184 10.8658C29.5184 10.9 29.5184 10.9343 29.5184 10.9685L29.5449 11.2319C29.5669 11.4604 29.5066 11.6891 29.3747 11.8773C29.2428 12.0656 29.0479 12.201 28.825 12.2593L28.3671 12.3778L27.7954 12.6624L27.3242 13.0654L26.9616 13.558L26.7366 14.1297L26.6519 14.8198V14.9779L26.7949 15.6233L27.0595 16.1791L27.4486 16.6797L27.9383 17.088L28.5841 17.4199L28.7561 17.4884L28.9864 17.5543C29.1101 17.5896 29.2256 17.6491 29.326 17.7292C29.4264 17.8094 29.5098 17.9086 29.5714 18.0211C29.633 18.1336 29.6714 18.2571 29.6846 18.3846C29.6978 18.512 29.6854 18.6408 29.6481 18.7634L29.3279 19.7987L29.312 19.854L29.0473 20.589L29.0208 20.6522L28.69 21.3766C28.6822 21.3938 28.6734 21.4106 28.6635 21.4267L28.1738 22.3487C28.1678 22.3624 28.1608 22.3756 28.1527 22.3882L28.0203 22.6121C27.8914 22.8331 27.6798 22.9942 27.4318 23.0604C27.1838 23.1265 26.9196 23.0923 26.6969 22.9651L25.9373 22.5357L25.1777 22.3724H25.0744L24.4948 22.4435L23.9443 22.6358L23.4149 22.973L22.9755 23.3919L22.6235 24.0425L22.4568 24.8328V24.9461L22.4965 25.5388L22.7453 26.3291L22.8141 26.4661L22.9279 26.661C22.9933 26.7716 23.0361 26.8939 23.0538 27.0209C23.0716 27.1479 23.0638 27.2772 23.0311 27.4013C22.9629 27.6512 22.7984 27.8642 22.5732 27.994L22.11 28.2574L22.0492 28.289L21.3345 28.6315L21.2631 28.6605L20.5087 28.9503L20.432 28.9766L19.6644 29.2005L19.5532 29.2269L18.7592 29.3586C18.7354 29.3599 18.7115 29.3599 18.6877 29.3586L18.423 29.3849C18.1897 29.4078 17.9559 29.3456 17.7652 29.21C17.5744 29.0743 17.4395 28.8744 17.3855 28.6473L17.3379 28.4445L17.0732 27.8386L16.7106 27.3539L16.2394 26.9614L15.6783 26.6979L15.0034 26.5636H14.8155H14.6487L14.0002 26.7058L13.4418 26.9693L12.9389 27.3565L12.5286 27.8438L12.1925 28.4497L12.1237 28.6183L12.0575 28.8475C12.0001 29.052 11.8768 29.2322 11.7066 29.3602C11.5363 29.4882 11.3286 29.557 11.1152 29.5561ZM10.4032 27.3591L10.5409 27.4039L10.8505 26.8454C10.8829 26.7851 10.922 26.7285 10.967 26.6769L11.5096 26.0314C11.5527 25.9789 11.6016 25.9311 11.6552 25.8892L12.3169 25.3623C12.3695 25.3214 12.4262 25.2861 12.4863 25.257L13.2327 24.9013C13.3034 24.8669 13.378 24.8412 13.455 24.8249L14.302 24.6379C14.3561 24.6268 14.4109 24.6198 14.4661 24.6168H14.7572H14.8419H15.1463C15.1961 24.6191 15.2457 24.6252 15.2945 24.6353L16.168 24.8065C16.2514 24.8233 16.3324 24.8508 16.4088 24.8882L17.2029 25.2701C17.2723 25.3042 17.3372 25.3467 17.3961 25.3966L18.0445 25.9234C18.1032 25.9713 18.1556 26.0261 18.2007 26.0868L18.7036 26.7585C18.7514 26.822 18.7914 26.891 18.8227 26.964L18.9762 27.3328L19.1615 27.3012L19.8338 27.1036L20.514 26.8402L20.8184 26.6953L20.5961 25.9761C20.5731 25.9043 20.5588 25.83 20.5537 25.7548L20.5008 24.9909C20.5008 24.9514 20.5008 24.9119 20.5008 24.8724V24.6089C20.5039 24.5584 20.511 24.5082 20.522 24.4588L20.7337 23.4709C20.7511 23.3786 20.7833 23.2896 20.829 23.2075L21.3186 22.2986C21.3662 22.2087 21.4279 22.1269 21.5013 22.0563L22.1233 21.4636C22.1712 21.4189 22.2235 21.3792 22.2794 21.345L22.9941 20.8972C23.0552 20.8578 23.121 20.8259 23.1899 20.8024L23.9443 20.5389C24.0101 20.5154 24.0785 20.4995 24.1481 20.4915L24.9156 20.3993C24.9711 20.3941 25.0269 20.3941 25.0824 20.3993H25.3471C25.3995 20.4036 25.4516 20.4106 25.5032 20.4204L26.4825 20.6311C26.5753 20.6524 26.6645 20.687 26.7472 20.7339L26.7869 20.7549L26.9219 20.4915L27.2263 19.825L27.5254 19.0532L26.9669 18.7634C26.9063 18.7312 26.8494 18.6923 26.7975 18.6475L26.149 18.1075C26.0962 18.0645 26.0483 18.0159 26.0061 17.9626L25.4768 17.304C25.4356 17.2517 25.4001 17.1951 25.3709 17.1354L25.0003 16.3846C24.9661 16.3139 24.9395 16.2397 24.9209 16.1633L24.7357 15.3204C24.7245 15.2665 24.7175 15.2119 24.7145 15.157V14.8673V14.783C24.7119 14.7453 24.7119 14.7074 24.7145 14.6697L24.8204 13.7872C24.8291 13.7051 24.8487 13.6245 24.8786 13.5475L25.1962 12.7572C25.2273 12.6803 25.2682 12.6077 25.318 12.5412L25.8208 11.8563C25.8647 11.7955 25.9153 11.7398 25.9717 11.6903L26.6202 11.1371C26.6809 11.0863 26.7475 11.0429 26.8187 11.008L27.4777 10.6787L27.4486 10.5338L27.2369 9.84892L26.9722 9.1798L26.8213 8.86105L26.104 9.08233C26.0319 9.10522 25.9573 9.11938 25.8817 9.12448L25.1141 9.17717H24.995H24.7304C24.6797 9.17492 24.6292 9.16876 24.5795 9.15873L23.5869 8.94799C23.4942 8.93068 23.4048 8.89866 23.3223 8.85315L22.4091 8.3658C22.3188 8.31844 22.2366 8.25709 22.1656 8.18404L21.5701 7.56498C21.5252 7.51729 21.4853 7.46522 21.451 7.40955L20.9984 6.69829C20.9606 6.63676 20.9296 6.57142 20.9057 6.50335L20.6411 5.75258C20.6174 5.687 20.6014 5.61894 20.5934 5.54973L20.5008 4.78579C20.4956 4.72971 20.4956 4.67327 20.5008 4.61719L20.5167 4.36693C20.5189 4.31648 20.5251 4.26627 20.5352 4.21678L20.7469 3.22891C20.7685 3.13665 20.8033 3.04794 20.8502 2.96548L20.9084 2.89699L20.6437 2.76264L19.9741 2.4676L19.143 2.15412L18.8518 2.70995C18.8195 2.77031 18.7804 2.82687 18.7354 2.87855L18.1928 3.52395C18.1523 3.5739 18.1061 3.61899 18.0551 3.6583L17.3934 4.18516C17.3347 4.2325 17.2707 4.27315 17.2029 4.30634L16.4485 4.66197C16.3821 4.69382 16.3118 4.71684 16.2394 4.73047L15.3925 4.91487C15.3387 4.92809 15.2837 4.93603 15.2284 4.93858L14.9372 4.95175H14.5878C14.5202 4.95126 14.4529 4.9442 14.3867 4.93067L13.5132 4.74627C13.4342 4.72985 13.3577 4.70329 13.2856 4.66724L12.4916 4.28527C12.4222 4.25122 12.3573 4.20875 12.2983 4.15882L11.6499 3.63196C11.5913 3.58414 11.5388 3.52928 11.4937 3.46863L10.9908 2.79689C10.943 2.73338 10.903 2.66439 10.8717 2.59141L10.7235 2.23315L10.5329 2.26739L9.8527 2.45443L9.18571 2.71786L8.87604 2.87065L9.09837 3.58454C9.12136 3.65634 9.13558 3.73064 9.14072 3.80582L9.19365 4.56977C9.1963 4.60924 9.1963 4.64885 9.19365 4.68832V4.95175C9.19139 5.0022 9.1852 5.0524 9.17512 5.1019L8.96338 6.05815C8.94599 6.15048 8.91382 6.23942 8.86809 6.32159L8.37844 7.23042C8.33268 7.31705 8.27375 7.39613 8.20375 7.46487L7.58175 8.07076C7.52958 8.12285 7.47086 8.16801 7.40706 8.20511L6.69243 8.63977C6.6347 8.67659 6.57242 8.70581 6.50715 8.7267L5.75281 8.99014C5.68693 9.01366 5.61854 9.02957 5.54901 9.03755L4.77879 9.12975C4.72422 9.13507 4.66926 9.13507 4.61469 9.12975H4.35001C4.29748 9.12679 4.24527 9.11975 4.19385 9.10868L3.21453 8.89793C3.12177 8.87664 3.03261 8.84203 2.94985 8.7952L2.91015 8.75832L2.78046 9.00067L2.47872 9.67242L2.1664 10.5022L2.72223 10.792C2.78287 10.8242 2.83969 10.8631 2.89162 10.9079L3.54009 11.4479C3.59027 11.4882 3.63557 11.5342 3.67507 11.5849L4.20443 12.2435C4.25322 12.3036 4.29496 12.369 4.32883 12.4384L4.68615 13.2024C4.71453 13.2669 4.73669 13.3339 4.75232 13.4026L4.9376 14.2324C4.9507 14.2869 4.95868 14.3424 4.96142 14.3984L4.97465 14.6881V14.7724L4.96142 15.0754C4.95933 15.1241 4.95313 15.1726 4.94289 15.2203L4.76291 16.0896C4.74637 16.1736 4.71878 16.2551 4.68086 16.3319L4.29707 17.1222C4.26286 17.1913 4.22019 17.2559 4.17003 17.3145L3.64067 17.9599C3.59262 18.0183 3.5375 18.0705 3.47656 18.1154L2.80163 18.6159C2.73782 18.6635 2.66851 18.7033 2.59518 18.7344L2.23257 18.8846L2.26962 19.0848L2.45225 19.7565L2.71693 20.4072L2.88104 20.7286L3.59038 20.5099C3.65774 20.4896 3.72685 20.4755 3.79683 20.4678L4.5644 20.4019H4.69939H4.96407C5.01469 20.4064 5.06504 20.4134 5.11493 20.423L6.10748 20.6338C6.20024 20.6511 6.28961 20.6831 6.37216 20.7286L7.28531 21.2159C7.37564 21.2633 7.45784 21.3247 7.52881 21.3977L8.12434 22.0168C8.16925 22.0651 8.20998 22.1171 8.2461 22.1722L8.69341 22.8835C8.73303 22.9443 8.76503 23.0098 8.78869 23.0784L9.05337 23.8292C9.07701 23.8947 9.093 23.9628 9.10101 24.032L9.19365 24.796C9.19892 24.8512 9.19892 24.9067 9.19365 24.9619V25.2254C9.19068 25.2776 9.1836 25.3296 9.17248 25.3808L8.96073 26.3555C8.93934 26.4478 8.90456 26.5365 8.85751 26.6189L8.83633 26.6584L9.10101 26.7928L9.77065 27.0957L10.4032 27.3591Z" fill="#404041"/>
<path d="M14.8524 20.6944H14.8207L13.934 20.618L13.8678 20.6048L13.0208 20.4072C12.9935 20.4025 12.9669 20.3945 12.9414 20.3835L12.1474 20.0542L12.0812 20.02L11.3798 19.5669L11.3216 19.5247L10.6864 18.9847C10.6674 18.9685 10.6497 18.9509 10.6334 18.932L10.0908 18.2998C10.0735 18.2805 10.0584 18.2593 10.0458 18.2366L9.60912 17.5253C9.59555 17.5054 9.58402 17.4842 9.57471 17.4621L9.24386 16.6718L9.22004 16.6007L9.0083 15.7577C9.00239 15.7307 8.99797 15.7035 8.99506 15.676L8.92889 14.8067V14.7566L8.94213 14.3088C8.94082 14.2869 8.94082 14.2649 8.94213 14.243L9.0877 13.3868C9.09264 13.3637 9.09882 13.3408 9.10623 13.3183L9.37091 12.5017C9.37901 12.4765 9.38873 12.4519 9.40002 12.4279L9.78381 11.6903C9.79637 11.6674 9.81052 11.6454 9.82616 11.6245L10.3211 10.9659C10.3338 10.948 10.3479 10.9313 10.3635 10.9158L10.9458 10.3231L11.0066 10.2704L11.6948 9.76991L11.7583 9.7304L12.4994 9.34842L12.5735 9.31945L13.394 9.05602L13.4629 9.03758L14.3231 8.89269H14.3892L14.8392 8.87952H14.8683L15.305 8.89269H15.3712L16.2446 9.03758L16.3161 9.05602L17.1234 9.31945L17.1948 9.34842L17.9359 9.7304L17.9995 9.76991L18.6876 10.2704L18.7485 10.3231L19.3202 10.9158C19.3357 10.9313 19.3499 10.948 19.3626 10.9659L19.8655 11.6376C19.8811 11.6586 19.8953 11.6806 19.9078 11.7035L20.2916 12.4411C20.3029 12.465 20.3126 12.4897 20.3207 12.5149L20.5854 13.3315C20.5928 13.354 20.599 13.3768 20.6039 13.4L20.7495 14.2561C20.7508 14.2781 20.7508 14.3001 20.7495 14.322L20.7627 14.7698V14.7988L20.7495 15.2335C20.7508 15.2554 20.7508 15.2774 20.7495 15.2993L20.6039 16.1686C20.599 16.1926 20.5928 16.2164 20.5854 16.2398L20.3207 17.0432C20.3133 17.0669 20.3035 17.0899 20.2916 17.1117L19.9078 17.8625C19.8953 17.8862 19.8811 17.9091 19.8655 17.931L19.3626 18.6027C19.3489 18.6221 19.3329 18.6398 19.3149 18.6554L18.7432 19.2297C18.7266 19.2484 18.708 19.2651 18.6876 19.2797L17.9968 19.7855L17.9333 19.825L17.2028 20.207L17.1366 20.2334L16.3426 20.4968C16.3155 20.5078 16.287 20.5149 16.2579 20.5179L15.3844 20.6496H15.3421L14.9054 20.6759L14.8524 20.6944ZM14.0584 19.6406L14.8736 19.7118L15.2521 19.6907L16.0594 19.5669L16.7925 19.3035L17.4675 18.9821L18.0974 18.5237L18.6268 17.9968L19.0714 17.3857L19.4182 16.706L19.6617 15.9737L19.794 15.1834V14.7935V14.3957L19.6617 13.6055L19.4182 12.8599L19.0714 12.1935L18.6109 11.5797L18.0815 11.0396L17.4675 10.5734L16.7952 10.2256L16.0594 9.98592L15.2653 9.85421H14.8736H14.4739L13.6799 9.98592L12.9309 10.2283L12.2612 10.5734L11.6339 11.0291L11.1046 11.5691L10.6467 12.1829L10.2999 12.8494L10.0564 13.5949L9.92409 14.3852V14.7725L9.98761 15.5759L10.1411 16.332L10.4429 17.0406L10.8505 17.6992L11.3428 18.2734L11.9092 18.7661L12.5603 19.1744L13.267 19.472L14.0584 19.6406Z" fill="#404041"/>
<path fill-rule="evenodd" clip-rule="evenodd" d="M32.9592 28.6552L25.2544 30.7099L23.1793 38.3863L28.8275 44L36.543 41.9426L36.8738 40.6913H30.892L30.5612 40.6807L29.5686 40.4832L28.629 40.0591L27.7979 39.4163L27.1362 38.5838L26.7101 37.6513L26.5248 36.6634L26.5116 36.321L26.5248 35.9917L26.7101 35.0038L27.1362 34.066L27.7979 33.2362L28.629 32.5776L29.5686 32.1588L30.5612 31.9744L30.892 31.9612H36.2942L32.9592 28.6552Z" fill="#404041"/>
<path fill-rule="evenodd" clip-rule="evenodd" d="M36.2941 31.9612H30.892L31.2388 31.9744L31.5696 32.0139L32.5463 32.2773L33.4594 32.7752L34.2429 33.4996L34.8225 34.3689L35.1693 35.3331L35.2857 36.321L35.2751 36.6634L35.0766 37.6513L34.6531 38.5838L34.002 39.4163L33.1577 40.059L32.2313 40.4831L31.2388 40.6807L30.892 40.6913H36.8738L38.6101 34.2636L36.2941 31.9612Z" fill="#404041"/>
<path fill-rule="evenodd" clip-rule="evenodd" d="M41.638 12.7809L40.6349 12.9943L39.682 13.3473L38.7927 13.8241L37.9881 14.4168L37.2867 15.1149L36.6753 15.9052L36.1856 16.7719L35.831 17.7228L35.5901 18.7239L35.5239 19.7776L35.5398 20.3045L35.6986 21.3292L35.9871 22.3039L36.4106 23.2154L36.9691 24.0452L37.6308 24.7959L38.3851 25.4413L39.2294 25.9814L40.1452 26.3871L41.1245 26.6795L41.638 26.7717V12.7809Z" fill="#404041"/>
</svg>
