<svg width="45" height="45" viewBox="0 0 45 45" fill="none" xmlns="http://www.w3.org/2000/svg">
<path d="M36.7435 22.4901C36.7435 30.3167 30.3692 36.7385 22.5951 36.7385C14.6447 36.7385 8.23417 30.3792 8.24917 22.4901C8.25212 20.6161 8.62431 18.7612 9.34447 17.0311C10.0646 15.3011 11.1186 13.7299 12.4463 12.4074C13.7739 11.0849 15.3491 10.0369 17.0819 9.32343C18.8147 8.60995 20.6711 8.24491 22.5451 8.24918C30.3692 8.24918 36.7435 14.6472 36.7435 22.4901ZM21.7452 24.7398V25.3035C21.7452 26.8183 21.7452 28.3332 21.7452 29.848C21.7452 30.273 21.8951 30.5979 22.3151 30.7067C22.735 30.8154 23.0325 30.5954 23.22 30.2217C24.6873 27.2937 26.1538 24.3649 27.6195 21.4352C27.952 20.7665 27.6195 20.2528 26.8583 20.2478C25.8122 20.2391 24.7661 20.2478 23.7199 20.2478H23.2575C23.2575 18.5193 23.2512 16.8645 23.2575 15.2097C23.2575 14.7547 23.1325 14.3897 22.6613 14.2785C22.1901 14.1673 21.9414 14.4435 21.7489 14.8309C20.3166 17.7056 18.8809 20.5803 17.4419 23.455C17.0407 24.2611 17.3544 24.7473 18.2705 24.7486C19.4079 24.7473 20.5465 24.7473 21.7514 24.7473L21.7452 24.7398Z" fill="#404041"/>
<path d="M13.9797 43.2978C14.166 42.8453 14.3409 42.4229 14.5309 41.9542C20.2953 44.1502 25.9746 44.0502 31.5453 41.4255C35.4873 39.5682 38.5445 36.706 40.708 32.9264C45.0275 25.4073 44.0689 16.487 39.6381 10.429C38.9144 10.7577 38.2633 11.0114 37.4996 10.6864C36.6247 10.3115 36.1523 9.82403 35.5498 9.21785C34.9474 8.61166 34.3112 7.98174 33.6938 7.36306C33.1038 6.77062 33.1551 6.5419 33.75 5.93696C33.8475 5.83823 34.3899 5.29329 34.5199 5.1533L32.3952 3.09228L33.5713 2.0824L35.5436 4.09717C35.906 3.73096 36.5297 3.29851 36.6834 3.14853C37.0459 2.79357 37.4509 2.77357 37.8083 3.12478C38.5895 3.88969 39.2582 4.52087 39.9906 5.33078C41.038 6.4994 41.9179 7.62428 41.1179 8.98287C41.0305 9.12911 40.933 9.27034 40.828 9.43282C44.2113 14.3073 45.5774 19.6954 44.7775 25.5848C44.1176 30.4167 42.0603 34.6212 38.667 38.1209C31.8602 45.1588 21.8489 46.5974 13.9797 43.2978Z" fill="#404041"/>
<path d="M31.0178 1.68868C30.8316 2.14113 30.6566 2.56358 30.4666 3.03353C24.7035 0.837527 19.0229 0.936266 13.4523 3.56097C9.51021 5.41826 6.4593 8.28169 4.28955 12.06C-0.0299701 19.5792 0.928673 28.4969 5.35943 34.56C6.08309 34.2325 6.74052 33.9788 7.49794 34.3025C8.37284 34.6775 8.84528 35.1649 9.44772 35.7711C10.0501 36.3773 10.6863 37.0072 11.3038 37.6271C11.8937 38.2183 11.8424 38.4471 11.2475 39.052C11.15 39.1507 10.6076 39.6957 10.4789 39.8357C11.1888 40.5243 11.8824 41.1955 12.6036 41.8967L11.4275 42.9078L9.45397 40.8905C9.09151 41.2555 8.46783 41.6879 8.31409 41.8392C7.95288 42.1929 7.54668 42.2079 7.18922 41.8617C6.40806 41.098 5.73938 40.4668 5.00697 39.6557C3.95708 38.4933 3.07718 37.3622 3.88209 36.0048C3.96958 35.8573 4.06707 35.7161 4.17206 35.5536C0.788688 30.6792 -0.577409 25.291 0.222502 19.4029C0.883677 14.5697 2.9372 10.374 6.33057 6.86435C13.1373 -0.17236 23.1487 -1.61095 31.0178 1.68868Z" fill="#404041"/>
</svg>
