<svg width="41" height="44" viewBox="0 0 41 44" fill="none" xmlns="http://www.w3.org/2000/svg">
<path d="M28.0849 43.9402H1.04039C0.765442 43.9402 0.50167 43.8314 0.306721 43.6375C0.111772 43.4436 0.00149836 43.1804 0 42.9055L0 0H2.08362V41.8651H27.0445V0H29.1281V42.9055C29.1266 43.1809 29.016 43.4445 28.8204 43.6385C28.6248 43.8325 28.3603 43.941 28.0849 43.9402Z" fill="#404041"/>
<path d="M31.9261 21.1509H29.0062V22.1913H31.9261V21.1509Z" fill="#404041"/>
<path d="M31.9261 36.5582H29.0062V37.5986H31.9261V36.5582Z" fill="#404041"/>
<path d="M31.9261 28.8617H29.0062V29.9021H31.9261V28.8617Z" fill="#404041"/>
<path d="M31.9261 13.4401H29.0062V14.4805H31.9261V13.4401Z" fill="#404041"/>
<path d="M31.9261 5.72925H29.0062V6.76964H31.9261V5.72925Z" fill="#404041"/>
<path d="M25.1931 29.7235H3.96008V39.929H25.1931V29.7235Z" fill="#404041"/>
<path d="M11.0558 30.9142H11.0331H10.5229H10.4605L9.58169 30.8291L9.47397 30.8093L8.43925 30.5683C8.40253 30.5609 8.3665 30.5505 8.33152 30.5371L7.19758 30.0864L6.67313 29.8539L5.87654 29.5704L4.84749 29.3918L3.9375 29.3522L4.00837 27.7079L4.97222 27.7505H5.07711L6.22523 27.9489C6.26942 27.9572 6.313 27.9686 6.35563 27.9829L7.24861 28.2948L7.31381 28.3203L8.10473 28.669L8.87865 28.9524L9.80281 29.1679L10.5994 29.2444H11.0586H11.5037L12.3003 29.1679L13.2273 28.9524L14.2535 28.5499L14.5058 28.4308L14.5654 28.4053L15.4158 28.0793C15.4515 28.0646 15.4886 28.0532 15.5264 28.0453L16.5753 27.8043L16.6773 27.7873L17.542 27.7023H17.576H18.0862H18.1429H18.639H18.7099L19.5887 27.7873L19.6964 27.8072L20.7312 28.0481C20.767 28.0555 20.802 28.0659 20.8361 28.0793L21.6865 28.4053L21.7404 28.428L22.4831 28.7597L23.3024 29.0432L24.3286 29.2246L24.7226 29.2473H25.2159L25.1705 30.8915L24.6631 30.9H24.6348L24.1812 30.8716H24.0933L22.9594 30.6732C22.9161 30.6649 22.8735 30.6535 22.8318 30.6392L21.9246 30.3273L21.8736 30.3075L21.5901 30.1941L21.0685 29.956L20.2804 29.6725L19.3506 29.457L18.554 29.3805H18.1089H17.6525L16.8673 29.457L15.9261 29.6725L15.1607 29.956L14.9197 30.0694H14.8857L14.6164 30.1828L13.7404 30.5201C13.7054 30.5335 13.6694 30.5439 13.6327 30.5513L12.598 30.7923L12.4903 30.8121L11.6228 30.9H11.5689H11.0728L11.0558 30.9142Z" fill="#404041"/>
<path fill-rule="evenodd" clip-rule="evenodd" d="M3.96008 27.7533V33.7915H25.196V30.7724H10.0579L3.96008 27.7533Z" fill="#404041"/>
<path fill-rule="evenodd" clip-rule="evenodd" d="M17.7122 27.7533L14.2679 29.6243L10.0581 30.7724H25.1962V30.3897L22.4889 30.0354L17.7122 27.7533Z" fill="#404041"/>
<path fill-rule="evenodd" clip-rule="evenodd" d="M40.2634 26.3643L35.0472 29.3834L40.2634 32.3883V26.3643Z" fill="#404041"/>
</svg>
