<svg width="21" height="44" viewBox="0 0 21 44" fill="none" xmlns="http://www.w3.org/2000/svg">
<path d="M10.2709 43.9949H10.2287L9.46059 43.9578H9.39864L8.65527 43.8711L8.57846 43.8587L7.84748 43.71C7.81054 43.7024 7.77413 43.6925 7.73845 43.6803L6.33844 43.2095C6.29445 43.1938 6.25143 43.1756 6.20959 43.1549L4.92109 42.4859C4.88166 42.4643 4.84359 42.4403 4.80711 42.414L3.6425 41.5716C3.60284 41.5442 3.56628 41.5127 3.53347 41.4774L2.51754 40.4615C2.48372 40.4298 2.45302 40.3949 2.42585 40.3574L1.57098 39.1928C1.54334 39.155 1.5185 39.1153 1.49665 39.0739L0.827615 37.7853C0.805041 37.7415 0.785984 37.6959 0.770624 37.6491L0.312214 36.2491C0.302762 36.2207 0.295311 36.1917 0.289913 36.1623L0.12885 35.419C0.12885 35.3892 0.116461 35.3595 0.111505 35.3273L0.0247789 34.5839C0.0247789 34.5591 0.0247789 34.5344 0.0247789 34.5096L0 33.7414V33.6869L0.0123895 33.117C0.00993159 33.0857 0.00993159 33.0542 0.0123895 33.0228L0.148673 31.9202C0.152272 31.8884 0.158068 31.857 0.166019 31.826L0.413808 30.7605C0.420768 30.7232 0.431563 30.6866 0.44602 30.6515L0.817704 29.6603C0.829646 29.6273 0.843716 29.595 0.859828 29.5637L1.35541 28.6097C1.37088 28.5789 1.38826 28.5491 1.40744 28.5205L1.97736 27.6285L2.03683 27.5467L2.71825 26.729L2.78515 26.6571L3.54091 25.9262C3.56556 25.9018 3.59207 25.8795 3.6202 25.8593L4.46268 25.215C4.49085 25.1929 4.52067 25.1731 4.55188 25.1555L5.4687 24.6104L5.50587 24.5881V4.72781L5.51826 4.41808C5.52105 4.3689 5.52767 4.32002 5.53808 4.27188L5.72393 3.36745C5.73704 3.30005 5.75782 3.23437 5.78587 3.1717L6.15756 2.354C6.18945 2.28511 6.22938 2.22024 6.2765 2.16072L6.8365 1.47434C6.87831 1.42385 6.92477 1.3774 6.97526 1.33558L7.6765 0.770624C7.73305 0.725725 7.79458 0.687479 7.85987 0.656641L8.66766 0.272568C8.73315 0.241773 8.80225 0.219297 8.87333 0.205665L9.77775 0.0198231C9.82654 0.00836562 9.87634 0.00172607 9.92643 0H10.2362H10.308L10.6301 0.0123895C10.6794 0.0139463 10.7284 0.0205892 10.7763 0.0322126L11.6808 0.218054C11.7519 0.231687 11.8209 0.254162 11.8864 0.284957L12.7041 0.66903C12.7694 0.699868 12.831 0.738114 12.8875 0.783013L13.5813 1.34054C13.6341 1.38417 13.6823 1.43317 13.725 1.48673L14.2702 2.18054C14.3134 2.23461 14.35 2.29368 14.3792 2.35647L14.7633 3.17418C14.7941 3.23967 14.8165 3.30876 14.8302 3.37984L15.016 4.28427C15.0264 4.33241 15.0331 4.38129 15.0358 4.43047V4.7402V24.5881L15.073 24.6104L15.9898 25.1555C16.0227 25.1739 16.0542 25.1946 16.084 25.2175L16.9141 25.8617L16.9835 25.9212L17.7516 26.6646C17.7764 26.6894 17.8012 26.7141 17.8235 26.7414L18.5049 27.5591C18.5261 27.5853 18.5459 27.6126 18.5644 27.6409L19.1467 28.5205C19.1658 28.5491 19.1832 28.5789 19.1987 28.6097L19.6943 29.5637C19.7104 29.595 19.7245 29.6273 19.7364 29.6603L20.1081 30.6515C20.1214 30.687 20.1322 30.7235 20.1403 30.7605L20.3881 31.826C20.396 31.857 20.4018 31.8884 20.4054 31.9202L20.5417 33.0228C20.5441 33.0534 20.5441 33.084 20.5417 33.1145V33.6844V33.734L20.5169 34.5021V34.5913L20.4178 35.3347C20.4178 35.357 20.4178 35.3768 20.4178 35.3991L20.2691 36.1301C20.2691 36.1648 20.2518 36.197 20.2419 36.2317L19.786 37.6515C19.7706 37.6984 19.7515 37.744 19.729 37.7878L19.0599 39.0763C19.0381 39.1177 19.0132 39.1575 18.9856 39.1953L18.1307 40.3599C18.1036 40.3974 18.0729 40.4323 18.039 40.464L17.0231 41.4799C16.9903 41.5151 16.9537 41.5467 16.9141 41.574L15.7495 42.4165C15.713 42.4428 15.6749 42.4668 15.6355 42.4884L14.347 43.1574C14.3051 43.1781 14.2621 43.1963 14.2181 43.2119L12.8181 43.6827C12.7824 43.6949 12.746 43.7049 12.7091 43.7125L11.9657 43.8611L11.8889 43.8735L11.1456 43.9603H11.0836L10.3031 43.9974L10.2709 43.9949ZM9.57952 42.139L10.2733 42.1737L10.9771 42.139L11.6535 42.0597L12.2903 41.9309L13.5689 41.4997L14.736 40.8951L15.7866 40.1294L16.7035 39.2126L17.4741 38.162L18.0836 37.0073L18.5024 35.7262L18.6337 35.0795L18.7229 34.4006L18.7452 33.7018L18.7329 33.2062L18.604 32.2002L18.381 31.2363L18.0465 30.3368L17.6104 29.4745L17.0925 28.6741L16.478 27.9308L15.7817 27.2692L15.0383 26.6869L14.2033 26.1913L13.7523 25.9732C13.5991 25.8978 13.4701 25.781 13.3799 25.6361C13.2897 25.4911 13.2419 25.3238 13.2418 25.1531V4.78233V4.56427L13.0932 3.83825L12.776 3.20887L12.3572 2.6786L11.8294 2.25736L11.21 1.96992L10.484 1.82125H10.2733H10.0726L9.3466 1.96992L8.72465 2.25736L8.19438 2.68603L7.77066 3.20887L7.48818 3.82834L7.33703 4.55932V4.77737V25.1506C7.33707 25.3216 7.289 25.4893 7.1983 25.6343C7.1076 25.7793 6.97793 25.8959 6.82411 25.9708L6.37561 26.1888L5.53808 26.6844L4.77985 27.2642L4.09595 27.9258L3.47896 28.6692L2.94621 29.4745L2.5101 30.3343L2.17559 31.2289L1.95258 32.2002L1.82621 33.1913V33.6869L1.84851 34.3931L1.92532 35.0646L2.06656 35.7064L2.47293 37.0073L3.07754 38.1669L3.84816 39.2176L4.76498 40.1344L5.81561 40.8951L6.98269 41.4997L8.26129 41.9309L8.90058 42.0597L9.57952 42.139Z" fill="#404041"/>
<path d="M11.1828 12.781H9.36157V29.643H11.1828V12.781Z" fill="#404041"/>
<path d="M17.8805 18.8419H15.3282V19.7513H17.8805V18.8419Z" fill="#404041"/>
<path d="M17.8805 12.3251H15.3282V13.2345H17.8805V12.3251Z" fill="#404041"/>
<path d="M17.8805 5.80823H15.3282V6.71761H17.8805V5.80823Z" fill="#404041"/>
<path fill-rule="evenodd" clip-rule="evenodd" d="M10.2733 27.3485L9.24498 27.4228L8.26621 27.6706L7.36178 28.0572L6.51682 28.5775L5.78832 29.2069L5.14159 29.9503L4.62372 30.7829L4.23964 31.6972L4.00424 32.6785L3.91504 33.7043L3.9423 34.2271L4.10088 35.2282L4.42548 36.1822L4.8715 37.0495L5.45133 37.8449L6.13275 38.5362L6.92815 39.1086L7.80533 39.5645L8.7494 39.8742L9.75295 40.0502L10.2733 40.0601L10.8061 40.0502L11.8071 39.8742L12.7512 39.5645L13.6284 39.1086L14.4089 38.5362L15.1052 37.8449L15.6875 37.0495L16.1335 36.1822L16.4532 35.2282L16.6167 34.2271L16.639 33.7043L16.6167 33.1839L16.4532 32.1829L16.1335 31.2289L15.6875 30.3616L15.1052 29.5687L14.4089 28.8749L13.6284 28.305L12.7512 27.8441L11.8071 27.5344L10.8061 27.3609L10.2733 27.3485Z" fill="#404041"/>
</svg>
