<svg width="50" height="44" fill="none" xmlns="http://www.w3.org/2000/svg"><path fill-rule="evenodd" clip-rule="evenodd" d="M43.586 12.797v13.985l.516-.09.977-.276.926-.424.85-.538.754-.648.662-.735.543-.832.423-.906.304-.975.143-1.04.027-.527-.027-.527-.143-1.03-.304-.972-.423-.91-.543-.832-.662-.748-.754-.645-.85-.54-.926-.411-.977-.29-.516-.09z" fill="#404041"/><path d="M11.115 29.556a.92.92 0 01-.238-.029l-.265-.066-.066-.018-.767-.264h-.04l-.741-.263-.061-.026-.728-.33-.05-.026-.927-.487-.04-.021-.224-.132a.967.967 0 01-.355-1.317l.44-.762.163-.756v-.102l-.071-.588-.193-.548-.336-.535-.421-.437-.638-.35-.794-.166h-.106l-.598.058-.826.263-.135.06-.177.104a.973.973 0 01-1.334-.393l-.265-.46-.016-.03-.357-.711c0-.026-.027-.053-.037-.08l-.291-.737-.032-.097-.212-.764c0-.027-.013-.055-.018-.082l-.146-.79v-.084l-.026-.264a.96.96 0 01.74-1.032l.202-.048.611-.263.487-.361.395-.47.264-.558.135-.671v-.351l-.145-.645-.265-.561-.397-.493-.49-.416-.619-.322-.172-.068-.228-.066a.975.975 0 01-.699-.824.965.965 0 01.032-.377l.323-1.027a.525.525 0 01.021-.058l.292-.76a.247.247 0 01.015-.039l.318-.724a.353.353 0 01.032-.063l.49-.922a.285.285 0 01.02-.04l.133-.224a.97.97 0 011.323-.353l.773.43.76.163h.1l.583-.071.556-.192.529-.324.437-.427.346-.638.167-.79v-.113l-.04-.593-.248-.79-.07-.137-.108-.211a.96.96 0 01.374-1.317l.463-.264.029-.015.715-.356.097-.037.755-.29a.547.547 0 01.092-.031l.768-.211.082-.018.794-.145h.08l.264-.027a.975.975 0 011.043.738l.048.203.264.606.363.484.471.393.535.269.656.137h.368l.656-.145.551-.264.498-.395.42-.495.326-.617.069-.17.066-.23a.967.967 0 01.834-.695.976.976 0 01.38.036l1.041.32.069.02.74.29.033.016.728.316a.306.306 0 01.066.032l.926.487.04.021.225.132a.968.968 0 01.354 1.317l-.431.766-.164.772v.09l.071.577.194.548.338.527.421.437.654.35.794.166h.114l.595-.04.794-.247.138-.068.196-.114a.978.978 0 011.331.356l.265.474.026.05.345.711c0 .021.018.045.029.066l.29.738a.528.528 0 01.022.068l.238.764c.01.03.02.061.027.092l.158.79v.104l.027.263a.963.963 0 01-.72 1.027l-.458.119-.572.284-.47.403-.363.493-.225.572-.085.69v.158l.143.645.264.556.39.5.49.409.645.332.172.068.23.066a.973.973 0 01.699.83.961.961 0 01-.037.38l-.32 1.035-.016.055-.265.735-.026.063-.331.725a.452.452 0 01-.027.05l-.49.922a.282.282 0 01-.02.04l-.133.223a.97.97 0 01-1.323.353l-.76-.43-.76-.163h-.103l-.58.072-.55.192-.53.337-.439.419-.352.65-.166.79v.114l.04.593.248.79.07.137.113.195a.97.97 0 01.103.74.983.983 0 01-.458.593l-.463.263-.06.032-.716.342-.07.03-.755.29-.077.026-.768.224-.11.026-.795.132a.656.656 0 01-.071 0l-.265.026a.972.972 0 01-1.037-.738l-.048-.202-.265-.606-.362-.485-.472-.393-.56-.263-.676-.134h-.354l-.649.142-.558.263-.503.387-.41.488-.336.606-.07.168-.066.23a.97.97 0 01-.942.708zm-.712-2.197l.138.045.31-.559a.916.916 0 01.116-.168l.543-.646a.928.928 0 01.145-.142l.662-.527a.951.951 0 01.17-.105l.746-.356a.965.965 0 01.222-.076l.847-.187c.054-.011.109-.018.164-.021h.68c.05.002.1.008.148.018l.874.171a.995.995 0 01.24.082l.795.382a.94.94 0 01.193.127l.648.526a.916.916 0 01.157.164l.503.672a.991.991 0 01.119.205l.153.369.186-.032.672-.197.68-.264.304-.145-.222-.719a.932.932 0 01-.042-.221l-.053-.764v-.382c.003-.05.01-.1.021-.15l.212-.988a.875.875 0 01.095-.264l.49-.908a.959.959 0 01.182-.243l.622-.592a.973.973 0 01.156-.119l.715-.448a.894.894 0 01.196-.095l.754-.263a.918.918 0 01.204-.048l.768-.092a.894.894 0 01.166 0h.265c.052.005.105.012.156.021l.98.211a.982.982 0 01.264.103l.04.02.135-.263.304-.666.3-.772-.56-.29a.92.92 0 01-.169-.116l-.648-.54a.937.937 0 01-.143-.144l-.53-.659a.94.94 0 01-.105-.169l-.37-.75a1.113 1.113 0 01-.08-.222l-.185-.843a1.097 1.097 0 01-.021-.163v-.374a.824.824 0 010-.113l.105-.883a.934.934 0 01.059-.24l.317-.79a.962.962 0 01.122-.216l.503-.685a.999.999 0 01.15-.166l.65-.553a.984.984 0 01.198-.129l.659-.33-.03-.144-.211-.685-.265-.67-.15-.318-.718.221a.945.945 0 01-.222.042l-.768.053h-.384a.984.984 0 01-.15-.018l-.993-.211a.884.884 0 01-.265-.095l-.913-.487a.964.964 0 01-.243-.182l-.596-.619a.966.966 0 01-.119-.155l-.453-.712a1.014 1.014 0 01-.092-.195l-.265-.75a.901.901 0 01-.048-.203l-.092-.764a.913.913 0 010-.169l.016-.25a.96.96 0 01.018-.15l.212-.988a.989.989 0 01.103-.264l.058-.068-.264-.134-.67-.295-.831-.314-.291.556a.912.912 0 01-.117.169l-.542.645a.828.828 0 01-.138.134l-.662.527a1.013 1.013 0 01-.19.121l-.755.356a.845.845 0 01-.209.068l-.847.185a.852.852 0 01-.164.024l-.29.013h-.35c-.068 0-.135-.008-.201-.021l-.874-.185a.934.934 0 01-.227-.079l-.794-.382a.94.94 0 01-.194-.126l-.648-.527a.918.918 0 01-.156-.163l-.503-.672a.992.992 0 01-.12-.206l-.148-.358-.19.034-.68.187-.667.264-.31.153.222.714a.935.935 0 01.043.22l.053.765c.002.04.002.079 0 .118v.264a.97.97 0 01-.019.15l-.212.956a.875.875 0 01-.095.264l-.49.908a.951.951 0 01-.174.235l-.622.606a.857.857 0 01-.175.134l-.715.435a.796.796 0 01-.185.087l-.754.263a.917.917 0 01-.204.048l-.77.092a.846.846 0 01-.164 0H4.35a1.013 1.013 0 01-.156-.021l-.98-.211a.985.985 0 01-.264-.103l-.04-.037-.13.243-.301.671-.313.83.556.29a.92.92 0 01.17.116l.648.54a.83.83 0 01.135.137l.53.658c.048.06.09.126.124.195l.357.764c.029.065.05.132.066.2l.186.83c.013.055.02.11.023.166l.014.29v.084l-.014.303a.868.868 0 01-.018.145l-.18.87a.971.971 0 01-.082.242l-.384.79a.93.93 0 01-.127.192l-.53.646a.916.916 0 01-.163.155l-.675.5a.995.995 0 01-.207.12l-.362.15.037.2.182.671.265.651.164.322.71-.22c.067-.02.136-.034.206-.041l.767-.066h.4c.05.004.101.011.15.021l.993.21c.093.018.183.05.265.096l.913.487c.09.047.173.109.244.182l.595.619c.045.048.086.1.122.155l.447.712c.04.06.072.126.096.194l.264.751c.024.066.04.134.048.203l.093.764a.872.872 0 010 .166v.263a1 1 0 01-.022.156l-.211.974a.975.975 0 01-.103.264l-.022.04.265.134.67.303.632.263z" fill="#404041"/><path d="M14.852 20.694h-.031l-.887-.076-.066-.013-.847-.198a.35.35 0 01-.08-.023l-.794-.33-.066-.034-.701-.453-.058-.042-.636-.54a.488.488 0 01-.053-.053l-.542-.632a.347.347 0 01-.045-.063l-.437-.712a.361.361 0 01-.034-.063l-.331-.79-.024-.071-.212-.843a.751.751 0 01-.013-.082l-.066-.87v-.05l.013-.447a.551.551 0 010-.066l.146-.856a.661.661 0 01.018-.069l.265-.816a.616.616 0 01.029-.074l.384-.738a.556.556 0 01.042-.066l.495-.658a.382.382 0 01.043-.05l.582-.593.06-.053.689-.5.063-.04.741-.382.074-.029.821-.263.069-.018.86-.145h.066l.45-.013h.03l.436.013h.066l.874.145.071.018.807.263.072.03.74.381.065.04.688.5.06.053.572.593a.39.39 0 01.043.05l.503.672c.015.02.03.043.042.066l.384.737a.608.608 0 01.029.074l.264.816a.647.647 0 01.019.069l.146.856a.557.557 0 010 .066l.013.448v.029l-.014.434a.556.556 0 010 .066l-.145.87a.702.702 0 01-.019.07l-.264.804a.379.379 0 01-.03.069l-.383.75a.604.604 0 01-.043.069l-.502.672a.295.295 0 01-.048.052l-.572.575a.334.334 0 01-.055.05l-.691.505-.064.04-.73.382-.066.026-.794.264a.31.31 0 01-.085.02l-.874.133h-.042l-.437.026-.053.018zm-.794-1.053l.816.07.378-.02.807-.124.733-.264.675-.32.63-.46.53-.526.444-.611.347-.68.244-.732.132-.79v-.788l-.132-.79-.244-.746-.347-.666-.46-.614-.53-.54-.613-.467-.673-.347-.736-.24-.794-.132h-.791l-.794.132-.75.242-.669.345-.627.456-.53.54-.457.614-.347.666-.244.746-.132.79v.388l.064.803.153.756.302.709.408.658.492.574.566.493.651.408.707.298.791.169z" fill="#404041"/><path fill-rule="evenodd" clip-rule="evenodd" d="M32.96 28.655l-7.706 2.055-2.075 7.676L28.828 44l7.715-2.057.33-1.252h-5.981l-.33-.01-.993-.198-.94-.424-.831-.643-.662-.832-.426-.933-.185-.988-.013-.342.013-.33.185-.987.426-.938.662-.83.831-.658.94-.42.992-.184.331-.013h5.402l-3.335-3.306z" fill="#404041"/><path fill-rule="evenodd" clip-rule="evenodd" d="M36.294 31.961h-5.402l.347.013.33.04.977.263.913.498.784.725.58.869.346.964.117.988-.01.342-.2.988-.423.933-.651.832-.844.643-.927.424-.992.198-.347.01h5.982l1.736-6.427-2.316-2.303zm5.344-19.181l-1.003.214-.953.353-.89.477-.804.593-.701.698-.612.79-.49.867-.354.95-.24 1.002-.067 1.054.016.527.159 1.024.288.975.424.911.558.83.662.75.754.646.844.54.916.406.98.293.513.092V12.78z" fill="#404041"/></svg>