<svg width="45" height="45" fill="none" xmlns="http://www.w3.org/2000/svg"><path fill-rule="evenodd" clip-rule="evenodd" d="M24.788 22.086h-5.482l2.741 4.736 2.741-4.736zm-10.489-.103h-.94v.064l.103 1.403.335 1.338.528 1.249.708 1.132.875 1.017 1.004.863 1.145.707 1.248.528 1.326.335 1.416.116.708-.026 1.377-.232 1.3-.425.553-.27h-3.938l-.63-.026-1.236-.193-1.146-.386-1.068-.553-.965-.708-.837-.837-.708-.965-.553-1.055-.373-1.159-.206-1.222-.026-.631v-.064z" fill="#404041"/><path fill-rule="evenodd" clip-rule="evenodd" d="M30.734 21.983h-.94v.064l-.025.63-.206 1.223-.386 1.159-.553 1.055-.695.965-.85.837-.952.708-1.069.553-1.158.386-1.223.193-.63.026h3.938l1.184-.733 1.017-.863.875-1.017.708-1.132.528-1.249.322-1.338.115-1.403v-.064z" fill="#404041"/><path fill-rule="evenodd" clip-rule="evenodd" d="M11.352 21.983H9.46v.064l.038 1.03.129 1.003.193.979.283.952.348.927.412.888.489.836.54.811.605.76.656.707.708.657.76.605.798.54.85.477.887.424.914.348.952.27.979.206 1.016.116 1.03.051 1.03-.051 1.003-.116.992-.206.952-.27.914-.348.888-.425.85-.476h-6.63l-.874-.038-.863-.103-.836-.18-.798-.232-.785-.296-.76-.348-.707-.412-.695-.463-.644-.515-.592-.553-.566-.605-.502-.643-.463-.683-.412-.72-.36-.747-.297-.785-.231-.81-.168-.837-.103-.85-.038-.875v-.064z" fill="#404041"/><path fill-rule="evenodd" clip-rule="evenodd" d="M34.634 21.983h-1.892v.064l-.038.875-.103.85-.168.836-.244.811-.296.785-.348.747-.412.72-.463.683-.502.643-.566.605-.605.553-.644.515-.682.463-.72.412-.747.348-.785.296-.81.231-.838.18-.849.104-.875.038h6.628l.798-.54.76-.605.707-.657.657-.707.605-.76.54-.81.476-.837.425-.888.348-.927.27-.952.206-.979.129-1.003.038-1.03v-.064z" fill="#404041"/><path fill-rule="evenodd" clip-rule="evenodd" d="M7.568 21.983H0v.064l.077 1.802.206 1.763.36 1.725.477 1.66.617 1.622.721 1.544.85 1.48.952 1.416 1.055 1.326 1.146 1.235 1.248 1.159 1.326 1.055 1.403.952 1.48.837 1.557.733 1.61.605 1.672.49 1.712.347 1.776.219 1.802.077 1.802-.077 1.763-.22 1.725-.347 1.673-.489 1.609-.605 1.544-.733 1.493-.837 1.403-.952 1.326-1.056 1.248-1.158 1.017-1.094H22.047l-1.184-.051-1.159-.142-1.132-.231-1.094-.322-1.068-.4-1.017-.476-.965-.553-.927-.63-.875-.696-.811-.746-.76-.824-.694-.862-.618-.927-.554-.978-.476-1.017-.412-1.055-.309-1.094-.231-1.133-.142-1.158-.051-1.184v-.064z" fill="#404041"/><path fill-rule="evenodd" clip-rule="evenodd" d="M44.094 21.983h-7.568v.064l-.051 1.184-.142 1.158-.232 1.133-.321 1.094-.4 1.055-.476 1.017-.553.978-.63.927-.683.862-.76.824-.81.746-.875.695-.927.631-.978.553-1.017.477-1.055.399-1.094.322-1.133.231-1.158.142-1.184.051H38.65l1.184-1.467.952-1.416.837-1.48.733-1.544.605-1.622.49-1.66.347-1.725.219-1.763.077-1.802v-.064zM22.214 0h-.58l-.23.013h-.232l-.078 22.137h1.892V.013h-.257L22.47 0h-.257z" fill="#404041"/></svg>