<svg width="33" height="44" fill="none" xmlns="http://www.w3.org/2000/svg"><path d="M23.488 16.108V2.786c0-.165 0-.33-.01-.496a.322.322 0 00-.228-.312c-.053-.019-.104-.04-.156-.055-.34-.099-.502-.369-.633-.664a.543.543 0 01-.037-.202.985.985 0 01.662-.948 1.96 1.96 0 01.568-.104h.331C26.443.002 28.898 0 31.35 0c.289-.001.578.026.862.08.362.07.586.287.717.617a.791.791 0 01-.086.786 1.07 1.07 0 01-.57.456 1.4 1.4 0 00-.154.06.28.28 0 00-.172.22 1.956 1.956 0 00-.02.246v33.47c0 .388-.004.776-.117 1.148-.086.29-.206.57-.313.854a2.306 2.306 0 01-.29.546c-.415.579-.9 1.079-1.557 1.386-.062.03-.124.06-.185.093-.69.376-1.436.47-2.205.41a2.729 2.729 0 01-1.054-.325c-.11-.059-.219-.118-.331-.172a.228.228 0 00-.265.056 1.535 1.535 0 00-.172.232 8.313 8.313 0 01-.847 1.17c-.247.3-.517.573-.786.85-.13.143-.29.258-.467.335a1.13 1.13 0 00-.345.225.67.67 0 01-.198.146c-.239.086-.431.24-.63.387-.092.06-.19.113-.292.155-.086.043-.18.07-.264.117-.156.09-.332.14-.512.146a.827.827 0 00-.43.13.793.793 0 01-.432.116h-2.73c-.265 0-.518-.018-.76-.154a.862.862 0 00-.316-.087 1.338 1.338 0 01-.508-.162.896.896 0 00-.19-.08 1.18 1.18 0 01-.528-.312.716.716 0 00-.359-.195.837.837 0 01-.39-.222 1.13 1.13 0 00-.227-.178c-.25-.13-.44-.329-.637-.522a7.344 7.344 0 01-.846-.961c-.172-.235-.36-.453-.543-.677a.432.432 0 00-.324-.16 8.852 8.852 0 00-.454-.01H3.724a4.518 4.518 0 01-1.138-.194 3.742 3.742 0 01-1.09-.582c-.541-.394-.898-.921-1.163-1.527-.196-.45-.266-.925-.326-1.404a.785.785 0 010-.206c.046-.411.125-.818.237-1.216.193-.603.363-1.215.547-1.822.259-.844.517-1.687.823-2.516.163-.438.287-.892.432-1.337.2-.617.4-1.233.603-1.849.034-.104.086-.201.13-.304.054-.141.109-.283.156-.427.314-.955.627-1.913.939-2.871.22-.448.34-.932.494-1.403.124-.38.249-.76.38-1.138.14-.404.288-.805.431-1.206.236-.677.472-1.354.703-2.033.219-.639.42-1.285.69-1.907.144-.344.214-.715.208-1.088-.008-1.81 0-3.613 0-5.42 0-.11 0-.22-.006-.33a.327.327 0 00-.248-.34 1.896 1.896 0 01-.271-.1.927.927 0 01-.548-.897 1.026 1.026 0 01.364-.719.666.666 0 01.374-.163 3.86 3.86 0 01.372-.018h6.454c.086 0 .165.006.247.005.431-.006.862.42.868.887.005.466-.193.792-.624.971-.319.05-.387.267-.37.545.005.086 0 .165 0 .248v5.668c.003.152.03.303.08.446.203.586.405 1.173.604 1.762.212.642.452 1.273.682 1.908.259.727.492 1.466.74 2.196.128.378.258.755.397 1.131.086.233.172.463.267.69.006.013.047.017.072.019.008 0 .022-.018.026-.03a.691.691 0 00.025-.12c.004-.086.005-.165.005-.248v-7.86c0-.11 0-.22-.012-.33a.355.355 0 00-.158-.281 2.434 2.434 0 00-.38-.242c-.417-.179-.639-.842-.33-1.324a.828.828 0 01.401-.34c.241-.103.5-.158.762-.16a739.7 739.7 0 004.758 0c.277-.005.55.07.786.214.27.165.39.42.418.723a.699.699 0 01-.05.282c-.092.246-.235.47-.42.657a.884.884 0 01-.352.209.298.298 0 00-.2.287c-.007.11-.01.22-.01.33v9.31c-.004.165.006.33.029.494.038.26.055.521.05.784v2.482c0 .137 0 .276.017.412a.353.353 0 00.302.345c.216.046.421.133.603.259.291.157.569.337.83.54.038.032.119-.008.127-.062.01-.054.017-.109.02-.164v-.454l.007-13.284zM7.313 39.143h3.516c.124 0 .248 0 .372-.005.055-.003.11-.01.164-.022a.21.21 0 00.162-.25.52.52 0 00-.027-.12c-.08-.19-.16-.38-.249-.567a.303.303 0 00-.263-.172 6.783 6.783 0 00-.496-.016H3.873c-.15 0-.303 0-.454-.006a.806.806 0 01-.56-.231c-.087-.086-.173-.172-.266-.259a1.214 1.214 0 01-.359-.771 2.434 2.434 0 01.055-.904c.137-.548.305-1.089.502-1.618.04-.103.086-.206.115-.31.18-.594.366-1.186.533-1.784.219-.784.517-1.54.786-2.308.004-.013.01-.025.015-.038a.409.409 0 01.374-.282c.137-.009.275-.011.413-.011h4.798c.11 0 .22.008.33.023a.29.29 0 01.223.166 1.4 1.4 0 01.063.153c.118.332.385.491.698.59a.5.5 0 00.468-.097.755.755 0 00.087-.086c.14-.134.25-.296.325-.474.072-.18.206-.242.396-.22.137.015.275.021.413.02l2.027.022a.874.874 0 00.475-.116c.253-.166.519-.313.795-.437a.234.234 0 00.136-.195c.013-.082.02-.164.021-.247v-.91a1.498 1.498 0 00-.102-.523c-.178-.493-.36-.985-.512-1.486a29.047 29.047 0 00-.557-1.688c-.116-.31-.244-.616-.345-.928-.259-.772-.504-1.548-.755-2.321-.03-.091-.058-.185-.094-.273-.25-.613-.48-1.234-.671-1.868-.076-.25-.182-.492-.259-.743a11.783 11.783 0 00-.458-1.283 3.56 3.56 0 01-.306-1.526c.025-.979.007-1.959.007-2.937V9.769c0-.124 0-.249-.014-.372a.27.27 0 00-.259-.273 3.021 3.021 0 00-.33-.016h-3.18c-.085 0-.165 0-.247.007-.237.017-.327.101-.345.328-.01.137-.009.275-.009.413v5.253c0 .138.007.277-.004.414a2.05 2.05 0 01-.07.447c-.154.486-.31.973-.49 1.448a28.38 28.38 0 00-.518 1.44c-.151.452-.299.913-.46 1.369-.135.39-.283.776-.424 1.165-.07.195-.145.388-.209.585-.195.603-.383 1.207-.582 1.81-.103.314-.21.628-.338.933-.138.33-.246.672-.356 1.014-.259.8-.506 1.604-.787 2.396a61.27 61.27 0 00-.738 2.195c-.144.46-.299.917-.453 1.374-.123.366-.259.728-.38 1.094-.06.184-.109.37-.16.556-.206.73-.41 1.46-.619 2.189a3.268 3.268 0 00-.112 1.064c.016.556.208 1.093.549 1.533.11.14.243.259.365.393.28.288.64.485 1.035.564.203.04.41.056.616.05h3.602zm19.12-1.3a.161.161 0 00-.108.118c-.07.223-.139.447-.206.671a.273.273 0 00.137.352c.134.07.273.131.415.182.37.133.754.15 1.143.146.78-.01 1.457-.259 2.006-.83.087-.086.177-.172.26-.264.36-.387.593-.874.669-1.398.073-.463.11-.931.112-1.4-.004-10.827-.004-21.653 0-32.48v-.537c-.015-.316-.086-.395-.391-.41-.11-.006-.221 0-.331 0h-4.852c-.11 0-.22 0-.331.004a.964.964 0 00-.164.02.241.241 0 00-.198.187 1.012 1.012 0 00-.026.205c-.004.164 0 .33 0 .496v27.266c0 .248-.011.496-.014.744 0 .081.008.163.01.208.15.21.286.384.404.57.134.208.25.43.376.641.042.071.09.138.142.202a.087.087 0 00.072.02c.023-.006.055-.032.057-.052.013-.15.027-.302.027-.452v-5.255c0-.123.008-.247.023-.37a.28.28 0 01.244-.248 2.85 2.85 0 01.37-.023h2.855c.11-.001.22.004.33.015a.302.302 0 01.298.29c.014.15.017.303.017.455v9.059a2.64 2.64 0 01-.211 1.006c-.049.129-.116.25-.198.36-.28.355-.62.63-1.07.738a4.726 4.726 0 01-.487.086 1.765 1.765 0 01-1.19-.246.31.31 0 00-.19-.076zm-6.008-15.562v-6.66c0-.136 0-.275-.004-.412-.014-.302-.095-.377-.41-.392H17.82c-.069 0-.138.006-.206.016a.258.258 0 00-.224.213c-.012.068-.02.136-.022.205v13.897c0 .07-.005.138-.007.207a.48.48 0 01-.243.408 4.3 4.3 0 01-.25.146c-.084.045-.2.094-.293.152a1.142 1.142 0 01-.38.152.992.992 0 00-.271.095c-.314.173-.622.357-.937.527-.159.082-.3.195-.415.333a.823.823 0 01-.217.188 1.005 1.005 0 00-.352.345 1.73 1.73 0 01-.358.396c-.104.09-.196.193-.272.308-.107.16-.194.333-.29.5-.096.169-.198.363-.31.536-.103.164-.186.34-.247.523a6.972 6.972 0 00-.362 1.821 6.068 6.068 0 00.08 1.689c.081.433.201.859.357 1.271.15.373.345.72.526 1.077.173.338.424.61.655.9a.707.707 0 00.155.135c.158.112.296.25.406.41a.97.97 0 00.485.37.597.597 0 01.214.12c.163.153.364.25.538.381.278.204.598.344.938.409.108.021.212.057.31.106.172.09.364.135.558.131.194-.007.386.04.556.133.147.08.312.118.478.112h.745a.8.8 0 00.399-.086c.193-.11.413-.163.635-.156.18.005.36-.04.517-.128a.889.889 0 01.394-.115c.236-.016.462-.104.647-.251.259-.205.604-.286.808-.563a.387.387 0 01.18-.097.745.745 0 00.352-.274c.136-.192.309-.355.51-.478a.948.948 0 00.291-.29c.176-.263.347-.53.513-.8.101-.164.193-.334.282-.504.124-.215.232-.438.325-.668.251-.688.38-1.415.38-2.148v-.413c.02-.716-.165-1.393-.39-2.06a7.65 7.65 0 00-.517-1.127 1.13 1.13 0 00-.212-.301 2.623 2.623 0 01-.41-.518 1.577 1.577 0 00-.44-.487.863.863 0 01-.185-.165c-.18-.217-.419-.354-.65-.503a2.977 2.977 0 01-.339-.234.987.987 0 00-.396-.213 1.131 1.131 0 01-.229-.094c-.269-.137-.532-.289-.806-.416a.613.613 0 01-.384-.583 11.324 11.324 0 01-.008-.455l-.006-6.62zM6.85 31.93c0-.312-.081-.473-.297-.639a.75.75 0 00-1.152.26 1.1 1.1 0 00-.087.233.825.825 0 00.363.897c.25.163.64.141.849-.057.208-.198.34-.43.324-.694zm1.943 3.08c-.06.005-.143.006-.224.02a.61.61 0 00-.536.543c-.02.136-.02.273 0 .409a.727.727 0 00.547.603.69.69 0 00.718-.183.906.906 0 00.274-.667c.011-.41-.226-.678-.632-.718-.039-.003-.08-.003-.147-.007z" fill="#404041"/><path d="M17.797 36.662H21.6c.234-.003.468.012.7.046.15.022.302.032.453.032.259.005.524 0 .786 0h.29c.33.016.43.127.368.44a5.407 5.407 0 01-.388 1.304 5.7 5.7 0 01-.912 1.372 1.23 1.23 0 00-.138.153c-.153.238-.377.4-.6.562a5.678 5.678 0 01-2.52 1.082 4.71 4.71 0 01-.492.05c-.151.009-.303 0-.455 0-1.04.024-1.976-.315-2.86-.83a5.526 5.526 0 01-1.008-.785 3.784 3.784 0 01-.726-.949 8.47 8.47 0 00-.224-.395 4.362 4.362 0 01-.586-1.751l-.005-.041c-.017-.196.05-.278.259-.292.137-.008.275-.008.412-.008H17.8l-.003.01z" fill="#404041"/></svg>