<svg width="46" height="44" fill="none" xmlns="http://www.w3.org/2000/svg"><path d="M3.636 24.775H0v1.06h3.636v-1.06zm0 6.789H0v1.06h3.636v-1.06zm0-13.577H0v1.06h3.636v-1.06zm0-6.791H0v1.06h3.636v-1.06zm9.195 7.323H8.583v19.186h4.248V18.519zm22.992-7.54h-4.248v26.723h4.248V10.979zM20.495 32.096h-4.248v5.606h4.248v-5.606zm7.665-6.789h-4.25v12.398h4.248V25.307zM.965 5.323L4.037 0l3.075 5.323H.965zm39.361 32.48l5.326 3.075-5.326 3.075v-6.15z" fill="#404041"/><path d="M42.253 41.939H2.976V2.662h2.125v37.153h37.152v2.124z" fill="#404041"/><path d="M42.253 41.939H2.976V2.662h2.125v37.153h37.152v2.124z" fill="#404041"/><path d="M42.253 41.939H2.976V2.662h2.125v37.153h37.152v2.124z" fill="#404041"/></svg>