<svg width="41" height="44" fill="none" xmlns="http://www.w3.org/2000/svg"><path d="M28.085 43.94H1.04A1.04 1.04 0 010 42.906V0h2.084v41.865h24.96V0h2.084v42.906a1.04 1.04 0 01-1.043 1.034z" fill="#404041"/><path d="M31.926 21.15h-2.92v1.041h2.92v-1.04zm0 15.408h-2.92v1.04h2.92v-1.04zm0-7.696h-2.92v1.04h2.92v-1.04zm0-15.422h-2.92v1.04h2.92v-1.04zm0-7.71h-2.92v1.04h2.92V5.73zm-6.733 23.994H3.96v10.205h21.233V29.723z" fill="#404041"/><path d="M11.056 30.914h-.596l-.878-.085-.108-.02-1.035-.24a.672.672 0 01-.107-.032l-1.134-.45-.525-.233-.796-.284-1.03-.178-.91-.04.071-1.644.964.043h.105l1.148.198c.044.008.088.02.13.034l.894.312.065.025.79.349.775.283.924.216.796.076h.905l.796-.076.927-.216 1.027-.402.252-.12.06-.025.85-.326a.628.628 0 01.11-.034l1.05-.24.101-.018.865-.085h1.167l.88.085.107.02 1.035.241a.746.746 0 01.105.031l.85.326.054.023.743.332.82.283 1.026.182.394.022h.493l-.046 1.645-.507.008h-.028l-.454-.028h-.088l-1.134-.199a.937.937 0 01-.127-.034l-.907-.312-.051-.02-.284-.113-.521-.238-.789-.284-.93-.215-.796-.076h-.902l-.785.076-.94.215-.766.284-.241.113h-.034l-.27.114-.876.337a.673.673 0 01-.107.031l-1.035.241-.108.02-.867.088h-.55l-.017.014z" fill="#404041"/><path fill-rule="evenodd" clip-rule="evenodd" d="M3.96 27.753v6.038h21.236v-3.019H10.058L3.96 27.753z" fill="#404041"/><path fill-rule="evenodd" clip-rule="evenodd" d="M17.712 27.753l-3.444 1.871-4.21 1.148h15.138v-.382l-2.707-.355-4.777-2.282zm22.551-1.389l-5.216 3.02 5.216 3.004v-6.024z" fill="#404041"/></svg>