<svg width="45" height="45" fill="none" xmlns="http://www.w3.org/2000/svg"><path d="M36.743 22.49c0 7.827-6.374 14.249-14.148 14.249-7.95 0-14.36-6.36-14.346-14.249A14.263 14.263 0 0122.545 8.25c7.824 0 14.198 6.397 14.198 14.24zm-14.998 2.25v5.108c0 .425.15.75.57.859.42.108.717-.112.905-.485 1.467-2.928 2.934-5.857 4.4-8.787.332-.668 0-1.182-.762-1.187-1.046-.009-2.092 0-3.138 0h-.462c0-1.729-.007-3.384 0-5.038 0-.455-.125-.82-.597-.932-.47-.11-.72.165-.912.553a4616.7 4616.7 0 01-4.307 8.624c-.401.806-.088 1.292.828 1.294 1.138-.002 2.277-.002 3.481-.002l-.006-.007z" fill="#404041"/><path d="M13.98 43.298c.186-.453.36-.875.55-1.344 5.765 2.196 11.445 2.096 17.015-.529 3.942-1.857 7-4.719 9.163-8.499 4.32-7.519 3.36-16.439-1.07-22.497-.724.329-1.375.582-2.138.257-.875-.374-1.348-.862-1.95-1.468-.603-.606-1.239-1.236-1.856-1.855-.59-.592-.539-.821.056-1.426.097-.099.64-.644.77-.784l-2.125-2.06 1.176-1.01 1.973 2.014c.362-.366.986-.798 1.14-.948.362-.355.767-.375 1.124-.024.782.765 1.45 1.396 2.183 2.206 1.047 1.168 1.927 2.293 1.127 3.652-.087.146-.185.287-.29.45 3.383 4.874 4.75 10.262 3.95 16.152-.66 4.832-2.718 9.036-6.111 12.536-6.807 7.038-16.818 8.476-24.687 5.177zM31.018 1.689c-.186.452-.361.875-.551 1.345C24.703.838 19.023.936 13.452 3.56 9.51 5.418 6.46 8.281 4.29 12.06-.03 19.58.929 28.497 5.36 34.56c.723-.328 1.38-.581 2.138-.258.875.376 1.347.863 1.95 1.47.602.605 1.238 1.235 1.856 1.855.59.591.538.82-.056 1.425-.098.099-.64.644-.77.784l2.126 2.06-1.176 1.012-1.974-2.017c-.362.364-.986.797-1.14.948-.361.354-.767.369-1.125.023-.78-.764-1.45-1.395-2.182-2.206-1.05-1.163-1.93-2.294-1.125-3.651.088-.148.185-.289.29-.451C.79 30.679-.578 25.29.222 19.403c.662-4.833 2.715-9.029 6.109-12.539C13.137-.172 23.149-1.61 31.018 1.69z" fill="#404041"/></svg>