<svg width="21" height="44" fill="none" xmlns="http://www.w3.org/2000/svg"><path d="M10.27 43.995h-.041l-.768-.037h-.062l-.744-.087-.077-.012-.73-.149a.893.893 0 01-.11-.03l-1.4-.47a1.2 1.2 0 01-.128-.055l-1.289-.67a1.092 1.092 0 01-.114-.071l-1.165-.842a.664.664 0 01-.109-.095l-1.015-1.015a.729.729 0 01-.092-.105l-.855-1.164a.963.963 0 01-.074-.12l-.67-1.288a.931.931 0 01-.056-.136l-.459-1.4a.642.642 0 01-.022-.087l-.161-.743c0-.03-.013-.06-.017-.092l-.087-.743v-.074L0 33.74v-.054l.012-.57a.603.603 0 010-.094L.15 31.92a.692.692 0 01.017-.094l.248-1.066a.553.553 0 01.032-.109l.372-.99a.823.823 0 01.042-.097l.495-.954a.825.825 0 01.052-.09l.57-.892.06-.081.681-.818.067-.072.756-.73a.659.659 0 01.08-.068l.842-.644a.707.707 0 01.089-.06l.917-.545.037-.022V4.728l.012-.31a.945.945 0 01.02-.146l.186-.905a.9.9 0 01.062-.195l.372-.818a.963.963 0 01.119-.193l.56-.687a1 1 0 01.138-.138L7.677.77A.942.942 0 017.86.657l.808-.384a.867.867 0 01.205-.067L9.778.02A.766.766 0 019.926 0h.382l.322.012a.79.79 0 01.146.02l.905.186c.07.014.14.036.205.067l.818.384a.94.94 0 01.183.114l.694.558a.992.992 0 01.144.146l.545.694c.043.054.08.113.11.175l.383.818a.87.87 0 01.067.206l.186.904c.01.048.017.097.02.146v20.158l.037.022.917.546a.727.727 0 01.094.062l.83.644.07.06.768.743c.024.024.05.05.072.076l.68.818a.998.998 0 01.06.082l.583.88a.864.864 0 01.052.089l.495.954a.82.82 0 01.042.096l.372.991a.797.797 0 01.032.11l.248 1.065a.7.7 0 01.017.094l.137 1.103a.585.585 0 010 .091v.62l-.025.768v.09l-.1.743v.064l-.148.731c0 .035-.017.067-.027.102l-.456 1.42a.94.94 0 01-.057.136l-.67 1.288a.962.962 0 01-.073.12l-.855 1.164a.72.72 0 01-.092.104l-1.016 1.016a.665.665 0 01-.109.094l-1.165.843a.947.947 0 01-.114.071l-1.288.67c-.042.02-.085.038-.129.054l-1.4.47a.896.896 0 01-.109.03l-.743.15-.077.011-.743.087h-.062l-.78.037-.033-.002zm-.69-1.856l.693.035.704-.035.676-.08.637-.128 1.279-.431 1.167-.605 1.05-.766.917-.916.771-1.051.61-1.155.418-1.28.132-.647.089-.68.022-.698-.012-.496-.129-1.006-.223-.964-.334-.9-.437-.861-.517-.8-.615-.744-.696-.662-.744-.582-.835-.496-.45-.218a.914.914 0 01-.511-.82V4.564l-.149-.726-.317-.63-.419-.53-.528-.42-.619-.288-.726-.149h-.411l-.726.149-.622.287-.53.429-.424.523-.283.62-.151.73v20.592a.912.912 0 01-.513.82l-.448.218-.838.495-.758.58-.684.662-.617.743-.533.805-.436.86-.334.895-.223.971-.127.991v.496l.023.706.076.672.142.641.406 1.301.605 1.16.77 1.05.917.917 1.05.761 1.168.605 1.278.43.64.13.679.079z" fill="#404041"/><path d="M11.183 12.781H9.362v16.862h1.82V12.781zm6.697 6.061h-2.552v.91h2.553v-.91zm0-6.517h-2.552v.91h2.553v-.91zm0-6.517h-2.552v.91h2.553v-.91z" fill="#404041"/><path fill-rule="evenodd" clip-rule="evenodd" d="M10.273 27.349l-1.028.074-.979.248-.904.386-.845.52-.729.63-.646.743-.518.833-.384.914-.236.982-.089 1.025.027.523.159 1.001.324.954.447.867.58.796.68.691.796.573.877.456.944.31 1.004.175.52.01.533-.01 1.001-.176.944-.31.877-.455.78-.573.697-.691.582-.795.447-.868.32-.954.163-1 .022-.524-.022-.52-.164-1.001-.32-.954-.445-.867-.583-.793-.696-.694-.78-.57-.878-.46-.944-.31-1-.174-.534-.012z" fill="#404041"/></svg>