<svg width="20" height="20" viewBox="0 0 20 20" fill="none" xmlns="http://www.w3.org/2000/svg">
<path d="M9.01952 0C13.9929 0 18.0391 4.04617 18.0391 9.01953C18.0391 10.782 17.5305 12.4277 16.653 13.8185L19.4129 16.5784C20.1957 17.3612 20.1957 18.6302 19.4129 19.4129C18.6301 20.1957 17.3611 20.1957 16.5784 19.4129L13.8185 16.653C12.4276 17.5305 10.7819 18.0391 9.01952 18.0391C4.04616 18.0391 -9.53674e-06 13.9929 -9.53674e-06 9.01953C-9.53674e-06 4.04617 4.04608 0 9.01952 0ZM9.01952 16.0347C12.8877 16.0347 16.0347 12.8877 16.0347 9.01953C16.0347 5.15137 12.8877 2.00434 9.01952 2.00434C5.15132 2.00434 2.00433 5.15137 2.00433 9.01953C2.00433 12.8877 5.15128 16.0347 9.01952 16.0347Z" fill="#C4C4C4"/>
</svg>
