<svg width="54" height="55" viewBox="0 0 54 55" fill="none" xmlns="http://www.w3.org/2000/svg">
<path d="M21.5915 9.53578C14.1916 13.9511 10.6726 20.2946 12.4235 28.8149C13.8493 35.7593 18.3335 40.3617 25.2606 41.9156C33.9263 43.8634 40.3929 40.3642 44.9239 32.851C45.035 32.9341 45.1411 33.0237 45.2416 33.1194C48.0439 35.9103 50.8455 38.7094 53.6462 41.5166C53.8678 41.7383 53.9614 41.891 53.6856 42.1643C51.2231 44.6088 48.7646 47.0614 46.3103 49.5223C46.2217 49.611 46.1207 49.6849 45.9927 49.7957C45.8449 49.6652 45.7021 49.5494 45.574 49.4189C44.3428 48.1876 43.1115 46.9564 41.8802 45.7251C41.8421 45.6683 41.7926 45.62 41.7348 45.5834C41.677 45.5468 41.6122 45.5226 41.5446 45.5124C41.4769 45.5022 41.4079 45.5062 41.3419 45.5242C41.2759 45.5422 41.2143 45.5737 41.1612 45.6168C39.3727 46.6728 37.4445 47.472 35.4333 47.9906C35.3613 47.9958 35.2912 48.016 35.2274 48.0499C35.1637 48.0838 35.1077 48.1306 35.0632 48.1875C35.0186 48.2443 34.9865 48.3098 34.9688 48.3798C34.9511 48.4499 34.9483 48.5228 34.9605 48.594C34.9802 50.3399 34.9605 52.0834 34.9778 53.8293C34.9778 54.2652 34.8719 54.4277 34.404 54.4252C30.9942 54.4072 27.5836 54.4072 24.1722 54.4252C23.7068 54.4252 23.6181 54.2479 23.6206 53.8465C23.6354 52.1228 23.6206 50.4187 23.6354 48.7072C23.6354 48.2738 23.527 48.0768 23.0813 47.9685C21.1015 47.4572 19.2044 46.667 17.447 45.6217C17.3944 45.5777 17.3332 45.5452 17.2674 45.5262C17.2015 45.5073 17.1324 45.5023 17.0645 45.5116C16.9966 45.5208 16.9314 45.5442 16.873 45.5801C16.8146 45.616 16.7644 45.6637 16.7255 45.7202C15.4942 46.9736 14.231 48.2049 12.9997 49.4632C12.7067 49.7637 12.5293 49.8031 12.2141 49.4829C9.81728 47.0565 7.404 44.6432 4.97431 42.2431C4.68127 41.9525 4.62955 41.7728 4.95953 41.4551C6.23266 40.2238 7.47131 38.9433 8.73705 37.6997C8.79276 37.6608 8.83981 37.6108 8.87526 37.5529C8.91071 37.4949 8.93378 37.4303 8.94303 37.363C8.95228 37.2957 8.94751 37.2272 8.92901 37.1618C8.91052 37.0964 8.8787 37.0356 8.83556 36.9831C7.76238 35.1869 6.9514 33.2465 6.4272 31.2208C6.34347 30.8908 6.18095 30.812 5.86328 30.812C4.11981 30.8268 2.37388 30.812 0.630407 30.8268C0.172377 30.8342 0 30.7234 0 30.2284C0.0197002 26.8334 0.0197002 23.4384 0 20.0434C0 19.5755 0.162527 19.4573 0.60332 19.4573C2.34679 19.477 4.09026 19.4573 5.83619 19.4721C6.16617 19.4721 6.34347 19.3884 6.42966 19.0411C6.94799 17.0481 7.7429 15.1375 8.79123 13.365C9.00054 13.0055 8.95376 12.8011 8.6681 12.5228C7.40975 11.2916 6.17849 10.0357 4.9226 8.79948C4.67634 8.55323 4.6394 8.38331 4.9226 8.1149C7.36707 5.68028 9.80907 3.23663 12.2486 0.783947C12.4604 0.569707 12.6131 0.495831 12.8643 0.742084C15.7159 3.61011 18.5691 6.46993 21.424 9.32154C21.485 9.38878 21.5409 9.46038 21.5915 9.53578Z" fill="#404041"/>
<path d="M24.2068 36.5297C25.0663 35.7023 25.8297 34.9832 26.5783 34.2445C27.8062 33.028 29.0285 31.8057 30.245 30.5778C31.4442 29.3711 31.4565 28.0635 30.2671 26.8519C29.1664 25.729 28.0509 24.6209 26.9329 23.5177C26.7064 23.2808 26.434 23.0925 26.1323 22.9644C25.8307 22.8363 25.506 22.7711 25.1783 22.7727C24.8506 22.7743 24.5266 22.8428 24.2262 22.9738C23.9258 23.1049 23.6553 23.2958 23.4312 23.5349C21.6401 25.3227 19.8506 27.1122 18.0628 28.9032C17.9299 29.0337 17.792 29.1495 17.5531 29.3957C17.3881 28.8614 17.2256 28.4107 17.1172 27.9601C15.492 21.1561 19.9861 14.2118 26.8738 12.8796C28.8864 12.4719 30.9698 12.5846 32.9267 13.2071C33.0741 13.2696 33.2379 13.2826 33.3934 13.2439C33.5489 13.2053 33.6875 13.1172 33.7886 12.9928C37.6826 9.09382 41.5841 5.19318 45.493 1.29089C45.7283 1.04176 46.0116 0.842891 46.3259 0.706297C46.6402 0.569702 46.9789 0.498211 47.3216 0.49614C47.6643 0.494069 48.0038 0.56146 48.3197 0.694245C48.6356 0.827031 48.9214 1.02246 49.1597 1.26872C50.2481 2.33746 51.3193 3.42344 52.3979 4.49956C53.7794 5.88104 53.7941 7.23297 52.4274 8.60214C49.2623 11.7739 46.0946 14.9415 42.9245 18.105C42.3237 18.7059 41.7351 19.3191 41.117 19.9002C41.0019 19.9896 40.9228 20.1174 40.8943 20.2604C40.8658 20.4033 40.8898 20.5517 40.9619 20.6784C42.2646 24.1259 42.1291 27.5513 40.4325 30.8068C38.4378 34.6385 35.239 36.9064 30.9345 37.527C28.9012 37.8087 26.8298 37.5776 24.9087 36.8547C24.724 36.7882 24.5491 36.6947 24.2068 36.5297Z" fill="#404041"/>
</svg>
