<svg width="21" height="20" viewBox="0 0 21 20" fill="none" xmlns="http://www.w3.org/2000/svg">
<path d="M17.5959 1.49839C17.5959 0.672102 16.952 0 16.1604 0H4.84009C4.04845 0 3.40454 0.672102 3.40454 1.49839V6.42168H17.5959V1.49839ZM14.6018 5.13734H6.39868C6.05886 5.13734 5.78345 4.84987 5.78345 4.49517C5.78345 4.14048 6.05886 3.853 6.39868 3.853H14.6018C14.9416 3.853 15.217 4.14048 15.217 4.49517C15.217 4.84987 14.9416 5.13734 14.6018 5.13734ZM14.6018 2.56867H6.39868C6.05886 2.56867 5.78345 2.2812 5.78345 1.9265C5.78345 1.57181 6.05886 1.28434 6.39868 1.28434H14.6018C14.9416 1.28434 15.217 1.57181 15.217 1.9265C15.217 2.2812 14.9416 2.56867 14.6018 2.56867Z" fill="#404041"/>
<path d="M19.5645 7.70605H1.43555C0.643913 7.70605 0 8.37816 0 9.20445V18.4517C0 19.2779 0.643913 19.95 1.43555 19.95H3.4043V14.1705C3.4043 13.8158 3.67971 13.5284 4.01953 13.5284H16.9805C17.3203 13.5284 17.5957 13.8158 17.5957 14.1705V19.95H19.5645C20.3561 19.95 21 19.2779 21 18.4517V9.20445C21 8.37816 20.3561 7.70605 19.5645 7.70605ZM17.7188 11.7731C17.3789 11.7731 17.1035 11.4856 17.1035 11.1309C17.1035 10.7763 17.3789 10.4888 17.7188 10.4888C18.0586 10.4888 18.334 10.7763 18.334 11.1309C18.334 11.4856 18.0586 11.7731 17.7188 11.7731Z" fill="#404041"/>
<path d="M4.63477 14.8127H16.3652V19.9501H4.63477V14.8127Z" fill="#404041"/>
</svg>
