<svg width="19" height="19" viewBox="0 0 19 19" fill="none" xmlns="http://www.w3.org/2000/svg">
<path d="M18.574 15.0156L15.6398 12.081C15.0553 11.4989 14.0875 11.5166 13.4827 12.1216L12.0044 13.5996C11.911 13.5481 11.8143 13.4943 11.7127 13.4373C10.7792 12.92 9.50147 12.2111 8.15697 10.8656C6.80848 9.51728 6.09887 8.23763 5.58003 7.3035C5.52528 7.20454 5.47283 7.10912 5.42103 7.01851L6.41317 6.02784L6.90095 5.53946C7.50669 4.93356 7.52339 3.96597 6.94031 3.38218L4.00606 0.447275C3.42297 -0.1357 2.45468 -0.118014 1.84894 0.487886L1.02197 1.31961L1.04457 1.34204C0.767274 1.69587 0.535559 2.10395 0.363123 2.54402C0.204169 2.96291 0.105205 3.36264 0.059954 3.76319C-0.327495 6.97522 1.14031 9.91078 5.12375 13.8943C10.6301 19.4002 15.0675 18.9843 15.2589 18.964C15.6758 18.9141 16.0754 18.8145 16.4814 18.6568C16.9177 18.4864 17.3255 18.255 17.6791 17.9783L17.6972 17.9944L18.5349 17.174C19.1394 16.5682 19.1568 15.6003 18.574 15.0156Z" fill="#D98337"/>
</svg>
