<svg width="29" height="29" viewBox="0 0 29 29" fill="none" xmlns="http://www.w3.org/2000/svg">
<path fill-rule="evenodd" clip-rule="evenodd" d="M14.7631 28.9998C22.6259 28.9998 29 22.6257 29 14.7628C29 6.89998 22.6259 0.525879 14.7631 0.525879C6.90023 0.525879 0.526123 6.89998 0.526123 14.7628C0.526123 22.6257 6.90023 28.9998 14.7631 28.9998ZM10.7904 9.06756H19.4476C20.425 9.06756 21.1697 9.81226 21.1697 10.7897V19.4469C21.1697 20.4243 20.425 21.169 19.4476 21.169H10.7904C9.81301 21.169 9.06831 20.4243 9.06831 19.4469V10.7897C9.06831 9.81226 9.81301 9.06756 10.7904 9.06756ZM18.7494 15.2579C18.7494 17.1662 17.1204 18.7487 15.119 18.7487C13.1176 18.7487 11.4886 17.1662 11.5351 15.2114C11.5351 14.8855 11.5817 14.5597 11.6748 14.2339H10.6043V19.2141C10.6043 19.4934 10.837 19.6796 11.0697 19.6796H19.1683C19.4476 19.6796 19.6338 19.4469 19.6338 19.2141V14.2805H18.6098C18.7029 14.5597 18.7494 14.9321 18.7494 15.2579ZM12.7918 15.0717C12.7918 16.3284 13.8158 17.3524 15.119 17.3524C16.4222 17.3524 17.4462 16.375 17.4462 15.0717C17.4462 13.815 16.4222 12.7911 15.119 12.7911C13.8158 12.7911 12.7918 13.815 12.7918 15.0717ZM19.0753 12.8842C19.3545 12.8842 19.5872 12.6514 19.5872 12.3722V11.1155C19.5872 10.8362 19.3545 10.6035 19.0753 10.6035H17.772C17.4928 10.6035 17.26 10.8362 17.26 11.1155V12.3722C17.26 12.6514 17.4928 12.8842 17.772 12.8842H19.0753Z" fill="#F3F3F3"/>
</svg>
