<svg width="29" height="41" viewBox="0 0 29 41" fill="none" xmlns="http://www.w3.org/2000/svg">
<path d="M3.80329 2.27148H8.75873V2.57294C8.75873 5.24061 8.75873 7.90829 8.75873 10.576C8.74455 10.6682 8.76616 10.7623 8.81914 10.8391C8.87211 10.9158 8.95244 10.9694 9.04366 10.9889C10.4291 11.4907 11.54 12.3228 12.1594 13.7103C12.4416 14.3814 12.5774 15.105 12.5579 15.8328C12.5579 23.6955 12.5579 31.5581 12.5579 39.4207C12.5631 39.6025 12.5589 39.7844 12.5455 39.9658C12.5392 40.1094 12.5043 40.2503 12.443 40.3803C12.3816 40.5103 12.2949 40.6267 12.1881 40.7228C12.0812 40.8189 11.9562 40.8928 11.8205 40.9401C11.6848 40.9873 11.541 41.0071 11.3975 40.9982H1.21202C0.466636 40.9982 0 40.5377 0 39.7965C0 31.7701 0 23.743 0 15.7152C0 13.4873 1.27189 11.7921 3.5101 10.9951C3.60271 10.9775 3.68485 10.9246 3.73917 10.8475C3.79349 10.7705 3.81575 10.6753 3.80123 10.5822C3.79297 7.931 3.79297 5.28053 3.80123 2.63075L3.80329 2.27148ZM4.92446 11.7797C4.60649 11.8602 4.30503 11.916 4.01803 12.013C2.47772 12.5334 1.10465 13.6483 1.11704 16.0063C1.1542 23.8524 1.13149 31.6985 1.13149 39.5446V39.8502H11.4243C11.4243 39.7573 11.4347 39.6767 11.4347 39.5962C11.4347 31.6606 11.4347 23.7251 11.4347 15.7895C11.4354 15.5169 11.4133 15.2448 11.3686 14.976C11.1435 13.6669 10.3362 12.8059 9.17168 12.2691C8.69059 12.0481 8.17027 11.9139 7.63136 11.726V9.00468H4.92446V11.7797Z" fill="#404041"/>
<path d="M26.7861 11.1684C27.0214 12.2008 27.2548 13.1939 27.4839 14.1974C27.9237 16.128 28.3842 18.0523 28.7971 19.9788C29.1461 21.6099 29.049 23.2204 28.3243 24.7463C27.5665 26.3362 26.2595 27.286 24.6077 27.8042C24.0379 27.9859 23.4391 28.0809 22.8527 28.2172C22.7226 28.244 22.6276 28.2523 22.6276 28.434C22.6276 31.9688 22.6276 35.5037 22.6276 39.0386C22.6276 39.0551 22.6276 39.0696 22.64 39.1088C22.6978 39.1294 22.7639 39.1563 22.832 39.1749C24.4694 39.5878 26.1047 40.0214 27.7441 40.4302C28.0043 40.4942 28.0951 40.6016 28.0063 40.87H15.8036C15.7127 40.5397 15.7189 40.5273 16.0286 40.4468C17.6639 40.0338 19.3013 39.5981 20.9387 39.1852C21.1162 39.1398 21.174 39.0716 21.174 38.8879C21.174 35.4273 21.174 31.9668 21.174 28.5062C21.174 28.2874 21.0956 28.2378 20.8974 28.2089C19.8633 28.082 18.8608 27.7686 17.9385 27.2839C16.1587 26.3135 15.2007 24.7897 14.9116 22.8096C14.7051 21.4489 14.957 20.1254 15.2667 18.8184C15.8428 16.3778 16.392 13.9331 16.9433 11.4864C16.997 11.2469 17.0755 11.1602 17.3398 11.1602C20.3874 11.1725 23.4349 11.1602 26.4825 11.1602L26.7861 11.1684ZM21.9421 12.0604C20.6537 12.0604 19.3674 12.0604 18.079 12.0604C17.889 12.0604 17.8147 12.1079 17.7713 12.304C17.2579 14.5877 16.7355 16.8692 16.2041 19.1487C15.9481 20.2513 15.7065 21.3518 15.8469 22.4998C16.0658 24.2879 16.8649 25.7064 18.4919 26.5468C20.7404 27.7092 23.0344 27.703 25.287 26.5695C25.9013 26.2677 26.4424 25.8355 26.8724 25.303C27.3025 24.7706 27.6112 24.1508 27.7771 23.4868C28.0688 22.4549 28.1021 21.3672 27.8742 20.3194C27.2899 17.6353 26.6787 14.9779 26.0923 12.3061C26.0448 12.0893 25.956 12.0542 25.7619 12.0563C24.4859 12.0645 23.214 12.0604 21.9421 12.0604Z" fill="#404041"/>
<path d="M6.27932 0C6.87397 0 7.46862 0 8.06327 0C8.4659 0 8.80452 0.121821 8.98622 0.503802C9.0746 0.685231 9.11404 0.8866 9.10064 1.08796C9.08724 1.28932 9.02146 1.48369 8.90983 1.65181C8.86906 1.69856 8.819 1.7363 8.76282 1.76261C8.70665 1.78892 8.64561 1.80322 8.58359 1.8046C7.58425 1.81493 6.58697 1.8046 5.58762 1.8046C5.04459 1.8046 4.49949 1.8046 3.95646 1.8046C3.89821 1.80174 3.84119 1.78688 3.78896 1.76094C3.73673 1.735 3.69042 1.69855 3.65294 1.65388C3.53668 1.48162 3.469 1.28121 3.457 1.07374C3.44501 0.866268 3.48916 0.659398 3.5848 0.474896C3.77683 0.107368 4.1299 0 4.52014 0H6.27932Z" fill="#404041"/>
<path d="M10.3962 30.1786V35.9269C10.3962 36.5463 10.1133 36.8374 9.48977 36.8374H3.00022C2.38079 36.8374 2.10205 36.5587 2.10205 35.9496C2.10205 32.1105 2.10205 28.2714 2.10205 24.4323C2.10205 23.8294 2.37873 23.5527 2.97958 23.5527H9.51868C10.1133 23.5527 10.3962 23.8397 10.3962 24.4365V30.1786Z" fill="#404041"/>
<path d="M16.8726 19.2539H17.1369C20.3469 19.2539 23.5583 19.2539 26.7711 19.2539C26.9775 19.2539 27.0766 19.2931 27.1097 19.5182C27.2026 20.1707 27.3905 20.8149 27.4194 21.4694C27.533 24.1887 26.0277 26.0594 23.3291 26.6313C21.9653 26.9321 20.541 26.7873 19.2656 26.2184C17.5767 25.475 16.6929 24.1536 16.4968 22.3325C16.3915 21.2774 16.5856 20.2698 16.8726 19.2539Z" fill="#404041"/>
</svg>
