<svg width="25" height="20" viewBox="0 0 25 20" fill="none" xmlns="http://www.w3.org/2000/svg">
<path d="M11.1008 3.17823L9.05528 0.652923C8.72588 0.248514 8.23454 0 7.71458 0H1.75097C0.791761 0 0 0.803316 0 1.76253V18.2375C0 19.191 0.791761 20 1.75097 20H2.0226V5.83064C2.0226 4.36285 3.24187 3.17823 4.7038 3.17823H11.1008Z" fill="#404041"/>
<path d="M22.2882 4.10278H4.70368C3.75015 4.10278 2.94702 4.87712 2.94702 5.83065V19.9943H22.2882C23.2417 19.9943 24.0392 19.191 24.0392 18.2318V5.83065C24.0392 4.8773 23.2474 4.10278 22.2882 4.10278ZM17.0296 12.6495L13.6434 16.2844C13.5567 16.3768 13.4352 16.4289 13.3025 16.4289C13.1695 16.4289 13.0481 16.3768 12.9615 16.2844L9.57511 12.6495C9.40179 12.4646 9.40766 12.1699 9.59822 11.9966C9.78328 11.8232 10.0721 11.8348 10.2455 12.0197L12.8229 14.7935V8.18832C12.8229 7.93412 13.0308 7.72614 13.285 7.72614C13.5394 7.72614 13.7474 7.93412 13.7474 8.18832V14.7935L16.3362 12.0197C16.5097 11.8348 16.8044 11.8231 16.995 11.9966C17.1857 12.1699 17.2029 12.4589 17.0296 12.6495Z" fill="#404041"/>
</svg>
