<svg width="20" height="15" viewBox="0 0 20 15" fill="none" xmlns="http://www.w3.org/2000/svg">
<path fill-rule="evenodd" clip-rule="evenodd" d="M1.94118 0H17.4706C18.5382 0 19.4118 0.84375 19.4118 1.875V13.125C19.4118 14.1562 18.5382 15 17.4706 15H1.94118C0.873529 15 0 14.1562 0 13.125V1.875C0 0.84375 0.873529 0 1.94118 0ZM10.7347 7.81877L17.0824 3.98439C17.325 3.83439 17.4706 3.58127 17.4706 3.30939C17.4706 2.68127 16.7621 2.30627 16.2088 2.63439L9.70588 6.56252L3.20294 2.63439C2.64971 2.30627 1.94118 2.68127 1.94118 3.30939C1.94118 3.58127 2.08676 3.83439 2.32941 3.98439L8.67706 7.81877C9.30794 8.20314 10.1038 8.20314 10.7347 7.81877Z" fill="#D98337"/>
</svg>
