<svg width="39" height="35" viewBox="0 0 39 35" fill="none" xmlns="http://www.w3.org/2000/svg">
<g clip-path="url(#clip0_290_225)">
<path d="M0 35V33.25C0 24.854 0 16.458 0.0198392 8.06193C0.0766217 7.46065 0.233542 6.87315 0.484078 6.32386C0.662428 5.96411 0.861145 5.61487 1.07926 5.27784C1.90854 3.59943 3.50758 2.21534 2.90447 0H14.0779C14.1295 0.0596591 14.2049 0.111364 14.2009 0.151136C13.9351 1.84148 14.7763 3.18182 15.7325 4.375C17.1292 6.14091 17.53 8.06989 17.4982 10.3091C17.3871 18.1085 17.4585 25.9159 17.4585 33.7193V35H0ZM0.896734 8.07386V34.1608H10.3482V8.07386H0.896734ZM9.43158 3.32898C9.43158 2.42216 8.24122 1.20511 7.30878 1.20114C6.11842 1.20114 4.83681 2.46193 4.80903 3.65114C4.80903 4.55398 5.97558 5.81875 6.86835 5.84261C8.03886 5.87443 9.40777 4.53409 9.43158 3.32898Z" fill="#404041"/>
<path d="M21.8148 13.3599H32.7344C32.7661 13.4036 32.8415 13.4553 32.8375 13.4951C32.5915 15.3604 33.6311 16.7445 34.6389 18.0968C35.7414 19.5444 36.2853 21.3423 36.1705 23.1599C36.0277 26.7394 36.1308 30.3428 36.1308 33.9343V35.0002H18.7239C18.7239 34.6621 18.6763 34.3599 18.6763 34.0616C18.6763 29.7582 18.6763 25.4547 18.6763 21.1513C18.7046 20.6978 18.8262 20.255 19.0334 19.8508C19.2953 19.29 19.6484 18.7769 19.9579 18.2599C20.463 17.5132 20.9075 16.7272 21.2871 15.9093C21.5359 15.0763 21.7124 14.2233 21.8148 13.3599ZM19.5254 34.165H29.0482V21.4099H19.5254V34.165ZM25.993 14.565C25.3597 14.5961 24.7586 14.8542 24.2991 15.2922C23.8396 15.7301 23.5522 16.3189 23.4893 16.9513C23.4575 17.89 24.5844 19.1269 25.501 19.1587C26.6913 19.2025 28.0523 17.8979 28.0801 16.6888C28.0999 15.7741 26.9373 14.5849 25.993 14.565Z" fill="#404041"/>
<path d="M1.66241 21.1231C1.65584 20.5946 1.7557 20.0701 1.95603 19.5812C2.15635 19.0923 2.45302 18.6489 2.82828 18.2776C3.20354 17.9063 3.64967 17.6146 4.13999 17.4202C4.6303 17.2257 5.15471 17.1324 5.68185 17.1458C6.7266 17.1573 7.72466 17.5814 8.45937 18.3261C9.19407 19.0707 9.60611 20.0758 9.60605 21.1231C9.60605 22.1779 9.18801 23.1895 8.44389 23.9354C7.69978 24.6813 6.69054 25.1003 5.6382 25.1003C4.58586 25.1003 3.57662 24.6813 2.83251 23.9354C2.08839 23.1895 1.67035 22.1779 1.67035 21.1231H1.66241ZM5.63026 18.2475C4.97954 19.3452 4.39626 20.2083 3.93996 21.135C3.72048 21.5157 3.65492 21.9662 3.75677 22.3938C3.85863 22.8214 4.12016 23.1937 4.48752 23.4339C4.80387 23.6963 5.20018 23.8426 5.61079 23.8483C6.02139 23.8541 6.42165 23.7191 6.74523 23.4657C7.11614 23.229 7.38378 22.8603 7.49423 22.4337C7.60467 22.0071 7.5497 21.5544 7.34041 21.1668C6.86823 20.2322 6.28496 19.3651 5.63423 18.2475H5.63026Z" fill="#404041"/>
<path d="M24.2785 23.812C25.3335 23.812 26.3453 24.2321 27.0913 24.9798C27.8372 25.7276 28.2563 26.7418 28.2563 27.7992C28.2563 28.8567 27.8372 29.8709 27.0913 30.6186C26.3453 31.3664 25.3335 31.7864 24.2785 31.7864C23.2236 31.7864 22.2118 31.3664 21.4658 30.6186C20.7199 29.8709 20.3008 28.8567 20.3008 27.7992C20.3008 26.7418 20.7199 25.7276 21.4658 24.9798C22.2118 24.2321 23.2236 23.812 24.2785 23.812ZM24.4412 25.1603H24.1119C23.5961 26.0631 23.0326 26.9421 22.5803 27.8728C22.3857 28.2476 22.3364 28.6813 22.4419 29.0904C22.5474 29.4994 22.8003 29.8549 23.1517 30.0882C23.4681 30.3416 23.8595 30.4827 24.2645 30.4892C24.6695 30.4956 25.0652 30.3672 25.3895 30.1239C25.7503 29.9021 26.0146 29.5523 26.13 29.1441C26.2454 28.7359 26.2035 28.2992 26.0125 27.9205C25.5602 26.9779 24.9729 26.083 24.4412 25.1603Z" fill="#404041"/>
</g>
<defs>
<clipPath id="clip0_290_225">
<rect width="39" height="35" fill="white"/>
</clipPath>
</defs>
</svg>
