<svg width="65" height="54" viewBox="0 0 65 54" fill="none" xmlns="http://www.w3.org/2000/svg">
<g clip-path="url(#clip0_288_184)">
<path d="M18.5994 46.1825H27.7014C30.4952 46.1825 33.289 46.196 36.0829 46.1825C36.2327 46.1742 36.3827 46.197 36.5231 46.2494C36.6634 46.3017 36.791 46.3825 36.8975 46.4864C37.004 46.5903 37.0871 46.715 37.1414 46.8525C37.1957 46.99 37.2199 47.1372 37.2125 47.2845C37.1734 47.8152 37.2125 48.348 37.2008 48.8807C37.2008 49.0345 37.2438 49.0999 37.4103 49.0961C37.8332 49.0961 38.26 49.1307 38.632 48.8518C38.8006 48.7364 38.9377 48.582 39.0313 48.4022C39.1248 48.2225 39.1719 48.0229 39.1684 47.821C39.1684 44.4363 39.1684 41.0528 39.1684 37.6707C39.1551 37.1613 39.2272 36.6532 39.3818 36.1668C39.7734 35.0129 41.0851 34.0667 42.3362 34.0513C42.5574 34.0513 42.8491 34.1013 42.9764 33.9878C43.1036 33.8744 43.0195 33.5878 43.0195 33.3763C43.0195 28.0165 43.0195 22.6567 43.0195 17.2969C43.0217 15.5964 43.5524 13.9371 44.5407 12.5409C44.8657 12.0717 45.267 11.6563 45.6253 11.2082C45.6976 11.1248 45.7415 11.0212 45.7506 10.912C45.7506 8.02729 45.7506 5.14257 45.7506 2.24247C45.7506 2.05015 45.686 2.00977 45.5059 2.01169C44.7959 2.01938 44.0839 2.01938 43.3699 2.01169C42.7082 2.01169 42.2716 1.62706 42.2637 1.03281C42.2533 0.897037 42.2724 0.760644 42.3197 0.632652C42.3669 0.50466 42.4413 0.387989 42.5379 0.29036C42.6346 0.19273 42.7512 0.116367 42.8801 0.0663254C43.009 0.0162834 43.1473 -0.00629709 43.2857 7.8186e-05C43.7576 7.8186e-05 44.2294 7.8186e-05 44.7012 7.8186e-05H60.8396C61.517 7.8186e-05 61.9439 0.425094 61.9164 1.06742C61.893 1.62129 61.4505 2.00207 60.8142 2.00592C60.1779 2.00977 59.4829 2.00592 58.8172 2.00592C58.4354 2.00592 58.4354 2.00592 58.4354 2.36939C58.4354 2.94634 58.4354 3.54059 58.4354 4.12523C58.4354 6.37787 58.4354 8.63052 58.4354 10.8832C58.4399 11.0008 58.4864 11.1131 58.5666 11.2005C59.5684 12.2113 60.3171 13.4373 60.7535 14.7814C61.0231 15.6077 61.1631 16.4695 61.1686 17.3372C61.1686 28.7876 61.1686 40.2387 61.1686 51.6904C61.1686 52.0058 61.1686 52.0039 61.4798 52.0039H64.0211C64.6339 52.0039 65 52.3885 65 53.0251C65.0044 53.1525 64.9821 53.2794 64.9344 53.398C64.8868 53.5166 64.8148 53.6244 64.723 53.7145C64.6312 53.8047 64.5216 53.8754 64.4008 53.9222C64.2801 53.969 64.1508 53.9909 64.0211 53.9866H55.1737H40.2197C39.9934 53.9972 39.7704 53.9303 39.5887 53.7974C39.407 53.6645 39.2778 53.4738 39.2232 53.2578C39.1136 52.7231 39.3309 52.2673 39.8106 52.0731C39.9258 52.0312 40.048 52.011 40.1708 52.0135C41.046 52.0135 41.9211 52.0039 42.7963 52.0135C42.992 52.0135 43.0469 51.9635 43.0469 51.7692C43.0469 46.6229 43.0469 41.4753 43.0469 36.3264C43.0469 36.1129 42.9901 36.0379 42.7591 36.0398C41.7508 36.0398 41.2359 36.5418 41.2359 37.5264C41.2359 40.9483 41.2359 44.3696 41.2359 47.7902C41.2562 48.4654 41.0498 49.1284 40.6485 49.6769C40.2557 50.2252 39.7067 50.6474 39.0705 50.8904C38.561 51.0725 38.0171 51.1434 37.4768 51.0981C37.2693 51.0827 37.2086 51.1615 37.2106 51.3577C37.2204 51.9616 37.2243 52.5654 37.2008 53.1674C37.1902 53.3282 37.1206 53.4799 37.005 53.5943C36.7818 53.7982 36.5704 54.0155 36.1886 53.9789C35.782 53.961 35.3748 53.9662 34.9688 53.9943H18.8304C12.9569 53.9943 7.08345 53.9943 1.20995 54.0059C0.477725 54.0059 1.44779e-05 53.6039 0.00393014 52.852C0.00393014 50.9423 0.00393014 49.0345 0.00393014 47.1268C0.00636522 46.9991 0.0349586 46.8733 0.0880029 46.7568C0.141047 46.6402 0.217454 46.5354 0.312662 46.4485C0.407869 46.3617 0.519924 46.2945 0.642135 46.2511C0.764345 46.2077 0.894206 46.189 1.02396 46.196H8.54791C11.4037 46.196 14.2596 46.196 17.1154 46.196H18.5994V46.1825ZM56.366 9.56196C56.366 9.45619 56.3875 9.36964 56.3875 9.28118C56.3875 8.24268 56.3875 7.20354 56.3875 6.16376C56.3875 4.87141 56.3875 3.57905 56.3875 2.2867C56.3875 2.06746 56.3229 2.00592 56.0978 2.00592C53.4299 2.01361 50.7601 2.01361 48.0883 2.00592C47.8573 2.00592 47.8044 2.079 47.8044 2.29054C47.8044 4.62524 47.8044 6.9593 47.8044 9.29272C47.8044 9.37734 47.8181 9.46388 47.8279 9.56196C48.2704 9.38503 48.6795 9.21195 49.0985 9.06386C49.1594 9.05392 49.2139 9.02102 49.2505 8.97217C49.2871 8.92332 49.3028 8.86238 49.2943 8.80232C49.2943 8.36192 49.2943 7.91959 49.2943 7.47919C49.2933 7.06625 49.4012 6.66009 49.6076 6.3003C49.8111 5.92719 50.0988 5.60472 50.4486 5.35754C50.7985 5.11036 51.2012 4.945 51.626 4.87412C52.0509 4.80324 52.4866 4.82869 52.8999 4.94855C53.3132 5.06841 53.6932 5.27949 54.0107 5.56566C54.455 5.92072 54.7459 6.42778 54.8252 6.98494C54.8917 7.59843 54.8917 8.2196 54.9309 8.83693C54.9357 8.87798 54.9495 8.91751 54.9715 8.95273C54.9935 8.98795 55.0231 9.01801 55.0582 9.04079C55.4791 9.21964 55.9039 9.37926 56.366 9.56196Z" fill="#404041"/>
<path d="M1.78369 44.192V26.2163C1.85417 26.2163 1.92857 26.2029 2.00101 26.2029H15.929C16.2873 26.2029 16.2873 26.2029 16.2873 26.5414C16.2873 30.6992 16.2873 34.857 16.2873 39.0149C16.2873 39.4284 16.2481 39.8418 16.2501 40.2534C16.2501 41.4457 16.2775 42.6381 16.2893 43.8285C16.2893 44.1901 16.2893 44.1901 15.9271 44.1901H1.78369V44.192Z" fill="#404041"/>
<path d="M34.9336 35.1936V43.867C34.9336 44.192 34.9336 44.192 34.6047 44.192H21.2542C20.9194 44.192 20.9214 44.192 20.9214 43.8516V26.5241C20.9214 26.2068 20.9214 26.2048 21.2483 26.2048H34.6145C34.9316 26.2048 34.9336 26.2048 34.9336 26.5106V35.1936Z" fill="#404041"/>
<path d="M20.949 20.2143C21.0978 19.7066 21.1957 19.2316 21.3739 18.7835C21.8492 17.5561 22.6744 16.4892 23.7507 15.7102C24.827 14.9313 26.1089 14.4733 27.4432 14.391C27.5548 14.391 27.6389 14.3718 27.6389 14.2333C27.6389 13.5045 27.6683 12.7718 27.6076 12.0467C27.5686 11.6524 27.3788 11.2872 27.0765 11.0249C26.7742 10.7626 26.3819 10.6226 25.9787 10.6332C22.6974 10.6332 19.4154 10.6332 16.1328 10.6332C15.4358 10.6332 14.7388 10.6082 14.0418 10.6082C13.2841 10.6082 12.5265 10.6082 11.7688 10.639C10.9719 10.6659 10.2828 11.4333 10.2749 12.2833C10.2749 12.9371 10.2749 13.591 10.2749 14.2449C10.2749 14.4218 10.3337 14.493 10.5158 14.5276C11.8987 14.8106 13.1672 15.4845 14.1652 16.4666C15.1632 17.4486 15.8471 18.6958 16.1328 20.0547C16.1328 20.0912 16.1328 20.1278 16.1484 20.1932H1.92871C2.11275 18.2258 4.15085 14.8603 8.27208 14.391V14.1487C8.27208 13.5026 8.27208 12.8564 8.27208 12.2102C8.27074 11.3231 8.60594 10.4673 9.21228 9.80982C9.81862 9.15235 10.6526 8.74039 11.5515 8.65431C12.0527 8.61392 12.5558 8.62546 13.059 8.62354C14.1573 8.62354 15.2576 8.62354 16.356 8.62354C16.8082 8.62354 17.2605 8.65623 17.7127 8.662C17.889 8.662 18.0652 8.62354 18.2414 8.62354C20.7865 8.62354 23.3513 8.612 25.9043 8.62354C27.5097 8.62354 28.6981 9.34472 29.3677 10.7871C29.5469 11.2064 29.6483 11.6539 29.6673 12.1083C29.7142 12.866 29.6829 13.6276 29.677 14.3891C29.6721 14.4184 29.6733 14.4484 29.6806 14.4772C29.6878 14.5061 29.7011 14.5331 29.7194 14.5567C29.7378 14.5803 29.7608 14.6 29.7872 14.6145C29.8136 14.629 29.8428 14.638 29.8728 14.6411C31.1183 14.9891 32.2403 15.6715 33.1126 16.6115C33.9849 17.5516 34.5729 18.712 34.8105 19.9624C34.8496 20.1547 34.8105 20.2259 34.5853 20.2259C30.389 20.2259 26.1941 20.2259 22.0004 20.2259L20.949 20.2143Z" fill="#404041"/>
<path d="M9.00617 22.2085H16.489C17.1233 22.2085 17.5364 22.5931 17.5404 23.2008C17.547 23.336 17.5245 23.4709 17.4744 23.5969C17.4242 23.7229 17.3476 23.8371 17.2495 23.9321C17.1514 24.027 17.034 24.1005 16.9049 24.1478C16.7759 24.1951 16.6382 24.2152 16.5007 24.2066C11.5252 24.2066 6.5504 24.2066 1.5762 24.2066C1.21792 24.2066 0.890959 24.1105 0.708881 23.822C0.407375 23.3316 0.39367 22.6681 1.03975 22.3585C1.23254 22.2686 1.44306 22.2213 1.65647 22.22C4.10768 22.22 6.55105 22.22 9.014 22.22L9.00617 22.2085Z" fill="#404041"/>
<path d="M27.9365 22.2086H35.4096C35.6357 22.1951 35.8596 22.259 36.0431 22.3894C36.2266 22.5199 36.3583 22.7088 36.4159 22.924C36.4772 23.1649 36.4478 23.4195 36.333 23.6408C36.2182 23.8621 36.0258 24.0351 35.7914 24.1279C35.5326 24.197 35.2626 24.216 34.9965 24.1837C34.6832 24.1664 34.3661 24.2068 34.0508 24.2068C29.5165 24.2068 24.9828 24.2068 20.4498 24.2068C19.7273 24.2068 19.2007 23.5952 19.4826 22.799C19.5566 22.6138 19.6887 22.4566 19.8598 22.3501C20.0309 22.2436 20.232 22.1934 20.4341 22.2067L27.9365 22.2086Z" fill="#404041"/>
</g>
<defs>
<clipPath id="clip0_288_184">
<rect width="65" height="54" fill="white"/>
</clipPath>
</defs>
</svg>
