<svg width="30" height="29" viewBox="0 0 30 29" fill="none" xmlns="http://www.w3.org/2000/svg">
<path fill-rule="evenodd" clip-rule="evenodd" d="M15.2128 28.9998C23.0757 28.9998 29.4498 22.6257 29.4498 14.7628C29.4498 6.89998 23.0757 0.525879 15.2128 0.525879C7.34994 0.525879 0.97583 6.89998 0.97583 14.7628C0.97583 22.6257 7.34994 28.9998 15.2128 28.9998ZM10.9053 16.2491L7.63211 15.0286C7.29925 14.9177 7.29925 14.4184 7.63211 14.3074L21.113 9.09261C21.3904 8.98166 21.6678 9.25904 21.6123 9.53642L19.1713 21.1866C19.1158 21.4639 18.783 21.5749 18.5611 21.4085L15.2879 19.023C15.066 18.8565 14.7886 18.8565 14.6222 19.023L12.7915 20.5208C12.5696 20.6873 12.2367 20.6318 12.1812 20.3544L10.9053 16.2491ZM18.4501 11.7L12.0148 15.6389C11.7374 15.7498 11.6264 16.0827 11.7929 16.3601L12.4586 18.8011C12.5141 19.023 12.7915 18.9675 12.7915 18.8011L12.9579 17.4696C12.9579 17.1922 13.1243 16.9703 13.2908 16.8039L18.5611 11.8665C18.672 11.811 18.5611 11.6445 18.4501 11.7Z" fill="#F3F3F3"/>
</svg>
