<svg width="59" height="54" viewBox="0 0 59 54" fill="none" xmlns="http://www.w3.org/2000/svg">
<path d="M25.9994 42.8481C26.8459 39.2467 28.6692 35.9486 31.2688 33.3164V31.2751H33.3593L33.4676 31.1742C35.2049 29.61 37.065 28.188 39.03 26.9217C39.8468 26.4007 40.6343 25.8352 41.3889 25.2276C41.714 24.9494 42.0242 24.6564 42.3271 24.3732C42.5044 24.2058 42.6743 24.0433 42.8417 23.8808V19.9484H31.2688V8.37549H19.9421V19.9484H8.36914V31.2751H19.9421V42.8481H25.9994Z" fill="#404041"/>
<path d="M28.0682 53.929C28.0682 53.929 25.8521 51.4667 27.0833 44.8184C28.3145 38.1701 31.2693 35.2153 34.4703 32.2605C37.6713 29.3057 40.6261 27.8283 42.3497 26.3509C44.0734 24.8735 45.3045 23.1499 45.5508 25.1198C45.797 27.0896 44.3196 29.552 42.3497 31.2756C40.3799 32.9992 37.1788 36.2002 37.4251 36.4465C37.6713 36.6927 42.1035 34.9691 45.797 29.7982C49.4905 24.6273 50.7216 18.964 53.6764 15.7629C56.6312 12.5619 58.1086 13.0544 58.3549 13.3006C58.6011 13.5468 56.8775 17.4866 55.8925 22.6574C54.9076 27.8283 51.7066 39.155 44.0734 45.5571C36.4402 51.9591 31.2693 53.4365 28.0682 53.929Z" fill="#404041"/>
<path d="M25.2461 49.2504C20.8131 49.1589 16.4962 47.8159 12.7936 45.3763C9.09102 42.9368 6.15362 39.5001 4.32033 35.4628C2.48703 31.4255 1.83255 26.9522 2.43241 22.5589C3.03227 18.1657 4.86201 14.0315 7.71052 10.6335C10.559 7.23549 14.3102 4.71207 18.5313 3.35441C22.7523 1.99675 27.2712 1.86018 31.5666 2.96045C35.8619 4.06072 39.7587 6.353 42.8072 9.5728C45.8557 12.7926 47.9318 16.8087 48.7958 21.1577C49.2883 20.0915 49.7808 19.0573 50.3052 18.0872C48.8939 13.5522 46.2551 9.49616 42.6809 6.3683C39.1067 3.24045 34.7366 1.16278 30.0545 0.365325C25.3723 -0.432126 20.5608 0.081762 16.1527 1.85009C11.7446 3.61842 7.91192 6.57219 5.07895 10.3844C2.24598 14.1965 0.523289 18.7183 0.101626 23.4492C-0.320037 28.18 0.575778 32.9352 2.68988 37.1883C4.80399 41.4414 8.0539 45.0264 12.0798 47.5465C16.1056 50.0666 20.7504 51.4233 25.4998 51.4665C25.3565 50.7357 25.2717 49.9947 25.2461 49.2504V49.2504Z" fill="#404041"/>
</svg>
