<svg width="108" height="75" viewBox="0 0 108 75" fill="none" xmlns="http://www.w3.org/2000/svg">
<path d="M107.433 34.3007C107.374 34.4607 107.374 34.637 107.433 34.797C107.543 36.3259 107.549 37.8604 107.451 39.39C107.378 39.5478 107.369 39.7276 107.424 39.8924C107.284 40.2243 107.445 40.5891 107.317 40.924C107.317 41.1034 107.299 41.2828 107.293 41.4652C107.128 41.7313 107.32 42.0633 107.164 42.3174C106.976 43.3012 106.811 44.291 106.59 45.2658C105.301 51.0061 102.668 56.3586 98.9083 60.8836C96.4831 63.8286 93.6104 66.3744 90.3952 68.4279C86.7386 70.81 82.6719 72.493 78.4015 73.3917C77.4181 73.6443 76.4192 73.8321 75.4113 73.9538C75.178 74.0585 74.9149 73.9269 74.6846 74.0555L74.6278 74.0405L74.58 74.0734C74.2541 74.2289 73.8892 74.0435 73.5633 74.193L72.6274 74.2229C72.0054 74.3306 71.3805 74.2379 70.7585 74.2768C70.4086 74.3007 70.3219 74.1362 70.3309 73.8223C70.3309 73.2242 70.3309 72.6262 70.3309 72.0281C70.3309 68.8286 70.3309 65.6281 70.3309 62.4266C70.3309 62.1844 70.2262 61.9182 70.4296 61.697L71.7901 61.676C72.1699 61.5325 72.5825 61.7089 72.9623 61.5654C76.8157 61.2406 80.5217 59.9342 83.727 57.7708C90.0394 53.5636 93.81 47.6908 94.7459 40.1495C96.241 28.0751 88.8283 17.4389 78.1324 13.8357C66.8742 10.0471 54.2914 15.0318 48.7087 25.5154C47.4194 27.9387 46.5212 30.5504 46.0474 33.2541C46.022 33.4844 46.016 33.7165 46.0295 33.9478C45.877 34.2199 46.0295 34.5459 45.9159 34.803C45.8403 35.0657 45.83 35.3428 45.886 35.6104C45.6736 36.1097 46.0235 36.6779 45.6976 37.1623H33.2792C33.046 36.959 33.1746 36.7168 33.2075 36.4835C33.2767 35.901 33.2878 35.313 33.2404 34.7283C33.3689 34.4293 33.2404 34.1302 33.345 33.8312L33.3779 33.3019C33.5244 33.0298 33.351 32.7039 33.4945 32.4378C33.6708 30.6346 34.01 28.8511 34.5082 27.1092C35.0607 25.1097 35.7902 23.1633 36.6881 21.2933C37.6003 19.367 38.6789 17.524 39.9115 15.7853C40.8086 14.5354 41.7983 13.3453 42.815 12.1761C43.8068 11.0591 44.8728 10.0102 46.0056 9.03641C47.8483 7.42594 49.8524 6.01005 51.986 4.81124C53.8553 3.73086 55.8226 2.82978 57.8617 2.12006C59.9549 1.41736 62.0779 0.762503 64.2967 0.544218C64.4767 0.510755 64.6537 0.462754 64.8259 0.400688C65.0562 0.257158 65.3343 0.400688 65.5675 0.28108L66.0848 0.248187C66.3838 0.125589 66.6828 0.272109 66.9819 0.14054L67.3437 0.122599C67.9029 -0.0538237 68.4889 0.167452 69.0481 0H71.6466C72.1968 0.185393 72.7769 -0.0418629 73.3271 0.122599C73.3812 0.154786 73.442 0.17397 73.5048 0.17864C73.5676 0.18331 73.6306 0.173338 73.6889 0.14951C73.9879 0.28108 74.2869 0.14951 74.586 0.257158L75.1063 0.28706C75.3365 0.421619 75.6116 0.269119 75.8419 0.403678C76.9123 0.634921 77.9818 0.866163 79.0503 1.09741C82.2783 1.82397 85.3837 3.01555 88.2691 4.63482C95.9691 8.88308 101.915 15.7214 105.053 23.9366C106.027 26.4103 106.697 28.9926 107.051 31.6274C107.084 31.7616 107.131 31.8919 107.191 32.0162C107.32 32.2524 107.191 32.5275 107.302 32.7637L107.338 33.4096C107.442 33.6967 107.302 34.0166 107.433 34.3007Z" fill="#B83227"/>
<path d="M83.6313 37.446V36.7463C83.4699 36.3216 83.6672 35.8671 83.5117 35.4425C83.2905 34.5096 83.1738 33.5527 82.821 32.6497C82.1168 30.755 80.9922 29.0446 79.5318 27.6471C78.5133 26.6687 77.3505 25.8528 76.0841 25.228C74.9488 24.6874 73.7474 24.2983 72.5108 24.0708C72.2446 23.9063 71.9127 24.1007 71.6586 23.9422L70.8691 23.9123C70.5667 23.8226 70.2446 23.8226 69.9422 23.9123L69.0152 23.9392C68.782 24.0678 68.5069 23.9392 68.2736 24.0528C65.3152 24.4671 62.5963 25.9075 60.5918 28.1225C58.6093 30.3233 57.3444 32.8829 57.165 35.8731C56.9736 36.2768 57.2727 36.7702 56.9856 37.1469H47.6233C47.39 36.9406 47.5156 36.6984 47.5545 36.4652C47.6711 35.6937 47.5276 34.9013 47.7219 34.1358C47.8565 33.9056 47.698 33.6275 47.8445 33.3972C48.6017 28.7179 50.827 24.4004 54.1987 21.0686C58.0488 17.1248 63.2321 14.7597 68.7341 14.4363C75.0345 14.0057 80.5873 15.8716 85.3507 19.9861C89.3338 23.3495 91.9743 28.0331 92.7903 33.1819C93.9625 40.2089 92.285 46.5422 87.6591 51.9903C84.1128 56.1766 79.5647 58.6974 74.1494 59.6273C74.0118 59.6512 73.8833 59.6991 73.7487 59.735C73.4826 59.9114 73.1507 59.7081 72.8845 59.8695L72.2117 59.8964C70.3369 60.1177 70.3369 60.1177 70.3369 58.3206C70.3369 55.8955 70.3369 53.4705 70.3369 51.0454C70.3369 50.8391 70.2053 50.5819 70.4655 50.4205C70.6226 50.4846 70.7987 50.4846 70.9559 50.4205C71.3296 50.256 71.7393 50.4534 72.1131 50.3009C74.0537 50.1783 75.7641 49.4038 77.3728 48.3871C80.0856 46.6856 82.1006 44.0702 83.0542 41.0133C83.2435 40.3243 83.3952 39.6256 83.5087 38.9201C83.6702 38.4178 83.4609 37.9154 83.6313 37.446Z" fill="#D98337"/>
<path d="M7.47674 74.7788C5.68262 74.6114 4.06491 74.115 2.64756 72.9518C1.54118 72.0548 0.952109 70.8587 0.527499 69.5819C0.252782 68.7381 0.103669 67.8585 0.0849485 66.9714C-0.0395198 66.564 -0.0269146 66.127 0.120831 65.7275L7.6711 65.7484C7.92077 65.699 8.17988 65.7415 8.40072 65.868C8.65488 66.167 8.40071 66.5558 8.56817 66.8667C8.5263 67.7638 8.77449 68.5712 9.55494 69.0675C10.5567 69.7044 12.4016 69.4712 12.7754 67.8715C12.8622 67.4221 12.8622 66.9603 12.7754 66.5109C12.3059 65.5002 11.3012 65.249 10.4012 64.8872C8.7715 64.2384 7.06708 63.7898 5.47031 63.0632C4.09781 62.4382 2.74623 61.7565 1.7176 60.5963C0.960757 59.782 0.484946 58.7466 0.360048 57.642C0.222498 57.4117 0.360048 57.1336 0.243429 56.8974V54.8969C0.386959 54.6218 0.213527 54.2989 0.360048 54.0268C0.543476 52.5513 1.13709 51.1569 2.07344 50.002C3.04226 48.8059 4.33104 48.172 5.7185 47.6427C6.28963 47.4274 6.89664 47.3885 7.47076 47.2031C7.68606 47.0387 7.96714 47.2271 8.18542 47.0686L8.72665 47.0476C9.24395 46.8981 9.78518 47.0955 10.3025 46.937C10.5903 46.9984 10.8878 46.9984 11.1756 46.937C11.7438 47.0925 12.3328 46.8981 12.898 47.0476C14.6921 47.2839 16.4862 47.6008 18.083 48.5039C20.1134 49.6491 21.0134 51.512 21.2795 53.7487C21.3065 54.26 21.45 54.7743 21.1868 55.2677C18.5953 55.196 15.9938 55.196 13.3824 55.2677C13.0834 55.0375 13.3824 54.6697 13.188 54.4215C12.7425 52.7231 11.0949 51.9935 9.64165 52.8457C9.21704 53.0909 8.92699 53.4228 8.9868 53.955C8.90455 54.227 8.90455 54.5173 8.9868 54.7893C9.07949 55.4142 9.56391 55.7013 10.0453 55.9555C11.8933 56.9273 13.8997 57.5044 15.8583 58.2011C17.177 58.6706 18.4897 59.14 19.5721 60.076C21.0672 61.3827 21.5995 63.1409 21.8297 65.0308C21.9173 65.7257 21.9173 66.4289 21.8297 67.1239C21.5875 68.6997 21.1839 70.2128 20.1612 71.4956C18.8515 73.1372 17.0992 74.0193 15.1018 74.5037C14.3351 74.7026 13.5544 74.8425 12.7664 74.9224C11.4228 75.0255 10.0733 75.0255 8.72964 74.9224C8.6538 74.8853 8.57121 74.8641 8.4869 74.86C8.40259 74.8559 8.31833 74.8689 8.23924 74.8984C7.98807 74.7699 7.70998 74.8955 7.47674 74.7788Z" fill="#404041"/>
<path d="M56.6178 38.9684C57.2756 38.8936 57.1441 39.3631 57.1441 39.7369C57.1441 50.9781 57.1441 62.2202 57.1441 73.4634C57.1441 73.7415 57.1441 74.0196 57.162 74.2977C57.0035 74.51 56.7733 74.4083 56.5819 74.4083C53.7771 74.4083 50.9723 74.4083 48.1675 74.4292C47.5963 74.4292 47.4857 74.2498 47.4887 73.7236C47.5006 62.3428 47.5006 50.9621 47.4887 39.5814C47.4887 39.381 47.4109 39.1598 47.5844 38.9833L48.1136 38.9654C48.6829 38.8832 49.2597 38.8651 49.833 38.9116C51.8634 38.9116 53.8907 38.9116 55.9211 38.9116C56.1545 38.874 56.3935 38.8935 56.6178 38.9684Z" fill="#404041"/>
<path d="M70.2711 37.1894C69.6052 37.1127 68.9337 37.0957 68.2647 37.1386C65.1908 37.1386 62.1168 37.1386 59.0399 37.1565C58.8186 36.8007 58.9173 36.4269 58.9831 36.0561C59.195 33.337 60.3986 30.7905 62.365 28.9006C64.0365 27.2201 66.1387 26.2961 68.465 25.8745C68.6893 25.7429 68.9584 25.8984 69.1827 25.7579L69.8555 25.7309C70.1725 25.6517 70.5042 25.6517 70.8213 25.7309L71.4971 25.7579C71.7662 25.9193 72.0951 25.716 72.3583 25.8894C74.2032 26.3499 75.9465 27.0108 77.4416 28.2308C79.6387 29.9465 81.1071 32.4283 81.5532 35.18C81.585 35.2836 81.6271 35.3837 81.6788 35.479C81.8671 35.8498 81.6489 36.2654 81.8103 36.6392V37.6679C81.6638 37.9938 81.8402 38.3556 81.6967 38.6815C81.4394 40.0827 80.9684 41.4361 80.3003 42.6944C79.5639 44.0409 78.5594 45.2222 77.3488 46.1655C76.1381 47.1087 74.747 47.7938 73.2613 48.1784C72.8363 48.3383 72.3899 48.434 71.9367 48.4625C71.6197 48.6001 71.2609 48.4176 70.9439 48.5761H70.4625C70.2233 48.3728 70.3519 48.0977 70.3519 47.8645C70.3519 44.5543 70.3519 41.2471 70.3519 37.937C70.3927 37.6851 70.3648 37.4268 70.2711 37.1894Z" fill="#EABA40"/>
<path d="M59.0638 50.2651C60.6366 50.3907 62.2124 50.298 63.7883 50.316C65.1548 50.3339 66.5243 50.3489 67.8908 50.316C68.438 50.301 68.5786 50.4535 68.5786 51.0037C68.5606 58.6108 68.5606 66.2169 68.5786 73.822C68.5786 73.9835 68.5786 74.1479 68.5786 74.3094C68.4171 74.5157 68.1899 74.417 67.9985 74.417C65.1907 74.417 62.3829 74.417 59.5781 74.417C59.0757 74.417 58.9023 74.3184 58.9053 73.7741C58.9232 66.1192 58.9053 58.4643 58.9232 50.8094C58.9262 50.6329 58.8006 50.3907 59.0638 50.2651Z" fill="#404041"/>
<path d="M59.0189 38.986L59.5452 38.968C60.1145 38.8859 60.6912 38.8678 61.2646 38.9142C63.2949 38.9142 65.3253 38.9142 67.3556 38.9142C67.5842 38.8792 67.8178 38.8986 68.0374 38.971C68.5278 38.9112 68.5726 39.1923 68.5726 39.596C68.5726 42.5862 68.5726 45.5584 68.5726 48.5427C68.462 48.7191 68.2736 48.6533 68.1331 48.6533C65.2386 48.6533 62.347 48.6533 59.4615 48.6533C59.1146 48.6533 58.9053 48.6294 58.9083 48.1838C58.9262 45.1936 58.9083 42.2034 58.9083 39.2132C58.909 39.1695 58.9193 39.1266 58.9384 39.0873C58.9575 39.048 58.985 39.0135 59.0189 38.986Z" fill="#404041"/>
<path d="M45.6049 59.4964C45.4554 58.9761 45.6318 58.4348 45.5032 57.9116L45.4673 56.8351C45.3178 56.5092 45.4973 56.1473 45.3507 55.8214C45.255 55.2832 45.1713 54.7419 45.0517 54.2067C44.4537 51.4497 43.2217 49.1802 40.4886 47.9901C39.6589 47.6799 38.8135 47.4134 37.9559 47.1917C37.7317 47.0272 37.4476 47.1917 37.2174 47.0601L36.7001 47.0332C36.1349 46.8807 35.5488 47.081 34.9867 46.9196C34.701 46.9824 34.4051 46.9824 34.1195 46.9196C33.5962 47.0721 33.049 46.8837 32.5257 47.0302L31.9965 47.0541C31.7722 47.1976 31.4971 47.0332 31.2728 47.1767C30.2412 47.4399 29.1797 47.6223 28.2138 48.0738C24.9665 49.6257 23.6657 52.4484 23.1933 55.8065C23.0288 56.0786 23.2172 56.4045 23.0677 56.6796L23.0408 57.1999C22.9062 57.5378 23.0677 57.9056 22.9272 58.2405C22.9975 58.5865 22.9914 58.9437 22.9092 59.2871C22.8001 60.3987 22.8001 61.5184 22.9092 62.6301C22.9752 62.9255 22.9752 63.2318 22.9092 63.5272C23.0587 63.9099 22.8823 64.3226 23.0228 64.7053L23.0527 65.2166C23.1753 65.4499 23.0528 65.725 23.1664 65.9582C23.2643 66.6861 23.4163 67.4058 23.6209 68.1112C24.2578 70.3807 25.415 72.2466 27.5082 73.4547C29.0814 74.3268 30.8387 74.8145 32.6364 74.878C33.8405 74.9737 35.0504 74.9737 36.2545 74.878C36.9074 74.8359 37.5545 74.7287 38.1862 74.558C40.4587 74.0198 42.4442 73.0241 43.7779 71.0087C44.4327 70.0219 44.7168 68.8856 45.0278 67.7643C45.1833 67.534 45.0278 67.25 45.1534 67.0167L45.1893 66.3679C45.3119 66.03 45.1594 65.6652 45.2939 65.3303C45.2251 65.1718 45.1594 65.0103 45.0906 64.8518C44.8468 64.9213 44.5915 64.9406 44.34 64.9086C42.4263 64.9086 40.5156 64.9086 38.6018 64.9086C37.9953 64.959 37.3853 64.949 36.7808 64.8787C36.6014 64.9655 36.6044 65.1239 36.6044 65.2914C36.602 66.1403 36.5016 66.9862 36.3054 67.8121C36.0063 69.1577 34.6338 69.8036 33.4527 69.083C32.6902 68.6195 32.4988 67.848 32.5168 67.0078C32.4141 65.5232 32.4191 64.0332 32.5317 62.5494C32.7712 62.4642 33.0285 62.4416 33.2793 62.4836C37.1247 62.4836 40.9671 62.4627 44.8125 62.4836C45.4404 62.4836 45.6109 62.3012 45.578 61.7001C45.5331 60.9915 45.5899 60.2439 45.6049 59.4964ZM36.6074 57.17C36.6074 57.469 36.4369 57.4959 36.2067 57.4929C35.6505 57.4929 35.0943 57.4929 34.5411 57.4929C33.9879 57.4929 33.4318 57.4929 32.8756 57.4929C32.6394 57.4929 32.4689 57.46 32.4749 57.164C32.5018 56.0815 32.3882 54.9901 32.6573 53.9226C32.9025 52.9658 33.4467 52.571 34.4694 52.5681C35.6146 52.5681 36.1738 52.9478 36.4279 53.9286C36.703 55.0111 36.5745 56.0935 36.6074 57.176V57.17Z" fill="#404041"/>
</svg>
